<?xml version="1.0" encoding="UTF-8" standalone="no"?>
<!DOCTYPE svg PUBLIC "-//W3C//DTD SVG 1.1//EN"
 "http://www.w3.org/Graphics/SVG/1.1/DTD/svg11.dtd">
<!-- Generated by graphviz version 2.43.0 (0)
 -->
<!-- Title: g Pages: 1 -->
<svg width="928pt" height="392pt"
 viewBox="0.00 0.00 928.00 392.00" xmlns="http://www.w3.org/2000/svg" xmlns:xlink="http://www.w3.org/1999/xlink">
<g id="graph0" class="graph" transform="scale(1 1) rotate(0) translate(4 388)">
<title>g</title>
<polygon fill="white" stroke="transparent" points="-4,4 -4,-388 924,-388 924,4 -4,4"/>
<text text-anchor="middle" x="460" y="-7.8" font-family="Times,serif" font-size="14.00">kset与kobject关系图</text>
<!-- kset -->
<g id="node1" class="node">
<title>kset</title>
<polygon fill="none" stroke="black" points="0,-119.5 0,-249.5 290,-249.5 290,-119.5 0,-119.5"/>
<text text-anchor="start" x="8" y="-232.7" font-family="Times,serif" font-size="16.00">kset:struct kset {</text>
<polyline fill="none" stroke="black" points="0,-223.5 290,-223.5 "/>
<text text-anchor="end" x="282" y="-206.7" font-family="Times,serif" font-size="16.00">struct list_head list</text>
<polyline fill="none" stroke="black" points="0,-197.5 290,-197.5 "/>
<text text-anchor="end" x="282" y="-180.7" font-family="Times,serif" font-size="16.00">struct kobject kobj</text>
<polyline fill="none" stroke="black" points="0,-171.5 290,-171.5 "/>
<text text-anchor="end" x="282" y="-154.7" font-family="Times,serif" font-size="16.00">const struct kset_uevent_ops *uevent_ops;</text>
<polyline fill="none" stroke="black" points="0,-145.5 290,-145.5 "/>
<text text-anchor="start" x="8" y="-128.7" font-family="Times,serif" font-size="16.00">}</text>
</g>
<!-- kobject0 -->
<g id="node2" class="node">
<title>kobject0</title>
<polygon fill="none" stroke="black" points="326,-131.5 326,-383.5 500,-383.5 500,-131.5 326,-131.5"/>
<text text-anchor="start" x="334" y="-366.7" font-family="Times,serif" font-size="16.00">kobject0:struct kobject {</text>
<polyline fill="none" stroke="black" points="326,-357.5 500,-357.5 "/>
<text text-anchor="end" x="492" y="-340.7" font-family="Times,serif" font-size="16.00">const char name</text>
<polyline fill="none" stroke="black" points="326,-331.5 500,-331.5 "/>
<text text-anchor="end" x="492" y="-314.7" font-family="Times,serif" font-size="16.00">struct list_head entry</text>
<polyline fill="none" stroke="black" points="326,-305.5 500,-305.5 "/>
<text text-anchor="end" x="492" y="-288.7" font-family="Times,serif" font-size="16.00">strut kobject *parent</text>
<polyline fill="none" stroke="black" points="326,-279.5 500,-279.5 "/>
<text text-anchor="end" x="492" y="-262.7" font-family="Times,serif" font-size="16.00">struct kset *kset </text>
<polyline fill="none" stroke="black" points="326,-253.5 500,-253.5 "/>
<text text-anchor="end" x="492" y="-236.7" font-family="Times,serif" font-size="16.00">struct kobj_type *ktype;</text>
<polyline fill="none" stroke="black" points="326,-227.5 500,-227.5 "/>
<text text-anchor="middle" x="413" y="-210.7" font-family="Times,serif" font-size="16.00">struct kernfs_node *sd</text>
<polyline fill="none" stroke="black" points="326,-201.5 500,-201.5 "/>
<text text-anchor="middle" x="413" y="-184.7" font-family="Times,serif" font-size="16.00">struct kref kref;</text>
<polyline fill="none" stroke="black" points="326,-175.5 500,-175.5 "/>
<text text-anchor="middle" x="413" y="-158.7" font-family="Times,serif" font-size="16.00">...</text>
<text text-anchor="start" x="334" y="-140.7" font-family="Times,serif" font-size="16.00">}</text>
</g>
<!-- kset&#45;&gt;kobject0 -->
<g id="0" class="edge">
<title>kset:f1&#45;&gt;kobject0:f2</title>
<path fill="none" stroke="black" d="M299.85,-212.37C328.43,-225.48 287.64,-303.3 316.04,-316.57"/>
<polygon fill="black" stroke="black" points="300.48,-208.93 290,-210.5 299.17,-215.81 300.48,-208.93"/>
<polygon fill="black" stroke="black" points="315.52,-320.04 326,-318.5 316.85,-313.16 315.52,-320.04"/>
</g>
<!-- kobject1 -->
<g id="node3" class="node">
<title>kobject1</title>
<polygon fill="none" stroke="black" points="536,-131.5 536,-383.5 710,-383.5 710,-131.5 536,-131.5"/>
<text text-anchor="start" x="544" y="-366.7" font-family="Times,serif" font-size="16.00">kobject1:struct kobject {</text>
<polyline fill="none" stroke="black" points="536,-357.5 710,-357.5 "/>
<text text-anchor="end" x="702" y="-340.7" font-family="Times,serif" font-size="16.00">const char name</text>
<polyline fill="none" stroke="black" points="536,-331.5 710,-331.5 "/>
<text text-anchor="end" x="702" y="-314.7" font-family="Times,serif" font-size="16.00">struct list_head entry</text>
<polyline fill="none" stroke="black" points="536,-305.5 710,-305.5 "/>
<text text-anchor="end" x="702" y="-288.7" font-family="Times,serif" font-size="16.00">strut kobject *parent</text>
<polyline fill="none" stroke="black" points="536,-279.5 710,-279.5 "/>
<text text-anchor="end" x="702" y="-262.7" font-family="Times,serif" font-size="16.00">struct kset *kset </text>
<polyline fill="none" stroke="black" points="536,-253.5 710,-253.5 "/>
<text text-anchor="end" x="702" y="-236.7" font-family="Times,serif" font-size="16.00">struct kobj_type *ktype;</text>
<polyline fill="none" stroke="black" points="536,-227.5 710,-227.5 "/>
<text text-anchor="middle" x="623" y="-210.7" font-family="Times,serif" font-size="16.00">struct kernfs_node *sd</text>
<polyline fill="none" stroke="black" points="536,-201.5 710,-201.5 "/>
<text text-anchor="middle" x="623" y="-184.7" font-family="Times,serif" font-size="16.00">struct kref kref;</text>
<polyline fill="none" stroke="black" points="536,-175.5 710,-175.5 "/>
<text text-anchor="middle" x="623" y="-158.7" font-family="Times,serif" font-size="16.00">...</text>
<text text-anchor="start" x="544" y="-140.7" font-family="Times,serif" font-size="16.00">}</text>
</g>
<!-- kobject0&#45;&gt;kobject1 -->
<g id="4" class="edge">
<title>kobject0:f2&#45;&gt;kobject1:f2</title>
<path fill="none" stroke="black" d="M510.12,-318.5C515.79,-318.5 519.99,-318.5 525.61,-318.5"/>
<polygon fill="black" stroke="black" points="510,-315 500,-318.5 510,-322 510,-315"/>
<polygon fill="black" stroke="black" points="526,-322 536,-318.5 526,-315 526,-322"/>
</g>
<!-- kobject2 -->
<g id="node4" class="node">
<title>kobject2</title>
<polygon fill="none" stroke="black" points="746,-23.5 746,-275.5 920,-275.5 920,-23.5 746,-23.5"/>
<text text-anchor="start" x="754" y="-258.7" font-family="Times,serif" font-size="16.00">kobject2:struct kobject {</text>
<polyline fill="none" stroke="black" points="746,-249.5 920,-249.5 "/>
<text text-anchor="end" x="912" y="-232.7" font-family="Times,serif" font-size="16.00">const char name</text>
<polyline fill="none" stroke="black" points="746,-223.5 920,-223.5 "/>
<text text-anchor="end" x="912" y="-206.7" font-family="Times,serif" font-size="16.00">struct list_head entry</text>
<polyline fill="none" stroke="black" points="746,-197.5 920,-197.5 "/>
<text text-anchor="end" x="912" y="-180.7" font-family="Times,serif" font-size="16.00">strut kobject *parent</text>
<polyline fill="none" stroke="black" points="746,-171.5 920,-171.5 "/>
<text text-anchor="end" x="912" y="-154.7" font-family="Times,serif" font-size="16.00">struct kset *kset </text>
<polyline fill="none" stroke="black" points="746,-145.5 920,-145.5 "/>
<text text-anchor="end" x="912" y="-128.7" font-family="Times,serif" font-size="16.00">struct kobj_type *ktype;</text>
<polyline fill="none" stroke="black" points="746,-119.5 920,-119.5 "/>
<text text-anchor="middle" x="833" y="-102.7" font-family="Times,serif" font-size="16.00">struct kernfs_node *sd</text>
<polyline fill="none" stroke="black" points="746,-93.5 920,-93.5 "/>
<text text-anchor="middle" x="833" y="-76.7" font-family="Times,serif" font-size="16.00">struct kref kref;</text>
<polyline fill="none" stroke="black" points="746,-67.5 920,-67.5 "/>
<text text-anchor="middle" x="833" y="-50.7" font-family="Times,serif" font-size="16.00">...</text>
<text text-anchor="start" x="754" y="-32.7" font-family="Times,serif" font-size="16.00">}</text>
</g>
<!-- kobject1&#45;&gt;kobject2 -->
<g id="7" class="edge">
<title>kobject1:f2&#45;&gt;kobject2:f2</title>
<path fill="none" stroke="black" d="M719.85,-316.63C748.43,-303.52 707.64,-225.7 736.04,-212.43"/>
<polygon fill="black" stroke="black" points="719.17,-313.19 710,-318.5 720.48,-320.07 719.17,-313.19"/>
<polygon fill="black" stroke="black" points="736.85,-215.84 746,-210.5 735.52,-208.96 736.85,-215.84"/>
</g>
<!-- kobject2&#45;&gt;kset -->
<g id="11" class="edge">
<title>kobject2:w&#45;&gt;kset:e</title>
<path fill="none" stroke="blue" d="M735.86,-208.75C711.09,-198.3 741.66,-143.75 710,-122.5 568.3,-27.37 467.7,-27.37 326,-122.5 294.34,-143.75 324.91,-198.3 300.14,-208.75"/>
<polygon fill="blue" stroke="blue" points="735.55,-212.25 746,-210.5 736.74,-205.35 735.55,-212.25"/>
<polygon fill="blue" stroke="blue" points="299.26,-205.35 290,-210.5 300.45,-212.25 299.26,-205.35"/>
</g>
</g>
</svg>
