<?xml version="1.0" encoding="UTF-8" standalone="no"?>
<!DOCTYPE svg PUBLIC "-//W3C//DTD SVG 1.1//EN"
 "http://www.w3.org/Graphics/SVG/1.1/DTD/svg11.dtd">
<!-- Generated by graphviz version 2.43.0 (0)
 -->
<!-- Title: g Pages: 1 -->
<svg width="422pt" height="326pt"
 viewBox="0.00 0.00 422.00 326.00" xmlns="http://www.w3.org/2000/svg" xmlns:xlink="http://www.w3.org/1999/xlink">
<g id="graph0" class="graph" transform="scale(1 1) rotate(0) translate(4 322)">
<title>g</title>
<polygon fill="white" stroke="transparent" points="-4,4 -4,-322 418,-322 418,4 -4,4"/>
<text text-anchor="middle" x="207" y="-7.8" font-family="Times,serif" font-size="14.00">kset与kobject关系图</text>
<!-- kset -->
<g id="node1" class="node">
<title>kset</title>
<polygon fill="none" stroke="black" points="0,-101.5 0,-205.5 90,-205.5 90,-101.5 0,-101.5"/>
<text text-anchor="middle" x="45" y="-188.7" font-family="Times,serif" font-size="16.00">kset</text>
<polyline fill="none" stroke="black" points="0,-179.5 90,-179.5 "/>
<text text-anchor="middle" x="45" y="-162.7" font-family="Times,serif" font-size="16.00">list</text>
<polyline fill="none" stroke="black" points="0,-153.5 90,-153.5 "/>
<text text-anchor="middle" x="45" y="-136.7" font-family="Times,serif" font-size="16.00">kobj</text>
<polyline fill="none" stroke="black" points="0,-127.5 90,-127.5 "/>
<text text-anchor="middle" x="45" y="-110.7" font-family="Times,serif" font-size="16.00">uevent_ops</text>
</g>
<!-- kobject0 -->
<g id="node2" class="node">
<title>kobject0</title>
<polygon fill="none" stroke="black" points="126,-109.5 126,-317.5 198,-317.5 198,-109.5 126,-109.5"/>
<text text-anchor="middle" x="162" y="-300.7" font-family="Times,serif" font-size="16.00">kobject0</text>
<polyline fill="none" stroke="black" points="126,-291.5 198,-291.5 "/>
<text text-anchor="middle" x="162" y="-274.7" font-family="Times,serif" font-size="16.00">name</text>
<polyline fill="none" stroke="black" points="126,-265.5 198,-265.5 "/>
<text text-anchor="middle" x="162" y="-248.7" font-family="Times,serif" font-size="16.00">entry</text>
<polyline fill="none" stroke="black" points="126,-239.5 198,-239.5 "/>
<text text-anchor="middle" x="162" y="-222.7" font-family="Times,serif" font-size="16.00">parent</text>
<polyline fill="none" stroke="black" points="126,-213.5 198,-213.5 "/>
<text text-anchor="middle" x="162" y="-196.7" font-family="Times,serif" font-size="16.00">kset</text>
<polyline fill="none" stroke="black" points="126,-187.5 198,-187.5 "/>
<text text-anchor="middle" x="162" y="-170.7" font-family="Times,serif" font-size="16.00">ktype</text>
<polyline fill="none" stroke="black" points="126,-161.5 198,-161.5 "/>
<text text-anchor="middle" x="162" y="-144.7" font-family="Times,serif" font-size="16.00">sd</text>
<polyline fill="none" stroke="black" points="126,-135.5 198,-135.5 "/>
<text text-anchor="middle" x="162" y="-118.7" font-family="Times,serif" font-size="16.00">kref</text>
</g>
<!-- kset&#45;&gt;kobject0 -->
<g id="0" class="edge">
<title>kset:f1&#45;&gt;kobject0:f2</title>
<path fill="none" stroke="black" d="M90,-166.5C127.39,-166.5 92.88,-236.52 116.22,-250.2"/>
<polygon fill="black" stroke="black" points="115.46,-253.62 126,-252.5 117.07,-246.8 115.46,-253.62"/>
</g>
<!-- kobject1 -->
<g id="node3" class="node">
<title>kobject1</title>
<polygon fill="none" stroke="black" points="234,-109.5 234,-317.5 306,-317.5 306,-109.5 234,-109.5"/>
<text text-anchor="middle" x="270" y="-300.7" font-family="Times,serif" font-size="16.00">kobject1</text>
<polyline fill="none" stroke="black" points="234,-291.5 306,-291.5 "/>
<text text-anchor="middle" x="270" y="-274.7" font-family="Times,serif" font-size="16.00">name</text>
<polyline fill="none" stroke="black" points="234,-265.5 306,-265.5 "/>
<text text-anchor="middle" x="270" y="-248.7" font-family="Times,serif" font-size="16.00">entry</text>
<polyline fill="none" stroke="black" points="234,-239.5 306,-239.5 "/>
<text text-anchor="middle" x="270" y="-222.7" font-family="Times,serif" font-size="16.00">parent</text>
<polyline fill="none" stroke="black" points="234,-213.5 306,-213.5 "/>
<text text-anchor="middle" x="270" y="-196.7" font-family="Times,serif" font-size="16.00">kset</text>
<polyline fill="none" stroke="black" points="234,-187.5 306,-187.5 "/>
<text text-anchor="middle" x="270" y="-170.7" font-family="Times,serif" font-size="16.00">ktype</text>
<polyline fill="none" stroke="black" points="234,-161.5 306,-161.5 "/>
<text text-anchor="middle" x="270" y="-144.7" font-family="Times,serif" font-size="16.00">sd</text>
<polyline fill="none" stroke="black" points="234,-135.5 306,-135.5 "/>
<text text-anchor="middle" x="270" y="-118.7" font-family="Times,serif" font-size="16.00">kref</text>
</g>
<!-- kobject0&#45;&gt;kobject1 -->
<g id="4" class="edge">
<title>kobject0:f2&#45;&gt;kobject1:f2</title>
<path fill="none" stroke="black" d="M198,-252.5C210,-252.5 215.25,-252.5 223.88,-252.5"/>
<polygon fill="black" stroke="black" points="224,-256 234,-252.5 224,-249 224,-256"/>
</g>
<!-- kobject2 -->
<g id="node4" class="node">
<title>kobject2</title>
<polygon fill="none" stroke="black" points="342,-23.5 342,-231.5 414,-231.5 414,-23.5 342,-23.5"/>
<text text-anchor="middle" x="378" y="-214.7" font-family="Times,serif" font-size="16.00">kobject2</text>
<polyline fill="none" stroke="black" points="342,-205.5 414,-205.5 "/>
<text text-anchor="middle" x="378" y="-188.7" font-family="Times,serif" font-size="16.00">name</text>
<polyline fill="none" stroke="black" points="342,-179.5 414,-179.5 "/>
<text text-anchor="middle" x="378" y="-162.7" font-family="Times,serif" font-size="16.00">entry</text>
<polyline fill="none" stroke="black" points="342,-153.5 414,-153.5 "/>
<text text-anchor="middle" x="378" y="-136.7" font-family="Times,serif" font-size="16.00">parent</text>
<polyline fill="none" stroke="black" points="342,-127.5 414,-127.5 "/>
<text text-anchor="middle" x="378" y="-110.7" font-family="Times,serif" font-size="16.00">kset</text>
<polyline fill="none" stroke="black" points="342,-101.5 414,-101.5 "/>
<text text-anchor="middle" x="378" y="-84.7" font-family="Times,serif" font-size="16.00">ktype</text>
<polyline fill="none" stroke="black" points="342,-75.5 414,-75.5 "/>
<text text-anchor="middle" x="378" y="-58.7" font-family="Times,serif" font-size="16.00">sd</text>
<polyline fill="none" stroke="black" points="342,-49.5 414,-49.5 "/>
<text text-anchor="middle" x="378" y="-32.7" font-family="Times,serif" font-size="16.00">kref</text>
</g>
<!-- kobject1&#45;&gt;kobject2 -->
<g id="7" class="edge">
<title>kobject1:f2&#45;&gt;kobject2:f2</title>
<path fill="none" stroke="black" d="M306,-252.5C343.39,-252.5 308.88,-182.48 332.22,-168.8"/>
<polygon fill="black" stroke="black" points="333.07,-172.2 342,-166.5 331.46,-165.38 333.07,-172.2"/>
</g>
<!-- kobject2&#45;&gt;kset -->
<g id="11" class="edge">
<title>kobject2:f2&#45;&gt;kset:f1</title>
<path fill="none" stroke="blue" d="M342,-166.5C308.59,-166.5 334.73,-117.56 306,-100.5 237.21,-59.66 194.79,-59.66 126,-100.5 100.86,-115.42 117.73,-154.76 99.96,-164.36"/>
<polygon fill="blue" stroke="blue" points="99.04,-160.98 90,-166.5 100.51,-167.83 99.04,-160.98"/>
</g>
</g>
</svg>
