<?xml version="1.0" encoding="UTF-8" standalone="no"?>
<!DOCTYPE svg PUBLIC "-//W3C//DTD SVG 1.1//EN"
 "http://www.w3.org/Graphics/SVG/1.1/DTD/svg11.dtd">
<!-- Generated by graphviz version 2.43.0 (0)
 -->
<!-- Title: G Pages: 1 -->
<svg width="694pt" height="340pt"
 viewBox="0.00 0.00 694.00 340.31" xmlns="http://www.w3.org/2000/svg" xmlns:xlink="http://www.w3.org/1999/xlink">
<g id="graph0" class="graph" transform="scale(1 1) rotate(0) translate(4 336.31)">
<title>G</title>
<polygon fill="white" stroke="transparent" points="-4,4 -4,-336.31 690,-336.31 690,4 -4,4"/>
<text text-anchor="middle" x="343" y="-7.8" font-family="Times,serif" font-size="14.00">lsm处理流程</text>
<g id="clust1" class="cluster">
<title>cluster_0</title>
<polygon fill="none" stroke="black" points="8,-31 8,-324.31 678,-324.31 678,-31 8,-31"/>
<text text-anchor="middle" x="343" y="-309.11" font-family="Times,serif" font-size="14.00">应用空间</text>
</g>
<!-- A -->
<g id="node1" class="node">
<title>A</title>
<polygon fill="none" stroke="black" points="407,-293.31 279,-293.31 279,-257.31 407,-257.31 407,-293.31"/>
<text text-anchor="middle" x="343" y="-271.51" font-family="Times,serif" font-size="16.00">初始化hook结构</text>
</g>
<!-- B -->
<g id="node2" class="node">
<title>B</title>
<ellipse fill="none" stroke="black" cx="343" cy="-202.92" rx="125.32" ry="18.27"/>
<text text-anchor="middle" x="343" y="-199.12" font-family="Times,serif" font-size="16.00">模块调用DEFINE_LSM</text>
</g>
<!-- A&#45;&gt;B -->
<g id="edge1" class="edge">
<title>A&#45;&gt;B</title>
<path fill="none" stroke="black" d="M343,-257.27C343,-249.63 343,-240.43 343,-231.83"/>
<polygon fill="black" stroke="black" points="346.5,-231.79 343,-221.79 339.5,-231.79 346.5,-231.79"/>
</g>
<!-- C -->
<g id="node3" class="node">
<title>C</title>
<ellipse fill="none" stroke="black" cx="343" cy="-130.15" rx="135.11" ry="18.27"/>
<text text-anchor="middle" x="343" y="-126.35" font-family="Times,serif" font-size="16.00">内核初始化时初始化hook</text>
</g>
<!-- B&#45;&gt;C -->
<g id="edge2" class="edge">
<title>B&#45;&gt;C</title>
<path fill="none" stroke="black" d="M343,-184.43C343,-176.75 343,-167.54 343,-158.95"/>
<polygon fill="black" stroke="black" points="346.5,-158.94 343,-148.94 339.5,-158.94 346.5,-158.94"/>
</g>
<!-- D -->
<g id="node4" class="node">
<title>D</title>
<ellipse fill="none" stroke="black" cx="343" cy="-57.38" rx="327.28" ry="18.27"/>
<text text-anchor="middle" x="343" y="-53.58" font-family="Times,serif" font-size="16.00">静态桩点执行hook函数如: security_perf_event_read : call_int_hook</text>
</g>
<!-- C&#45;&gt;D -->
<g id="edge3" class="edge">
<title>C&#45;&gt;D</title>
<path fill="none" stroke="black" d="M343,-111.66C343,-103.98 343,-94.77 343,-86.19"/>
<polygon fill="black" stroke="black" points="346.5,-86.17 343,-76.17 339.5,-86.17 346.5,-86.17"/>
</g>
</g>
</svg>
