<?xml version="1.0" encoding="UTF-8" standalone="no"?>
<!DOCTYPE svg PUBLIC "-//W3C//DTD SVG 1.1//EN"
 "http://www.w3.org/Graphics/SVG/1.1/DTD/svg11.dtd">
<!-- Generated by graphviz version 2.43.0 (0)
 -->
<!-- Title: G Pages: 1 -->
<svg width="830pt" height="415pt"
 viewBox="0.00 0.00 830.00 415.00" xmlns="http://www.w3.org/2000/svg" xmlns:xlink="http://www.w3.org/1999/xlink">
<g id="graph0" class="graph" transform="scale(1 1) rotate(0) translate(4 411)">
<title>G</title>
<polygon fill="white" stroke="transparent" points="-4,4 -4,-411 826,-411 826,4 -4,4"/>
<text text-anchor="middle" x="411" y="-7.8" font-family="Times,serif" font-size="14.00">编译流程图</text>
<!-- A -->
<g id="node1" class="node">
<title>A</title>
<polygon fill="none" stroke="black" points="499.5,-407 322.5,-407 322.5,-371 499.5,-371 499.5,-407"/>
<text text-anchor="middle" x="411" y="-385.2" font-family="Times,serif" font-size="16.00">k_m1.c k_m2.c Makefile</text>
</g>
<!-- B -->
<g id="node2" class="node">
<title>B</title>
<polygon fill="none" stroke="black" points="499.5,-320 322.5,-320 322.5,-284 499.5,-284 499.5,-320"/>
<text text-anchor="middle" x="411" y="-298.2" font-family="Times,serif" font-size="16.00">k_m1.c k_m2.c Makefile</text>
</g>
<!-- A&#45;&gt;B -->
<g id="edge1" class="edge">
<title>A&#45;&gt;B</title>
<path fill="none" stroke="black" d="M411,-370.8C411,-359.16 411,-343.55 411,-330.24"/>
<polygon fill="black" stroke="black" points="414.5,-330.18 411,-320.18 407.5,-330.18 414.5,-330.18"/>
<text text-anchor="middle" x="436" y="-341.8" font-family="Times,serif" font-size="14.00">Makefile</text>
</g>
<!-- C -->
<g id="node3" class="node">
<title>C</title>
<polygon fill="none" stroke="black" points="662.5,-233 159.5,-233 159.5,-197 662.5,-197 662.5,-233"/>
<text text-anchor="middle" x="411" y="-211.2" font-family="Times,serif" font-size="16.00">k_m1.c k_m2.c Makefile + k_m1.o k_m2.o k_m.o k_m.mod modules.order</text>
</g>
<!-- B&#45;&gt;C -->
<g id="edge2" class="edge">
<title>B&#45;&gt;C</title>
<path fill="none" stroke="black" d="M411,-283.8C411,-272.16 411,-256.55 411,-243.24"/>
<polygon fill="black" stroke="black" points="414.5,-243.18 411,-233.18 407.5,-243.18 414.5,-243.18"/>
<text text-anchor="middle" x="452" y="-254.8" font-family="Times,serif" font-size="14.00">Makefile.build</text>
</g>
<!-- D -->
<g id="node4" class="node">
<title>D</title>
<polygon fill="none" stroke="black" points="764,-146 58,-146 58,-110 764,-110 764,-146"/>
<text text-anchor="middle" x="411" y="-124.2" font-family="Times,serif" font-size="16.00">k_m1.c k_m2.c Makefile k_m1.o k_m2.o k_m.o k_m.mod modules.order &#160;+ &#160;Module.symvers &#160;k_m.mod.c </text>
</g>
<!-- C&#45;&gt;D -->
<g id="edge3" class="edge">
<title>C&#45;&gt;D</title>
<path fill="none" stroke="black" d="M411,-196.8C411,-185.16 411,-169.55 411,-156.24"/>
<polygon fill="black" stroke="black" points="414.5,-156.18 411,-146.18 407.5,-156.18 414.5,-156.18"/>
<text text-anchor="middle" x="463.5" y="-167.8" font-family="Times,serif" font-size="14.00"> Makefile.modpost</text>
</g>
<!-- E -->
<g id="node5" class="node">
<title>E</title>
<polygon fill="none" stroke="black" points="822,-59 0,-59 0,-23 822,-23 822,-59"/>
<text text-anchor="middle" x="411" y="-37.2" font-family="Times,serif" font-size="16.00">k_m1.c k_m2.c Makefile k_m1.o k_m2.o k_m.o k_m.mod modules.order Module.symvers &#160;k_m.mod.c +k_m.mod.o k_m.ko</text>
</g>
<!-- D&#45;&gt;E -->
<g id="edge4" class="edge">
<title>D&#45;&gt;E</title>
<path fill="none" stroke="black" d="M411,-109.8C411,-98.16 411,-82.55 411,-69.24"/>
<polygon fill="black" stroke="black" points="414.5,-69.18 411,-59.18 407.5,-69.18 414.5,-69.18"/>
<text text-anchor="middle" x="464.5" y="-80.8" font-family="Times,serif" font-size="14.00"> Makefile.modfinal</text>
</g>
</g>
</svg>
