<?xml version="1.0" encoding="UTF-8" standalone="no"?>
<!DOCTYPE svg PUBLIC "-//W3C//DTD SVG 1.1//EN"
 "http://www.w3.org/Graphics/SVG/1.1/DTD/svg11.dtd">
<!-- Generated by graphviz version 2.43.0 (0)
 -->
<!-- Title: g Pages: 1 -->
<svg width="1874pt" height="774pt"
 viewBox="0.00 0.00 1874.00 774.50" xmlns="http://www.w3.org/2000/svg" xmlns:xlink="http://www.w3.org/1999/xlink">
<g id="graph0" class="graph" transform="scale(1 1) rotate(0) translate(4 770.5)">
<title>g</title>
<polygon fill="white" stroke="transparent" points="-4,4 -4,-770.5 1870,-770.5 1870,4 -4,4"/>
<text text-anchor="middle" x="933" y="-7.8" font-family="Times,serif" font-size="14.00">bus &lt;&#45;&gt; struct device &lt;&#45;&gt; strut device_driver关系</text>
<g id="clust1" class="cluster">
<title>cluster_0</title>
<polygon fill="none" stroke="black" points="8,-104.5 8,-758.5 1858,-758.5 1858,-104.5 8,-104.5"/>
<text text-anchor="middle" x="933" y="-743.3" font-family="Times,serif" font-size="14.00">bus &lt;&#45;&gt; struct device &lt;&#45;&gt; strut device_driver关系</text>
</g>
<!-- bus_type -->
<g id="node1" class="node">
<title>bus_type</title>
<polygon fill="none" stroke="black" points="16,-447.5 16,-577.5 192,-577.5 192,-447.5 16,-447.5"/>
<text text-anchor="start" x="24" y="-560.7" font-family="Times,serif" font-size="16.00">struct bus_type { </text>
<polyline fill="none" stroke="black" points="16,-551.5 192,-551.5 "/>
<text text-anchor="middle" x="104" y="-534.7" font-family="Times,serif" font-size="16.00">...</text>
<polyline fill="none" stroke="black" points="16,-525.5 192,-525.5 "/>
<text text-anchor="end" x="184" y="-508.7" font-family="Times,serif" font-size="16.00">struct subsys_private *p;</text>
<polyline fill="none" stroke="black" points="16,-499.5 192,-499.5 "/>
<text text-anchor="middle" x="104" y="-482.7" font-family="Times,serif" font-size="16.00">...</text>
<polyline fill="none" stroke="black" points="16,-473.5 192,-473.5 "/>
<text text-anchor="start" x="24" y="-456.7" font-family="Times,serif" font-size="16.00">}</text>
</g>
<!-- subsys_private -->
<g id="node2" class="node">
<title>subsys_private</title>
<polygon fill="none" stroke="black" points="235.5,-343.5 235.5,-525.5 414.5,-525.5 414.5,-343.5 235.5,-343.5"/>
<text text-anchor="start" x="243.5" y="-508.7" font-family="Times,serif" font-size="16.00">struct subsys_private {</text>
<polyline fill="none" stroke="black" points="235.5,-499.5 414.5,-499.5 "/>
<text text-anchor="end" x="406.5" y="-482.7" font-family="Times,serif" font-size="16.00">struct kset subsys;</text>
<polyline fill="none" stroke="black" points="235.5,-473.5 414.5,-473.5 "/>
<text text-anchor="end" x="406.5" y="-456.7" font-family="Times,serif" font-size="16.00">struct kset *devices_kset;</text>
<polyline fill="none" stroke="black" points="235.5,-447.5 414.5,-447.5 "/>
<text text-anchor="middle" x="325" y="-430.7" font-family="Times,serif" font-size="16.00">...</text>
<polyline fill="none" stroke="black" points="235.5,-421.5 414.5,-421.5 "/>
<text text-anchor="end" x="406.5" y="-404.7" font-family="Times,serif" font-size="16.00">struct kset *drivers_kset;</text>
<polyline fill="none" stroke="black" points="235.5,-395.5 414.5,-395.5 "/>
<text text-anchor="middle" x="325" y="-378.7" font-family="Times,serif" font-size="16.00">...</text>
<polyline fill="none" stroke="black" points="235.5,-369.5 414.5,-369.5 "/>
<text text-anchor="start" x="243.5" y="-352.7" font-family="Times,serif" font-size="16.00">}</text>
</g>
<!-- bus_type&#45;&gt;subsys_private -->
<g id="edge1" class="edge">
<title>bus_type:f2&#45;&gt;subsys_private:f0</title>
<path fill="none" stroke="black" d="M192,-512.5C206.73,-512.5 212.74,-512.5 223.79,-512.5"/>
<polygon fill="black" stroke="black" points="224,-516 234,-512.5 224,-509 224,-516"/>
</g>
<!-- kset_device -->
<g id="node3" class="node">
<title>kset_device</title>
<polygon fill="none" stroke="black" points="481,-438.5 481,-542.5 662,-542.5 662,-438.5 481,-438.5"/>
<text text-anchor="start" x="489" y="-525.7" font-family="Times,serif" font-size="16.00">struct device: struct kset {</text>
<polyline fill="none" stroke="black" points="481,-516.5 662,-516.5 "/>
<text text-anchor="end" x="654" y="-499.7" font-family="Times,serif" font-size="16.00">struct list_head list;</text>
<polyline fill="none" stroke="black" points="481,-490.5 662,-490.5 "/>
<text text-anchor="middle" x="571.5" y="-473.7" font-family="Times,serif" font-size="16.00">...</text>
<polyline fill="none" stroke="black" points="481,-464.5 662,-464.5 "/>
<text text-anchor="start" x="489" y="-447.7" font-family="Times,serif" font-size="16.00">}</text>
</g>
<!-- subsys_private&#45;&gt;kset_device -->
<g id="edge2" class="edge">
<title>subsys_private:f2&#45;&gt;kset_device:f0</title>
<path fill="none" stroke="black" d="M416,-460.5C457.68,-460.5 437.82,-529.5 479.5,-529.5"/>
</g>
<!-- kset_driver -->
<g id="node4" class="node">
<title>kset_driver</title>
<polygon fill="none" stroke="black" points="458,-315.5 458,-419.5 685,-419.5 685,-315.5 458,-315.5"/>
<text text-anchor="start" x="466" y="-402.7" font-family="Times,serif" font-size="16.00">struct device_driver: struct kset {</text>
<polyline fill="none" stroke="black" points="458,-393.5 685,-393.5 "/>
<text text-anchor="end" x="677" y="-376.7" font-family="Times,serif" font-size="16.00">struct list_head list;</text>
<polyline fill="none" stroke="black" points="458,-367.5 685,-367.5 "/>
<text text-anchor="middle" x="571.5" y="-350.7" font-family="Times,serif" font-size="16.00">...</text>
<polyline fill="none" stroke="black" points="458,-341.5 685,-341.5 "/>
<text text-anchor="start" x="466" y="-324.7" font-family="Times,serif" font-size="16.00">}</text>
</g>
<!-- subsys_private&#45;&gt;kset_driver -->
<g id="edge3" class="edge">
<title>subsys_private:f4&#45;&gt;kset_driver:f0</title>
<path fill="none" stroke="black" d="M416,-408.5C434.69,-408.5 439.31,-406.5 458,-406.5"/>
</g>
<!-- list_device -->
<g id="node5" class="node">
<title>list_device</title>
<polygon fill="none" stroke="black" points="721,-422.5 721,-526.5 918,-526.5 918,-422.5 721,-422.5"/>
<text text-anchor="start" x="729" y="-509.7" font-family="Times,serif" font-size="16.00">device list: struct list_head {</text>
<polyline fill="none" stroke="black" points="721,-500.5 918,-500.5 "/>
<text text-anchor="end" x="910" y="-483.7" font-family="Times,serif" font-size="16.00">struct list_head *next;</text>
<polyline fill="none" stroke="black" points="721,-474.5 918,-474.5 "/>
<text text-anchor="end" x="910" y="-457.7" font-family="Times,serif" font-size="16.00">struct list_head *prev;</text>
<polyline fill="none" stroke="black" points="721,-448.5 918,-448.5 "/>
<text text-anchor="start" x="729" y="-431.7" font-family="Times,serif" font-size="16.00">}</text>
</g>
<!-- kset_device&#45;&gt;list_device -->
<g id="edge4" class="edge">
<title>kset_device:f1&#45;&gt;list_device:f0</title>
<path fill="none" stroke="black" d="M663.5,-503.5C689.44,-503.5 695.06,-513.5 721,-513.5"/>
</g>
<!-- list_driver -->
<g id="node6" class="node">
<title>list_driver</title>
<polygon fill="none" stroke="black" points="722.5,-166.5 722.5,-270.5 916.5,-270.5 916.5,-166.5 722.5,-166.5"/>
<text text-anchor="start" x="730.5" y="-253.7" font-family="Times,serif" font-size="16.00">driver list: struct list_head {</text>
<polyline fill="none" stroke="black" points="722.5,-244.5 916.5,-244.5 "/>
<text text-anchor="end" x="908.5" y="-227.7" font-family="Times,serif" font-size="16.00">struct list_head *next;</text>
<polyline fill="none" stroke="black" points="722.5,-218.5 916.5,-218.5 "/>
<text text-anchor="end" x="908.5" y="-201.7" font-family="Times,serif" font-size="16.00">struct list_head *prev;</text>
<polyline fill="none" stroke="black" points="722.5,-192.5 916.5,-192.5 "/>
<text text-anchor="start" x="730.5" y="-175.7" font-family="Times,serif" font-size="16.00">}</text>
</g>
<!-- kset_driver&#45;&gt;list_driver -->
<g id="edge5" class="edge">
<title>kset_driver:f1&#45;&gt;list_driver:f0</title>
<path fill="none" stroke="black" d="M685,-380.5C742.02,-380.5 664.48,-257.5 721.5,-257.5"/>
</g>
<!-- list_device1 -->
<g id="node11" class="node">
<title>list_device1</title>
<polygon fill="none" stroke="black" points="954,-399.5 954,-503.5 1147,-503.5 1147,-399.5 954,-399.5"/>
<text text-anchor="start" x="962" y="-486.7" font-family="Times,serif" font-size="16.00">device c1: struct list_head {</text>
<polyline fill="none" stroke="black" points="954,-477.5 1147,-477.5 "/>
<text text-anchor="end" x="1139" y="-460.7" font-family="Times,serif" font-size="16.00">struct list_head *next;</text>
<polyline fill="none" stroke="black" points="954,-451.5 1147,-451.5 "/>
<text text-anchor="end" x="1139" y="-434.7" font-family="Times,serif" font-size="16.00">struct list_head *prev;</text>
<polyline fill="none" stroke="black" points="954,-425.5 1147,-425.5 "/>
<text text-anchor="start" x="962" y="-408.7" font-family="Times,serif" font-size="16.00">}</text>
</g>
<!-- list_device&#45;&gt;list_device1 -->
<g id="edge8" class="edge">
<title>list_device:f1&#45;&gt;list_device1:f0</title>
<path fill="none" stroke="black" d="M918,-487.5C930.04,-487.5 935.24,-489.18 943.86,-490.03"/>
<polygon fill="black" stroke="black" points="943.85,-493.53 954,-490.5 944.17,-486.54 943.85,-493.53"/>
</g>
<!-- list_devicen -->
<g id="node17" class="node">
<title>list_devicen</title>
<polygon fill="none" stroke="black" points="1657,-336.5 1657,-440.5 1850,-440.5 1850,-336.5 1657,-336.5"/>
<text text-anchor="start" x="1665" y="-423.7" font-family="Times,serif" font-size="16.00">device cn: struct list_head {</text>
<polyline fill="none" stroke="black" points="1657,-414.5 1850,-414.5 "/>
<text text-anchor="end" x="1842" y="-397.7" font-family="Times,serif" font-size="16.00">struct list_head *next;</text>
<polyline fill="none" stroke="black" points="1657,-388.5 1850,-388.5 "/>
<text text-anchor="end" x="1842" y="-371.7" font-family="Times,serif" font-size="16.00">struct list_head *prev;</text>
<polyline fill="none" stroke="black" points="1657,-362.5 1850,-362.5 "/>
<text text-anchor="start" x="1665" y="-345.7" font-family="Times,serif" font-size="16.00">}</text>
</g>
<!-- list_device&#45;&gt;list_devicen -->
<g id="edge17" class="edge">
<title>list_device:w&#45;&gt;list_devicen:s</title>
<path fill="none" stroke="black" d="M719.5,-461.5C701.94,-461.5 708.78,-435.07 720.5,-422 790.41,-344.03 849.97,-402.5 954,-390.5 1038.83,-380.7 1696.22,-257.22 1750,-325.64"/>
<polygon fill="black" stroke="black" points="1746.86,-327.24 1753.5,-335.5 1753.45,-324.9 1746.86,-327.24"/>
</g>
<!-- list_driver1 -->
<g id="node12" class="node">
<title>list_driver1</title>
<polygon fill="none" stroke="black" points="955,-182.5 955,-286.5 1146,-286.5 1146,-182.5 955,-182.5"/>
<text text-anchor="start" x="963" y="-269.7" font-family="Times,serif" font-size="16.00">driver d1: struct list_head {</text>
<polyline fill="none" stroke="black" points="955,-260.5 1146,-260.5 "/>
<text text-anchor="end" x="1138" y="-243.7" font-family="Times,serif" font-size="16.00">struct list_head *next;</text>
<polyline fill="none" stroke="black" points="955,-234.5 1146,-234.5 "/>
<text text-anchor="end" x="1138" y="-217.7" font-family="Times,serif" font-size="16.00">struct list_head *prev;</text>
<polyline fill="none" stroke="black" points="955,-208.5 1146,-208.5 "/>
<text text-anchor="middle" x="1050.5" y="-191.7" font-family="Times,serif" font-size="16.00"> </text>
</g>
<!-- list_driver&#45;&gt;list_driver1 -->
<g id="edge18" class="edge">
<title>list_driver:f1&#45;&gt;list_driver1:f0</title>
<path fill="none" stroke="black" d="M917.5,-231.5C937.98,-231.5 932.61,-260.3 944.21,-270.2"/>
<polygon fill="black" stroke="black" points="943.41,-273.62 954,-273.5 945.64,-266.99 943.41,-273.62"/>
</g>
<!-- list_drivern -->
<g id="node18" class="node">
<title>list_drivern</title>
<polygon fill="none" stroke="black" points="1658,-118.5 1658,-222.5 1849,-222.5 1849,-118.5 1658,-118.5"/>
<text text-anchor="start" x="1666" y="-205.7" font-family="Times,serif" font-size="16.00">driver dn: struct list_head {</text>
<polyline fill="none" stroke="black" points="1658,-196.5 1849,-196.5 "/>
<text text-anchor="end" x="1841" y="-179.7" font-family="Times,serif" font-size="16.00">struct list_head *next;</text>
<polyline fill="none" stroke="black" points="1658,-170.5 1849,-170.5 "/>
<text text-anchor="end" x="1841" y="-153.7" font-family="Times,serif" font-size="16.00">struct list_head *prev;</text>
<polyline fill="none" stroke="black" points="1658,-144.5 1849,-144.5 "/>
<text text-anchor="start" x="1666" y="-127.7" font-family="Times,serif" font-size="16.00">}</text>
</g>
<!-- list_driver&#45;&gt;list_drivern -->
<g id="edge27" class="edge">
<title>list_driver:w&#45;&gt;list_drivern:s</title>
<path fill="none" stroke="black" d="M721.5,-205.5C703.94,-205.5 710.24,-178.57 722.5,-166 1013.11,132.1 1241.88,-131.23 1658,-118.5 1696.28,-117.32 1743.24,-82.89 1752.04,-107.36"/>
<polygon fill="black" stroke="black" points="1748.61,-108.1 1753.5,-117.5 1755.54,-107.1 1748.61,-108.1"/>
</g>
<!-- kobject_device -->
<g id="node7" class="node">
<title>kobject_device</title>
<polygon fill="none" stroke="black" points="494,-561.5 494,-727.5 649,-727.5 649,-561.5 494,-561.5"/>
<text text-anchor="start" x="502" y="-710.7" font-family="Times,serif" font-size="16.00">struct device &#45;&gt; </text>
<text text-anchor="start" x="502" y="-692.7" font-family="Times,serif" font-size="16.00">struct kobject kobj:</text>
<text text-anchor="start" x="502" y="-674.7" font-family="Times,serif" font-size="16.00">struct kobject {</text>
<polyline fill="none" stroke="black" points="494,-665.5 649,-665.5 "/>
<text text-anchor="middle" x="571.5" y="-648.7" font-family="Times,serif" font-size="16.00">...</text>
<polyline fill="none" stroke="black" points="494,-639.5 649,-639.5 "/>
<text text-anchor="end" x="641" y="-622.7" font-family="Times,serif" font-size="16.00">struct list_head entry;</text>
<polyline fill="none" stroke="black" points="494,-613.5 649,-613.5 "/>
<text text-anchor="end" x="641" y="-596.7" font-family="Times,serif" font-size="16.00">...;</text>
<polyline fill="none" stroke="black" points="494,-587.5 649,-587.5 "/>
<text text-anchor="start" x="502" y="-570.7" font-family="Times,serif" font-size="16.00">}</text>
</g>
<!-- kobject_device&#45;&gt;list_device -->
<g id="edge28" class="edge">
<title>kobject_device:e&#45;&gt;list_device:n</title>
<path fill="none" stroke="black" d="M650.5,-626.5C737.55,-626.5 819.5,-614.54 819.5,-527.5"/>
</g>
<!-- kobject_driver -->
<g id="node8" class="node">
<title>kobject_driver</title>
<polygon fill="none" stroke="black" points="479,-112.5 479,-296.5 664,-296.5 664,-112.5 479,-112.5"/>
<text text-anchor="start" x="487" y="-279.7" font-family="Times,serif" font-size="16.00">struct device_driver &#45;&gt; </text>
<text text-anchor="start" x="487" y="-261.7" font-family="Times,serif" font-size="16.00">struct driver_private *p&#45;&gt; </text>
<text text-anchor="start" x="487" y="-243.7" font-family="Times,serif" font-size="16.00">struct kobject kobj:</text>
<text text-anchor="start" x="487" y="-225.7" font-family="Times,serif" font-size="16.00">struct kobject {</text>
<polyline fill="none" stroke="black" points="479,-216.5 664,-216.5 "/>
<text text-anchor="middle" x="571.5" y="-199.7" font-family="Times,serif" font-size="16.00">...</text>
<polyline fill="none" stroke="black" points="479,-190.5 664,-190.5 "/>
<text text-anchor="end" x="656" y="-173.7" font-family="Times,serif" font-size="16.00">struct list_head entry;</text>
<polyline fill="none" stroke="black" points="479,-164.5 664,-164.5 "/>
<text text-anchor="end" x="656" y="-147.7" font-family="Times,serif" font-size="16.00">...;</text>
<polyline fill="none" stroke="black" points="479,-138.5 664,-138.5 "/>
<text text-anchor="start" x="487" y="-121.7" font-family="Times,serif" font-size="16.00">}</text>
</g>
<!-- kobject_driver&#45;&gt;list_driver -->
<g id="edge29" class="edge">
<title>kobject_driver:e&#45;&gt;list_driver:w</title>
<path fill="none" stroke="black" d="M665.5,-177.5C700.08,-177.5 686.92,-231.5 721.5,-231.5"/>
</g>
<!-- device -->
<g id="node9" class="node">
<title>device</title>
<polygon fill="none" stroke="black" points="228,-544.5 228,-726.5 422,-726.5 422,-544.5 228,-544.5"/>
<text text-anchor="start" x="236" y="-709.7" font-family="Times,serif" font-size="16.00">struct device {</text>
<polyline fill="none" stroke="black" points="228,-700.5 422,-700.5 "/>
<text text-anchor="middle" x="325" y="-683.7" font-family="Times,serif" font-size="16.00">struct kobject kobj;</text>
<polyline fill="none" stroke="black" points="228,-674.5 422,-674.5 "/>
<text text-anchor="middle" x="325" y="-657.7" font-family="Times,serif" font-size="16.00">...</text>
<polyline fill="none" stroke="black" points="228,-648.5 422,-648.5 "/>
<text text-anchor="end" x="414" y="-631.7" font-family="Times,serif" font-size="16.00">struct bus_type *bus</text>
<polyline fill="none" stroke="black" points="228,-622.5 422,-622.5 "/>
<text text-anchor="end" x="414" y="-605.7" font-family="Times,serif" font-size="16.00">struct device_driver *driver</text>
<polyline fill="none" stroke="black" points="228,-596.5 422,-596.5 "/>
<text text-anchor="middle" x="325" y="-579.7" font-family="Times,serif" font-size="16.00">...</text>
<polyline fill="none" stroke="black" points="228,-570.5 422,-570.5 "/>
<text text-anchor="start" x="236" y="-553.7" font-family="Times,serif" font-size="16.00">}</text>
</g>
<!-- device&#45;&gt;kobject_device -->
<g id="edge6" class="edge">
<title>device:f1&#45;&gt;kobject_device:f0</title>
<path fill="none" stroke="black" d="M422,-687.5C453.59,-687.5 460.91,-696.5 492.5,-696.5"/>
</g>
<!-- device_driver -->
<g id="node10" class="node">
<title>device_driver</title>
<polygon fill="none" stroke="black" points="239.5,-168.5 239.5,-324.5 410.5,-324.5 410.5,-168.5 239.5,-168.5"/>
<text text-anchor="start" x="247.5" y="-307.7" font-family="Times,serif" font-size="16.00">struct device_driver {</text>
<polyline fill="none" stroke="black" points="239.5,-298.5 410.5,-298.5 "/>
<text text-anchor="middle" x="325" y="-281.7" font-family="Times,serif" font-size="16.00">...</text>
<polyline fill="none" stroke="black" points="239.5,-272.5 410.5,-272.5 "/>
<text text-anchor="end" x="402.5" y="-255.7" font-family="Times,serif" font-size="16.00">struct bus_type *bus</text>
<polyline fill="none" stroke="black" points="239.5,-246.5 410.5,-246.5 "/>
<text text-anchor="middle" x="325" y="-229.7" font-family="Times,serif" font-size="16.00">...</text>
<polyline fill="none" stroke="black" points="239.5,-220.5 410.5,-220.5 "/>
<text text-anchor="start" x="247.5" y="-203.7" font-family="Times,serif" font-size="16.00">struct driver_private *p;</text>
<polyline fill="none" stroke="black" points="239.5,-194.5 410.5,-194.5 "/>
<text text-anchor="start" x="247.5" y="-177.7" font-family="Times,serif" font-size="16.00">}</text>
</g>
<!-- device_driver&#45;&gt;kobject_driver -->
<g id="edge7" class="edge">
<title>device_driver:f4&#45;&gt;kobject_driver:f0</title>
<path fill="none" stroke="black" d="M412,-207.5C448.36,-207.5 441.14,-256.5 477.5,-256.5"/>
</g>
<!-- list_device1&#45;&gt;list_device -->
<g id="edge9" class="edge">
<title>list_device1:f2&#45;&gt;list_device:e</title>
<path fill="none" stroke="black" d="M954,-438.5C941.96,-438.5 936.76,-436.81 928.14,-435.96"/>
<polygon fill="black" stroke="black" points="928.15,-432.46 918,-435.5 927.83,-439.45 928.15,-432.46"/>
</g>
<!-- list_device2 -->
<g id="node13" class="node">
<title>list_device2</title>
<polygon fill="none" stroke="black" points="1183,-377.5 1183,-481.5 1376,-481.5 1376,-377.5 1183,-377.5"/>
<text text-anchor="start" x="1191" y="-464.7" font-family="Times,serif" font-size="16.00">device c2: struct list_head {</text>
<polyline fill="none" stroke="black" points="1183,-455.5 1376,-455.5 "/>
<text text-anchor="end" x="1368" y="-438.7" font-family="Times,serif" font-size="16.00">struct list_head *next;</text>
<polyline fill="none" stroke="black" points="1183,-429.5 1376,-429.5 "/>
<text text-anchor="end" x="1368" y="-412.7" font-family="Times,serif" font-size="16.00">struct list_head *prev;</text>
<polyline fill="none" stroke="black" points="1183,-403.5 1376,-403.5 "/>
<text text-anchor="start" x="1191" y="-386.7" font-family="Times,serif" font-size="16.00">}</text>
</g>
<!-- list_device1&#45;&gt;list_device2 -->
<g id="edge10" class="edge">
<title>list_device1:f1&#45;&gt;list_device2:f0</title>
<path fill="none" stroke="black" d="M1147,-464.5C1159.07,-464.5 1164.23,-466.75 1172.85,-467.87"/>
<polygon fill="black" stroke="black" points="1172.8,-471.37 1183,-468.5 1173.23,-464.39 1172.8,-471.37"/>
</g>
<!-- list_driver1&#45;&gt;list_driver -->
<g id="edge19" class="edge">
<title>list_driver1:f2&#45;&gt;list_driver:e</title>
<path fill="none" stroke="black" d="M954,-221.5C935.31,-221.5 938.05,-245.72 927.07,-254.43"/>
<polygon fill="black" stroke="black" points="925.95,-251.11 917.5,-257.5 928.09,-257.77 925.95,-251.11"/>
</g>
<!-- list_driver2 -->
<g id="node14" class="node">
<title>list_driver2</title>
<polygon fill="none" stroke="black" points="1184,-167.5 1184,-271.5 1375,-271.5 1375,-167.5 1184,-167.5"/>
<text text-anchor="start" x="1192" y="-254.7" font-family="Times,serif" font-size="16.00">driver d2: struct list_head {</text>
<polyline fill="none" stroke="black" points="1184,-245.5 1375,-245.5 "/>
<text text-anchor="end" x="1367" y="-228.7" font-family="Times,serif" font-size="16.00">struct list_head *next;</text>
<polyline fill="none" stroke="black" points="1184,-219.5 1375,-219.5 "/>
<text text-anchor="end" x="1367" y="-202.7" font-family="Times,serif" font-size="16.00">struct list_head *prev;</text>
<polyline fill="none" stroke="black" points="1184,-193.5 1375,-193.5 "/>
<text text-anchor="start" x="1192" y="-176.7" font-family="Times,serif" font-size="16.00">}</text>
</g>
<!-- list_driver1&#45;&gt;list_driver2 -->
<g id="edge20" class="edge">
<title>list_driver1:f1&#45;&gt;list_driver2:f0</title>
<path fill="none" stroke="black" d="M1147,-247.5C1159.68,-247.5 1164.21,-253.81 1172.94,-256.87"/>
<polygon fill="black" stroke="black" points="1172.57,-260.36 1183,-258.5 1173.69,-253.45 1172.57,-260.36"/>
</g>
<!-- list_device2&#45;&gt;list_device1 -->
<g id="edge11" class="edge">
<title>list_device2:f2&#45;&gt;list_device1:e</title>
<path fill="none" stroke="black" d="M1183,-416.5C1170.93,-416.5 1165.77,-414.25 1157.15,-413.12"/>
<polygon fill="black" stroke="black" points="1157.2,-409.62 1147,-412.5 1156.77,-416.6 1157.2,-409.62"/>
</g>
<!-- list_devicex -->
<g id="node15" class="node">
<title>list_devicex</title>
<polygon fill="none" stroke="black" points="1412,-361.5 1412,-465.5 1621,-465.5 1621,-361.5 1412,-361.5"/>
<text text-anchor="start" x="1420" y="-448.7" font-family="Times,serif" font-size="16.00">device cx:...: struct list_head {</text>
<polyline fill="none" stroke="black" points="1412,-439.5 1621,-439.5 "/>
<text text-anchor="end" x="1613" y="-422.7" font-family="Times,serif" font-size="16.00">struct list_head *next;</text>
<polyline fill="none" stroke="black" points="1412,-413.5 1621,-413.5 "/>
<text text-anchor="end" x="1613" y="-396.7" font-family="Times,serif" font-size="16.00">struct list_head *prev;</text>
<polyline fill="none" stroke="black" points="1412,-387.5 1621,-387.5 "/>
<text text-anchor="start" x="1420" y="-370.7" font-family="Times,serif" font-size="16.00">}</text>
</g>
<!-- list_device2&#45;&gt;list_devicex -->
<g id="edge12" class="edge">
<title>list_device2:f1&#45;&gt;list_devicex:f0</title>
<path fill="none" stroke="black" d="M1376,-442.5C1388.58,-442.5 1393.23,-448.24 1401.97,-451.02"/>
<polygon fill="black" stroke="black" points="1401.6,-454.5 1412,-452.5 1402.62,-447.58 1401.6,-454.5"/>
</g>
<!-- list_driver2&#45;&gt;list_driver1 -->
<g id="edge21" class="edge">
<title>list_driver2:f2&#45;&gt;list_driver1:e</title>
<path fill="none" stroke="black" d="M1183,-206.5C1170.32,-206.5 1165.79,-200.18 1157.06,-197.12"/>
<polygon fill="black" stroke="black" points="1157.43,-193.63 1147,-195.5 1156.31,-200.54 1157.43,-193.63"/>
</g>
<!-- list_driverx -->
<g id="node16" class="node">
<title>list_driverx</title>
<polygon fill="none" stroke="black" points="1413,-142.5 1413,-246.5 1620,-246.5 1620,-142.5 1413,-142.5"/>
<text text-anchor="start" x="1421" y="-229.7" font-family="Times,serif" font-size="16.00">driver dx:...: struct list_head {</text>
<polyline fill="none" stroke="black" points="1413,-220.5 1620,-220.5 "/>
<text text-anchor="end" x="1612" y="-203.7" font-family="Times,serif" font-size="16.00">struct list_head *next;</text>
<polyline fill="none" stroke="black" points="1413,-194.5 1620,-194.5 "/>
<text text-anchor="end" x="1612" y="-177.7" font-family="Times,serif" font-size="16.00">struct list_head *prev;</text>
<polyline fill="none" stroke="black" points="1413,-168.5 1620,-168.5 "/>
<text text-anchor="start" x="1421" y="-151.7" font-family="Times,serif" font-size="16.00">}</text>
</g>
<!-- list_driver2&#45;&gt;list_driverx -->
<g id="edge22" class="edge">
<title>list_driver2:f1&#45;&gt;list_driverx:f0</title>
<path fill="none" stroke="black" d="M1376,-232.5C1388,-232.5 1393.25,-233.06 1401.87,-233.34"/>
<polygon fill="black" stroke="black" points="1401.95,-236.84 1412,-233.5 1402.06,-229.84 1401.95,-236.84"/>
</g>
<!-- list_devicex&#45;&gt;list_device2 -->
<g id="edge13" class="edge">
<title>list_devicex:f2&#45;&gt;list_device2:e</title>
<path fill="none" stroke="black" d="M1412,-400.5C1399.42,-400.5 1394.77,-394.75 1386.03,-391.97"/>
<polygon fill="black" stroke="black" points="1386.4,-388.49 1376,-390.5 1385.38,-395.41 1386.4,-388.49"/>
</g>
<!-- list_devicex&#45;&gt;list_devicen -->
<g id="edge14" class="edge">
<title>list_devicex:f1&#45;&gt;list_devicen:f0</title>
<path fill="none" stroke="black" d="M1621,-426.5C1633,-426.5 1638.25,-427.06 1646.87,-427.34"/>
<polygon fill="black" stroke="black" points="1646.95,-430.84 1657,-427.5 1647.06,-423.84 1646.95,-430.84"/>
</g>
<!-- list_driverx&#45;&gt;list_driver2 -->
<g id="edge23" class="edge">
<title>list_driverx:f2&#45;&gt;list_driver2:e</title>
<path fill="none" stroke="black" d="M1412,-181.5C1400,-181.5 1394.75,-180.93 1386.13,-180.65"/>
<polygon fill="black" stroke="black" points="1386.05,-177.15 1376,-180.5 1385.94,-184.15 1386.05,-177.15"/>
</g>
<!-- list_driverx&#45;&gt;list_drivern -->
<g id="edge24" class="edge">
<title>list_driverx:f1&#45;&gt;list_drivern:f0</title>
<path fill="none" stroke="black" d="M1621,-207.5C1633.02,-207.5 1638.25,-208.62 1646.87,-209.18"/>
<polygon fill="black" stroke="black" points="1646.9,-212.68 1657,-209.5 1647.11,-205.69 1646.9,-212.68"/>
</g>
<!-- list_devicen&#45;&gt;list_device -->
<g id="edge16" class="edge">
<title>list_devicen:e&#45;&gt;list_device:n</title>
<path fill="none" stroke="black" d="M1851.5,-401.5C1869.06,-401.5 1862.13,-427.83 1850.5,-441 1782.22,-518.31 1723.47,-463.7 1621,-475.5 1411.04,-499.66 1357.85,-499.06 1147,-513.5 983.21,-524.71 862.66,-535.4 828.99,-531.35"/>
<polygon fill="black" stroke="black" points="830.08,-528.02 819.5,-527.5 827.45,-534.5 830.08,-528.02"/>
</g>
<!-- list_devicen&#45;&gt;list_devicex -->
<g id="edge15" class="edge">
<title>list_devicen:f2&#45;&gt;list_devicex:e</title>
<path fill="none" stroke="black" d="M1657,-375.5C1645,-375.5 1639.75,-374.93 1631.13,-374.65"/>
<polygon fill="black" stroke="black" points="1631.05,-371.15 1621,-374.5 1630.94,-378.15 1631.05,-371.15"/>
</g>
<!-- list_drivern&#45;&gt;list_driver -->
<g id="edge26" class="edge">
<title>list_drivern:e&#45;&gt;list_driver:n</title>
<path fill="none" stroke="black" d="M1850.5,-183.5C1868.06,-183.5 1861.15,-209.85 1849.5,-223 1781.41,-299.8 1722.86,-243.84 1621,-256.5 1411.2,-282.57 1358.3,-289.58 1147,-296.5 1096.94,-298.13 856.9,-318.56 823.39,-281.04"/>
<polygon fill="black" stroke="black" points="826.51,-279.44 819.5,-271.5 820.03,-282.08 826.51,-279.44"/>
</g>
<!-- list_drivern&#45;&gt;list_driverx -->
<g id="edge25" class="edge">
<title>list_drivern:f2&#45;&gt;list_driverx:e</title>
<path fill="none" stroke="black" d="M1657,-157.5C1644.98,-157.5 1639.75,-156.37 1631.13,-155.81"/>
<polygon fill="black" stroke="black" points="1631.1,-152.31 1621,-155.5 1630.89,-159.3 1631.1,-152.31"/>
</g>
</g>
</svg>
