<?xml version="1.0" encoding="UTF-8" standalone="no"?>
<!DOCTYPE svg PUBLIC "-//W3C//DTD SVG 1.1//EN"
 "http://www.w3.org/Graphics/SVG/1.1/DTD/svg11.dtd">
<!-- Generated by graphviz version 2.43.0 (0)
 -->
<!-- Title: g Pages: 1 -->
<svg width="2468pt" height="483pt"
 viewBox="0.00 0.00 2468.00 483.00" xmlns="http://www.w3.org/2000/svg" xmlns:xlink="http://www.w3.org/1999/xlink">
<g id="graph0" class="graph" transform="scale(1 1) rotate(0) translate(4 479)">
<title>g</title>
<polygon fill="white" stroke="transparent" points="-4,4 -4,-479 2464,-479 2464,4 -4,4"/>
<text text-anchor="middle" x="1230" y="-7.8" font-family="Times,serif" font-size="14.00">bus &lt;&#45;&gt; struct device &lt;&#45;&gt; strut device_driver链接</text>
<g id="clust1" class="cluster">
<title>cluster_0</title>
<polygon fill="none" stroke="black" points="0,-161 0,-358 263,-358 263,-161 0,-161"/>
<text text-anchor="middle" x="131.5" y="-342.8" font-family="Times,serif" font-size="14.00">bus0:struct bus_type &#45;&gt; struct subsys_private</text>
</g>
<g id="clust2" class="cluster">
<title>cluster_3</title>
<polygon fill="none" stroke="black" points="603,-226 603,-467 894,-467 894,-226 603,-226"/>
<text text-anchor="middle" x="748.5" y="-451.8" font-family="Times,serif" font-size="14.00">device_00:struct device &#45;&gt; struct devie_private</text>
</g>
<g id="clust3" class="cluster">
<title>cluster_4</title>
<polygon fill="none" stroke="black" points="917,-226 917,-467 1208,-467 1208,-226 917,-226"/>
<text text-anchor="middle" x="1062.5" y="-451.8" font-family="Times,serif" font-size="14.00">device_01:struct device &#45;&gt; struct devie_private</text>
</g>
<g id="clust4" class="cluster">
<title>cluster_5</title>
<polygon fill="none" stroke="black" points="1228,-226 1228,-467 1519,-467 1519,-226 1228,-226"/>
<text text-anchor="middle" x="1373.5" y="-451.8" font-family="Times,serif" font-size="14.00">device_02:struct device &#45;&gt; struct devie_private</text>
</g>
<g id="clust5" class="cluster">
<title>cluster_6</title>
<polygon fill="none" stroke="black" points="283,-113 283,-300 580,-300 580,-113 283,-113"/>
<text text-anchor="middle" x="431.5" y="-284.8" font-family="Times,serif" font-size="14.00">driver_0:struct device_driver&#45;&gt;struct driver_private</text>
</g>
<g id="clust6" class="cluster">
<title>cluster_7</title>
<polygon fill="none" stroke="black" points="600,-31 600,-218 897,-218 897,-31 600,-31"/>
<text text-anchor="middle" x="748.5" y="-202.8" font-family="Times,serif" font-size="14.00">driver_1:struct device_driver&#45;&gt;struct driver_private</text>
</g>
<g id="clust7" class="cluster">
<title>cluster_9</title>
<polygon fill="none" stroke="black" points="1539,-136 1539,-377 1830,-377 1830,-136 1539,-136"/>
<text text-anchor="middle" x="1684.5" y="-361.8" font-family="Times,serif" font-size="14.00">device_10:struct device &#45;&gt; struct devie_private</text>
</g>
<g id="clust8" class="cluster">
<title>cluster_10</title>
<polygon fill="none" stroke="black" points="1850,-136 1850,-377 2141,-377 2141,-136 1850,-136"/>
<text text-anchor="middle" x="1995.5" y="-361.8" font-family="Times,serif" font-size="14.00">device_11:struct device &#45;&gt; struct devie_private</text>
</g>
<g id="clust9" class="cluster">
<title>cluster_11</title>
<polygon fill="none" stroke="black" points="2161,-136 2161,-377 2452,-377 2452,-136 2161,-136"/>
<text text-anchor="middle" x="2306.5" y="-361.8" font-family="Times,serif" font-size="14.00">device_12:struct device &#45;&gt; struct devie_private</text>
</g>
<!-- subsys_private0 -->
<g id="node1" class="node">
<title>subsys_private0</title>
<polygon fill="none" stroke="black" points="33,-170 33,-326 230,-326 230,-170 33,-170"/>
<text text-anchor="start" x="41" y="-309.2" font-family="Times,serif" font-size="16.00">bus0:struct subsys_private {</text>
<polyline fill="none" stroke="black" points="33,-300 230,-300 "/>
<text text-anchor="middle" x="131.5" y="-283.2" font-family="Times,serif" font-size="16.00">...</text>
<polyline fill="none" stroke="black" points="33,-274 230,-274 "/>
<text text-anchor="end" x="222" y="-257.2" font-family="Times,serif" font-size="16.00">struct klist *klist_devices;</text>
<polyline fill="none" stroke="black" points="33,-248 230,-248 "/>
<text text-anchor="end" x="222" y="-231.2" font-family="Times,serif" font-size="16.00">struct klist *klist_drivers;</text>
<polyline fill="none" stroke="black" points="33,-222 230,-222 "/>
<text text-anchor="middle" x="131.5" y="-205.2" font-family="Times,serif" font-size="16.00">...</text>
<polyline fill="none" stroke="black" points="33,-196 230,-196 "/>
<text text-anchor="start" x="41" y="-179.2" font-family="Times,serif" font-size="16.00">}</text>
</g>
<!-- device_private00 -->
<g id="node2" class="node">
<title>device_private00</title>
<polygon fill="none" stroke="black" points="611,-235 611,-435 886,-435 886,-235 611,-235"/>
<text text-anchor="start" x="619" y="-418.2" font-family="Times,serif" font-size="16.00">device_private00:struct device_private {</text>
<polyline fill="none" stroke="black" points="611,-409 886,-409 "/>
<text text-anchor="end" x="878" y="-392.2" font-family="Times,serif" font-size="16.00">struct klist klist_children;</text>
<polyline fill="none" stroke="black" points="611,-383 886,-383 "/>
<text text-anchor="end" x="878" y="-366.2" font-family="Times,serif" font-size="16.00">struct klist_node knode_parent;</text>
<polyline fill="none" stroke="black" points="611,-357 886,-357 "/>
<text text-anchor="end" x="878" y="-340.2" font-family="Times,serif" font-size="16.00">struct klist_node knode_driver;</text>
<polyline fill="none" stroke="black" points="611,-331 886,-331 "/>
<text text-anchor="end" x="878" y="-314.2" font-family="Times,serif" font-size="16.00">struct klist_node knode_bus;</text>
<polyline fill="none" stroke="black" points="611,-305 886,-305 "/>
<text text-anchor="end" x="878" y="-288.2" font-family="Times,serif" font-size="16.00">struct klist_node knode_class;</text>
<polyline fill="none" stroke="black" points="611,-279 886,-279 "/>
<text text-anchor="middle" x="748.5" y="-262.2" font-family="Times,serif" font-size="16.00">...</text>
<text text-anchor="start" x="619" y="-244.2" font-family="Times,serif" font-size="16.00">}</text>
</g>
<!-- subsys_private0&#45;&gt;device_private00 -->
<g id="edge1" class="edge">
<title>subsys_private0:f2&#45;&gt;device_private00:f4</title>
<path fill="none" stroke="black" d="M241.64,-262.58C260.29,-269.18 258.88,-294.67 283,-304 415.28,-355.2 462.06,-319.75 599.45,-318.06"/>
<polygon fill="black" stroke="black" points="241.92,-259.08 231.5,-261 240.84,-266 241.92,-259.08"/>
<polygon fill="black" stroke="black" points="599.52,-321.56 609.5,-318 599.48,-314.56 599.52,-321.56"/>
</g>
<!-- driver_private0 -->
<g id="node5" class="node">
<title>driver_private0</title>
<polygon fill="none" stroke="black" points="301,-121 301,-269 562,-269 562,-121 301,-121"/>
<text text-anchor="start" x="309" y="-252.2" font-family="Times,serif" font-size="16.00">driver_private0:struct driver_private {</text>
<polyline fill="none" stroke="black" points="301,-243 562,-243 "/>
<text text-anchor="middle" x="431.5" y="-226.2" font-family="Times,serif" font-size="16.00">...</text>
<polyline fill="none" stroke="black" points="301,-217 562,-217 "/>
<text text-anchor="end" x="554" y="-200.2" font-family="Times,serif" font-size="16.00">struct klist klist_devices;</text>
<polyline fill="none" stroke="black" points="301,-191 562,-191 "/>
<text text-anchor="end" x="554" y="-174.2" font-family="Times,serif" font-size="16.00">struct klist_node knode_bus;</text>
<polyline fill="none" stroke="black" points="301,-165 562,-165 "/>
<text text-anchor="middle" x="431.5" y="-148.2" font-family="Times,serif" font-size="16.00">...</text>
<text text-anchor="start" x="309" y="-130.2" font-family="Times,serif" font-size="16.00">}</text>
</g>
<!-- subsys_private0&#45;&gt;driver_private0 -->
<g id="edge4" class="edge">
<title>subsys_private0:f3&#45;&gt;driver_private0:f3</title>
<path fill="none" stroke="black" d="M241.71,-233.48C266.38,-225.37 264.68,-187.37 289.52,-179.45"/>
<polygon fill="black" stroke="black" points="240.87,-230.06 231.5,-235 241.91,-236.98 240.87,-230.06"/>
<polygon fill="black" stroke="black" points="290.11,-182.9 299.5,-178 289.1,-175.97 290.11,-182.9"/>
</g>
<!-- device_private01 -->
<g id="node3" class="node">
<title>device_private01</title>
<polygon fill="none" stroke="black" points="925,-235 925,-435 1200,-435 1200,-235 925,-235"/>
<text text-anchor="start" x="933" y="-418.2" font-family="Times,serif" font-size="16.00">device_private01:struct device_private {</text>
<polyline fill="none" stroke="black" points="925,-409 1200,-409 "/>
<text text-anchor="end" x="1192" y="-392.2" font-family="Times,serif" font-size="16.00">struct klist klist_children;</text>
<polyline fill="none" stroke="black" points="925,-383 1200,-383 "/>
<text text-anchor="end" x="1192" y="-366.2" font-family="Times,serif" font-size="16.00">struct klist_node knode_parent;</text>
<polyline fill="none" stroke="black" points="925,-357 1200,-357 "/>
<text text-anchor="end" x="1192" y="-340.2" font-family="Times,serif" font-size="16.00">struct klist_node knode_driver;</text>
<polyline fill="none" stroke="black" points="925,-331 1200,-331 "/>
<text text-anchor="end" x="1192" y="-314.2" font-family="Times,serif" font-size="16.00">struct klist_node knode_bus;</text>
<polyline fill="none" stroke="black" points="925,-305 1200,-305 "/>
<text text-anchor="end" x="1192" y="-288.2" font-family="Times,serif" font-size="16.00">struct klist_node knode_class;</text>
<polyline fill="none" stroke="black" points="925,-279 1200,-279 "/>
<text text-anchor="middle" x="1062.5" y="-262.2" font-family="Times,serif" font-size="16.00">...</text>
<text text-anchor="start" x="933" y="-244.2" font-family="Times,serif" font-size="16.00">}</text>
</g>
<!-- device_private00&#45;&gt;device_private01 -->
<g id="edge2" class="edge">
<title>device_private00:f4&#45;&gt;device_private01:f4</title>
<path fill="none" stroke="black" d="M897.62,-318C903.29,-318 907.49,-318 913.11,-318"/>
<polygon fill="black" stroke="black" points="897.5,-314.5 887.5,-318 897.5,-321.5 897.5,-314.5"/>
<polygon fill="black" stroke="black" points="913.5,-321.5 923.5,-318 913.5,-314.5 913.5,-321.5"/>
</g>
<!-- device_private00&#45;&gt;device_private01 -->
<g id="edge7" class="edge">
<title>device_private00:f3&#45;&gt;device_private01:f3</title>
<path fill="none" stroke="black" d="M897.62,-344C903.29,-344 907.49,-344 913.11,-344"/>
<polygon fill="black" stroke="black" points="897.5,-340.5 887.5,-344 897.5,-347.5 897.5,-340.5"/>
<polygon fill="black" stroke="black" points="913.5,-347.5 923.5,-344 913.5,-340.5 913.5,-347.5"/>
</g>
<!-- device_private02 -->
<g id="node4" class="node">
<title>device_private02</title>
<polygon fill="none" stroke="black" points="1236,-235 1236,-435 1511,-435 1511,-235 1236,-235"/>
<text text-anchor="start" x="1244" y="-418.2" font-family="Times,serif" font-size="16.00">device_private02:struct device_private {</text>
<polyline fill="none" stroke="black" points="1236,-409 1511,-409 "/>
<text text-anchor="end" x="1503" y="-392.2" font-family="Times,serif" font-size="16.00">struct klist klist_children;</text>
<polyline fill="none" stroke="black" points="1236,-383 1511,-383 "/>
<text text-anchor="end" x="1503" y="-366.2" font-family="Times,serif" font-size="16.00">struct klist_node knode_parent;</text>
<polyline fill="none" stroke="black" points="1236,-357 1511,-357 "/>
<text text-anchor="end" x="1503" y="-340.2" font-family="Times,serif" font-size="16.00">struct klist_node knode_driver;</text>
<polyline fill="none" stroke="black" points="1236,-331 1511,-331 "/>
<text text-anchor="end" x="1503" y="-314.2" font-family="Times,serif" font-size="16.00">struct klist_node knode_bus;</text>
<polyline fill="none" stroke="black" points="1236,-305 1511,-305 "/>
<text text-anchor="end" x="1503" y="-288.2" font-family="Times,serif" font-size="16.00">struct klist_node knode_class;</text>
<polyline fill="none" stroke="black" points="1236,-279 1511,-279 "/>
<text text-anchor="middle" x="1373.5" y="-262.2" font-family="Times,serif" font-size="16.00">...</text>
<text text-anchor="start" x="1244" y="-244.2" font-family="Times,serif" font-size="16.00">}</text>
</g>
<!-- device_private01&#45;&gt;device_private02 -->
<g id="edge3" class="edge">
<title>device_private01:f4&#45;&gt;device_private02:f4</title>
<path fill="none" stroke="black" d="M1211.75,-318C1216.23,-318 1219.78,-318 1224.26,-318"/>
<polygon fill="black" stroke="black" points="1211.5,-314.5 1201.5,-318 1211.5,-321.5 1211.5,-314.5"/>
<polygon fill="black" stroke="black" points="1224.5,-321.5 1234.5,-318 1224.5,-314.5 1224.5,-321.5"/>
</g>
<!-- device_private01&#45;&gt;device_private02 -->
<g id="edge8" class="edge">
<title>device_private01:f3&#45;&gt;device_private02:f3</title>
<path fill="none" stroke="black" d="M1211.75,-344C1216.23,-344 1219.78,-344 1224.26,-344"/>
<polygon fill="black" stroke="black" points="1211.5,-340.5 1201.5,-344 1211.5,-347.5 1211.5,-340.5"/>
<polygon fill="black" stroke="black" points="1224.5,-347.5 1234.5,-344 1224.5,-340.5 1224.5,-347.5"/>
</g>
<!-- device_private10 -->
<g id="node7" class="node">
<title>device_private10</title>
<polygon fill="none" stroke="black" points="1547,-145 1547,-345 1822,-345 1822,-145 1547,-145"/>
<text text-anchor="start" x="1555" y="-328.2" font-family="Times,serif" font-size="16.00">device_private10:struct device_private {</text>
<polyline fill="none" stroke="black" points="1547,-319 1822,-319 "/>
<text text-anchor="end" x="1814" y="-302.2" font-family="Times,serif" font-size="16.00">struct klist klist_children;</text>
<polyline fill="none" stroke="black" points="1547,-293 1822,-293 "/>
<text text-anchor="end" x="1814" y="-276.2" font-family="Times,serif" font-size="16.00">struct klist_node knode_parent;</text>
<polyline fill="none" stroke="black" points="1547,-267 1822,-267 "/>
<text text-anchor="end" x="1814" y="-250.2" font-family="Times,serif" font-size="16.00">struct klist_node knode_driver;</text>
<polyline fill="none" stroke="black" points="1547,-241 1822,-241 "/>
<text text-anchor="end" x="1814" y="-224.2" font-family="Times,serif" font-size="16.00">struct klist_node knode_bus;</text>
<polyline fill="none" stroke="black" points="1547,-215 1822,-215 "/>
<text text-anchor="end" x="1814" y="-198.2" font-family="Times,serif" font-size="16.00">struct klist_node knode_class;</text>
<polyline fill="none" stroke="black" points="1547,-189 1822,-189 "/>
<text text-anchor="middle" x="1684.5" y="-172.2" font-family="Times,serif" font-size="16.00">...</text>
<text text-anchor="start" x="1555" y="-154.2" font-family="Times,serif" font-size="16.00">}</text>
</g>
<!-- device_private02&#45;&gt;device_private10 -->
<g id="edge9" class="edge">
<title>device_private02:f4&#45;&gt;device_private10:f4</title>
<path fill="none" stroke="black" d="M1522.45,-315.59C1543.35,-302.79 1514.54,-242.8 1535.75,-230.29"/>
<polygon fill="black" stroke="black" points="1521.4,-312.25 1512.5,-318 1523.04,-319.05 1521.4,-312.25"/>
<polygon fill="black" stroke="black" points="1536.57,-233.69 1545.5,-228 1534.96,-226.88 1536.57,-233.69"/>
</g>
<!-- driver_private0&#45;&gt;device_private00 -->
<g id="edge6" class="edge">
<title>driver_private0:f2&#45;&gt;device_private00:f3</title>
<path fill="none" stroke="black" d="M573.52,-205.39C616.68,-219.02 556.35,-328.92 599.44,-342.6"/>
<polygon fill="black" stroke="black" points="573.89,-201.9 563.5,-204 572.93,-208.84 573.89,-201.9"/>
<polygon fill="black" stroke="black" points="599.11,-346.09 609.5,-344 600.08,-339.16 599.11,-346.09"/>
</g>
<!-- driver_private1 -->
<g id="node6" class="node">
<title>driver_private1</title>
<polygon fill="none" stroke="black" points="618,-39 618,-187 879,-187 879,-39 618,-39"/>
<text text-anchor="start" x="626" y="-170.2" font-family="Times,serif" font-size="16.00">driver_private1:struct driver_private {</text>
<polyline fill="none" stroke="black" points="618,-161 879,-161 "/>
<text text-anchor="middle" x="748.5" y="-144.2" font-family="Times,serif" font-size="16.00">...</text>
<polyline fill="none" stroke="black" points="618,-135 879,-135 "/>
<text text-anchor="end" x="871" y="-118.2" font-family="Times,serif" font-size="16.00">struct klist klist_devices;</text>
<polyline fill="none" stroke="black" points="618,-109 879,-109 "/>
<text text-anchor="end" x="871" y="-92.2" font-family="Times,serif" font-size="16.00">struct klist_node knode_bus;</text>
<polyline fill="none" stroke="black" points="618,-83 879,-83 "/>
<text text-anchor="middle" x="748.5" y="-66.2" font-family="Times,serif" font-size="16.00">...</text>
<text text-anchor="start" x="626" y="-48.2" font-family="Times,serif" font-size="16.00">}</text>
</g>
<!-- driver_private0&#45;&gt;driver_private1 -->
<g id="edge5" class="edge">
<title>driver_private0:f3&#45;&gt;driver_private1:f3</title>
<path fill="none" stroke="black" d="M573.44,-176.13C598.71,-165.12 581.28,-108.74 606.65,-97.83"/>
<polygon fill="black" stroke="black" points="572.68,-172.71 563.5,-178 573.97,-179.59 572.68,-172.71"/>
<polygon fill="black" stroke="black" points="607.31,-101.27 616.5,-96 606.03,-94.38 607.31,-101.27"/>
</g>
<!-- driver_private1&#45;&gt;device_private10 -->
<g id="edge12" class="edge">
<title>driver_private1:f2&#45;&gt;device_private10:f3</title>
<path fill="none" stroke="black" d="M890.52,-121.98C1170.14,-121.04 1272.26,-81.63 1519,-222 1531.04,-228.85 1529.54,-243.42 1535.83,-250.28"/>
<polygon fill="black" stroke="black" points="890.49,-118.48 880.5,-122 890.51,-125.48 890.49,-118.48"/>
<polygon fill="black" stroke="black" points="1534.91,-253.68 1545.5,-254 1537.42,-247.15 1534.91,-253.68"/>
</g>
<!-- device_private11 -->
<g id="node8" class="node">
<title>device_private11</title>
<polygon fill="none" stroke="black" points="1858,-145 1858,-345 2133,-345 2133,-145 1858,-145"/>
<text text-anchor="start" x="1866" y="-328.2" font-family="Times,serif" font-size="16.00">device_private11:struct device_private {</text>
<polyline fill="none" stroke="black" points="1858,-319 2133,-319 "/>
<text text-anchor="end" x="2125" y="-302.2" font-family="Times,serif" font-size="16.00">struct klist klist_children;</text>
<polyline fill="none" stroke="black" points="1858,-293 2133,-293 "/>
<text text-anchor="end" x="2125" y="-276.2" font-family="Times,serif" font-size="16.00">struct klist_node knode_parent;</text>
<polyline fill="none" stroke="black" points="1858,-267 2133,-267 "/>
<text text-anchor="end" x="2125" y="-250.2" font-family="Times,serif" font-size="16.00">struct klist_node knode_driver;</text>
<polyline fill="none" stroke="black" points="1858,-241 2133,-241 "/>
<text text-anchor="end" x="2125" y="-224.2" font-family="Times,serif" font-size="16.00">struct klist_node knode_bus;</text>
<polyline fill="none" stroke="black" points="1858,-215 2133,-215 "/>
<text text-anchor="end" x="2125" y="-198.2" font-family="Times,serif" font-size="16.00">struct klist_node knode_class;</text>
<polyline fill="none" stroke="black" points="1858,-189 2133,-189 "/>
<text text-anchor="middle" x="1995.5" y="-172.2" font-family="Times,serif" font-size="16.00">...</text>
<text text-anchor="start" x="1866" y="-154.2" font-family="Times,serif" font-size="16.00">}</text>
</g>
<!-- device_private10&#45;&gt;device_private11 -->
<g id="edge10" class="edge">
<title>device_private10:f4&#45;&gt;device_private11:f4</title>
<path fill="none" stroke="black" d="M1833.75,-228C1838.23,-228 1841.78,-228 1846.26,-228"/>
<polygon fill="black" stroke="black" points="1833.5,-224.5 1823.5,-228 1833.5,-231.5 1833.5,-224.5"/>
<polygon fill="black" stroke="black" points="1846.5,-231.5 1856.5,-228 1846.5,-224.5 1846.5,-231.5"/>
</g>
<!-- device_private10&#45;&gt;device_private11 -->
<g id="edge13" class="edge">
<title>device_private10:f3&#45;&gt;device_private11:f3</title>
<path fill="none" stroke="black" d="M1833.75,-254C1838.23,-254 1841.78,-254 1846.26,-254"/>
<polygon fill="black" stroke="black" points="1833.5,-250.5 1823.5,-254 1833.5,-257.5 1833.5,-250.5"/>
<polygon fill="black" stroke="black" points="1846.5,-257.5 1856.5,-254 1846.5,-250.5 1846.5,-257.5"/>
</g>
<!-- device_private12 -->
<g id="node9" class="node">
<title>device_private12</title>
<polygon fill="none" stroke="black" points="2169,-145 2169,-345 2444,-345 2444,-145 2169,-145"/>
<text text-anchor="start" x="2177" y="-328.2" font-family="Times,serif" font-size="16.00">device_private12:struct device_private {</text>
<polyline fill="none" stroke="black" points="2169,-319 2444,-319 "/>
<text text-anchor="end" x="2436" y="-302.2" font-family="Times,serif" font-size="16.00">struct klist klist_children;</text>
<polyline fill="none" stroke="black" points="2169,-293 2444,-293 "/>
<text text-anchor="end" x="2436" y="-276.2" font-family="Times,serif" font-size="16.00">struct klist_node knode_parent;</text>
<polyline fill="none" stroke="black" points="2169,-267 2444,-267 "/>
<text text-anchor="end" x="2436" y="-250.2" font-family="Times,serif" font-size="16.00">struct klist_node knode_driver;</text>
<polyline fill="none" stroke="black" points="2169,-241 2444,-241 "/>
<text text-anchor="end" x="2436" y="-224.2" font-family="Times,serif" font-size="16.00">struct klist_node knode_bus;</text>
<polyline fill="none" stroke="black" points="2169,-215 2444,-215 "/>
<text text-anchor="end" x="2436" y="-198.2" font-family="Times,serif" font-size="16.00">struct klist_node knode_class;</text>
<polyline fill="none" stroke="black" points="2169,-189 2444,-189 "/>
<text text-anchor="middle" x="2306.5" y="-172.2" font-family="Times,serif" font-size="16.00">...</text>
<text text-anchor="start" x="2177" y="-154.2" font-family="Times,serif" font-size="16.00">}</text>
</g>
<!-- device_private11&#45;&gt;device_private12 -->
<g id="edge11" class="edge">
<title>device_private11:f4&#45;&gt;device_private12:f4</title>
<path fill="none" stroke="black" d="M2144.75,-228C2149.23,-228 2152.78,-228 2157.26,-228"/>
<polygon fill="black" stroke="black" points="2144.5,-224.5 2134.5,-228 2144.5,-231.5 2144.5,-224.5"/>
<polygon fill="black" stroke="black" points="2157.5,-231.5 2167.5,-228 2157.5,-224.5 2157.5,-231.5"/>
</g>
<!-- device_private11&#45;&gt;device_private12 -->
<g id="edge14" class="edge">
<title>device_private11:f3&#45;&gt;device_private12:f3</title>
<path fill="none" stroke="black" d="M2144.75,-254C2149.23,-254 2152.78,-254 2157.26,-254"/>
<polygon fill="black" stroke="black" points="2144.5,-250.5 2134.5,-254 2144.5,-257.5 2144.5,-250.5"/>
<polygon fill="black" stroke="black" points="2157.5,-257.5 2167.5,-254 2157.5,-250.5 2157.5,-257.5"/>
</g>
</g>
</svg>
