<?xml version="1.0" encoding="UTF-8" standalone="no"?>
<!DOCTYPE svg PUBLIC "-//W3C//DTD SVG 1.1//EN"
 "http://www.w3.org/Graphics/SVG/1.1/DTD/svg11.dtd">
<!-- Generated by graphviz version 2.43.0 (0)
 -->
<!-- Title: g Pages: 1 -->
<svg width="652pt" height="3962pt"
 viewBox="0.00 0.00 652.00 3962.00" xmlns="http://www.w3.org/2000/svg" xmlns:xlink="http://www.w3.org/1999/xlink">
<g id="graph0" class="graph" transform="scale(1 1) rotate(0) translate(4 3958)">
<title>g</title>
<polygon fill="white" stroke="transparent" points="-4,4 -4,-3958 648,-3958 648,4 -4,4"/>
<text text-anchor="middle" x="322" y="-7.8" font-family="Times,serif" font-size="14.00">linux 内核布局&#45;x64</text>
<!-- sec_text -->
<g id="node1" class="node">
<title>sec_text</title>
<polygon fill="none" stroke="black" points="0,-23.5 0,-3953.5 644,-3953.5 644,-23.5 0,-23.5"/>
<text text-anchor="start" x="8" y="-3936.7" font-family="Times,serif" font-size="16.00">.=__START_KERNEL = </text>
<polyline fill="none" stroke="black" points="0,-3927.5 644,-3927.5 "/>
<text text-anchor="start" x="8" y="-3910.7" font-family="Times,serif" font-size="16.00">.text:</text>
<polyline fill="none" stroke="black" points="0,-3901.5 644,-3901.5 "/>
<text text-anchor="end" x="636" y="-3884.7" font-family="Times,serif" font-size="16.00">_text = _stext = . </text>
<polyline fill="none" stroke="black" points="0,-3875.5 644,-3875.5 "/>
<text text-anchor="end" x="636" y="-3858.7" font-family="Times,serif" font-size="16.00">HEAD_TEXT </text>
<polyline fill="none" stroke="black" points="0,-3849.5 644,-3849.5 "/>
<text text-anchor="end" x="636" y="-3832.7" font-family="Times,serif" font-size="16.00">TEXT_TEXT /*.text.fixup 和 .text.unlikely*/</text>
<polyline fill="none" stroke="black" points="0,-3823.5 644,-3823.5 "/>
<text text-anchor="end" x="636" y="-3806.7" font-family="Times,serif" font-size="16.00">SCHED_TEXT /* sched.text*/</text>
<polyline fill="none" stroke="black" points="0,-3797.5 644,-3797.5 "/>
<text text-anchor="end" x="636" y="-3780.7" font-family="Times,serif" font-size="16.00">CPUIDLE_TEXT</text>
<polyline fill="none" stroke="black" points="0,-3771.5 644,-3771.5 "/>
<text text-anchor="end" x="636" y="-3754.7" font-family="Times,serif" font-size="16.00">LOCK_TEXT </text>
<polyline fill="none" stroke="black" points="0,-3745.5 644,-3745.5 "/>
<text text-anchor="end" x="636" y="-3728.7" font-family="Times,serif" font-size="16.00">KPROBES_TEXT </text>
<polyline fill="none" stroke="black" points="0,-3719.5 644,-3719.5 "/>
<text text-anchor="end" x="636" y="-3702.7" font-family="Times,serif" font-size="16.00">ALIGN_ENTRY_TEXT_BEGIN </text>
<polyline fill="none" stroke="black" points="0,-3693.5 644,-3693.5 "/>
<text text-anchor="end" x="636" y="-3676.7" font-family="Times,serif" font-size="16.00">ENTRY_TEXT </text>
<polyline fill="none" stroke="black" points="0,-3667.5 644,-3667.5 "/>
<text text-anchor="end" x="636" y="-3650.7" font-family="Times,serif" font-size="16.00">ALIGN_ENTRY_TEXT_END</text>
<polyline fill="none" stroke="black" points="0,-3641.5 644,-3641.5 "/>
<text text-anchor="end" x="636" y="-3624.7" font-family="Times,serif" font-size="16.00">SOFTIRQENTRY_TEXT </text>
<polyline fill="none" stroke="black" points="0,-3615.5 644,-3615.5 "/>
<text text-anchor="end" x="636" y="-3598.7" font-family="Times,serif" font-size="16.00">STATIC_CALL_TEXT </text>
<polyline fill="none" stroke="black" points="0,-3589.5 644,-3589.5 "/>
<text text-anchor="end" x="636" y="-3572.7" font-family="Times,serif" font-size="16.00">*(.fixup) </text>
<polyline fill="none" stroke="black" points="0,-3563.5 644,-3563.5 "/>
<text text-anchor="end" x="636" y="-3546.7" font-family="Times,serif" font-size="16.00">*(.gnu.warning) </text>
<polyline fill="none" stroke="black" points="0,-3537.5 644,-3537.5 "/>
<text text-anchor="end" x="636" y="-3520.7" font-family="Times,serif" font-size="16.00">__indirect_thunk_start = .;</text>
<text text-anchor="end" x="636" y="-3502.7" font-family="Times,serif" font-size="16.00"> *(.text.__x86.indirect_thunk)</text>
<text text-anchor="end" x="636" y="-3484.7" font-family="Times,serif" font-size="16.00">__indirect_thunk_end = .</text>
<polyline fill="none" stroke="black" points="0,-3475.5 644,-3475.5 "/>
<text text-anchor="start" x="8" y="-3458.7" font-family="Times,serif" font-size="16.00">}text =0xcccc;</text>
<text text-anchor="start" x="8" y="-3440.7" font-family="Times,serif" font-size="16.00">_etext = .</text>
<polyline fill="none" stroke="black" points="0,-3431.5 644,-3431.5 "/>
<text text-anchor="start" x="8" y="-3414.7" font-family="Times,serif" font-size="16.00">.= ALIGN(PAGE_SIZE):页对齐</text>
<polyline fill="none" stroke="black" points="0,-3405.5 644,-3405.5 "/>
<text text-anchor="start" x="8" y="-3388.7" font-family="Times,serif" font-size="16.00">X86_ALIGN_RODATA_BEGIN </text>
<polyline fill="none" stroke="black" points="0,-3379.5 644,-3379.5 "/>
<text text-anchor="start" x="8" y="-3362.7" font-family="Times,serif" font-size="16.00">RO_DATA(PAGE_SIZE) </text>
<polyline fill="none" stroke="black" points="0,-3353.5 644,-3353.5 "/>
<text text-anchor="start" x="8" y="-3336.7" font-family="Times,serif" font-size="16.00">X86_ALIGN_RODATA_END </text>
<polyline fill="none" stroke="black" points="0,-3327.5 644,-3327.5 "/>
<text text-anchor="start" x="8" y="-3310.7" font-family="Times,serif" font-size="16.00">.data: /*数据*/{</text>
<polyline fill="none" stroke="black" points="0,-3301.5 644,-3301.5 "/>
<text text-anchor="end" x="636" y="-3284.7" font-family="Times,serif" font-size="16.00">_stata = .</text>
<polyline fill="none" stroke="black" points="0,-3275.5 644,-3275.5 "/>
<text text-anchor="end" x="636" y="-3258.7" font-family="Times,serif" font-size="16.00">INIT_TASK_DATA(THREAD_SIZE) /* init_task */ </text>
<polyline fill="none" stroke="black" points="0,-3249.5 644,-3249.5 "/>
<text text-anchor="end" x="636" y="-3232.7" font-family="Times,serif" font-size="16.00">PAGE_ALIGNED_DATA(PAGE_SIZE)</text>
<polyline fill="none" stroke="black" points="0,-3223.5 644,-3223.5 "/>
<text text-anchor="end" x="636" y="-3206.7" font-family="Times,serif" font-size="16.00">CACHELINE_ALIGNED_DATA(L1_CACHE_BYTES)</text>
<polyline fill="none" stroke="black" points="0,-3197.5 644,-3197.5 "/>
<text text-anchor="end" x="636" y="-3180.7" font-family="Times,serif" font-size="16.00">DATA_DATA </text>
<polyline fill="none" stroke="black" points="0,-3171.5 644,-3171.5 "/>
<text text-anchor="end" x="636" y="-3154.7" font-family="Times,serif" font-size="16.00">CONSTRUCTORS </text>
<polyline fill="none" stroke="black" points="0,-3145.5 644,-3145.5 "/>
<text text-anchor="end" x="636" y="-3128.7" font-family="Times,serif" font-size="16.00">READ_MOSTLY_DATA(NETERNODE_CACHE_BYTES) /*rarely change data like cpu map */ </text>
<polyline fill="none" stroke="black" points="0,-3119.5 644,-3119.5 "/>
<text text-anchor="end" x="636" y="-3102.7" font-family="Times,serif" font-size="16.00">_edata=. /* End of data section */ </text>
<text text-anchor="start" x="8" y="-3084.7" font-family="Times,serif" font-size="16.00">}:data</text>
<polyline fill="none" stroke="black" points="0,-3075.5 644,-3075.5 "/>
<text text-anchor="start" x="8" y="-3058.7" font-family="Times,serif" font-size="16.00">BUG_TABLE </text>
<polyline fill="none" stroke="black" points="0,-3049.5 644,-3049.5 "/>
<text text-anchor="start" x="8" y="-3032.7" font-family="Times,serif" font-size="16.00">ORC_UNWIND_TABLE </text>
<polyline fill="none" stroke="black" points="0,-3023.5 644,-3023.5 "/>
<text text-anchor="start" x="8" y="-3006.7" font-family="Times,serif" font-size="16.00">.=ALIGN(PAGE_SIZE) 对齐设置 </text>
<polyline fill="none" stroke="black" points="0,-2997.5 644,-2997.5 "/>
<text text-anchor="start" x="8" y="-2980.7" font-family="Times,serif" font-size="16.00">__vvar_page = .</text>
<polyline fill="none" stroke="black" points="0,-2971.5 644,-2971.5 "/>
<text text-anchor="start" x="8" y="-2954.7" font-family="Times,serif" font-size="16.00">.vvar : {</text>
<polyline fill="none" stroke="black" points="0,-2945.5 644,-2945.5 "/>
<text text-anchor="end" x="636" y="-2928.7" font-family="Times,serif" font-size="16.00">__vvar_beginning_hack = . /* 占一页*/</text>
<polyline fill="none" stroke="black" points="0,-2919.5 644,-2919.5 "/>
<text text-anchor="end" x="636" y="-2902.7" font-family="Times,serif" font-size="16.00">include &lt;asm/vvar.h&gt; </text>
<polyline fill="none" stroke="black" points="0,-2893.5 644,-2893.5 "/>
<text text-anchor="end" x="636" y="-2876.7" font-family="Times,serif" font-size="16.00">. = __vvar_beginning_hack + PAGE_SIZE; </text>
<text text-anchor="start" x="8" y="-2858.7" font-family="Times,serif" font-size="16.00">} :data</text>
<polyline fill="none" stroke="black" points="0,-2849.5 644,-2849.5 "/>
<text text-anchor="start" x="8" y="-2832.7" font-family="Times,serif" font-size="16.00">. = ALIGN(__vvar_page + PAGE_SIZE,PAGE_SIZE) </text>
<polyline fill="none" stroke="black" points="0,-2823.5 644,-2823.5 "/>
<text text-anchor="start" x="8" y="-2806.7" font-family="Times,serif" font-size="16.00">. = ALIGN(PAGE_SIZE) 初始化数据，初始化完成后会释放 </text>
<polyline fill="none" stroke="black" points="0,-2797.5 644,-2797.5 "/>
<text text-anchor="start" x="8" y="-2780.7" font-family="Times,serif" font-size="16.00">.init.begin {</text>
<polyline fill="none" stroke="black" points="0,-2771.5 644,-2771.5 "/>
<text text-anchor="end" x="636" y="-2754.7" font-family="Times,serif" font-size="16.00">__init_begin = . </text>
<text text-anchor="start" x="8" y="-2736.7" font-family="Times,serif" font-size="16.00">}</text>
<polyline fill="none" stroke="black" points="0,-2727.5 644,-2727.5 "/>
<text text-anchor="start" x="8" y="-2710.7" font-family="Times,serif" font-size="16.00">PERCPU_VADDR(INTERNODE_CACHE_BYTES,0, : percpu) </text>
<polyline fill="none" stroke="black" points="0,-2701.5 644,-2701.5 "/>
<text text-anchor="middle" x="322" y="-2684.7" font-family="Times,serif" font-size="16.00">ASSERT(SIZEOF(.data..percpu) &lt; CONFIG_PHYSICAL_START,</text>
<text text-anchor="start" x="8" y="-2666.7" font-family="Times,serif" font-size="16.00"> &quot;per&#45;CPU data too large &#45; increase CONFIG_PHYSICAL_START&quot;)</text>
<polyline fill="none" stroke="black" points="0,-2657.5 644,-2657.5 "/>
<text text-anchor="start" x="8" y="-2640.7" font-family="Times,serif" font-size="16.00">INIT_TEXT_SECTION(PAGE_SIZE) </text>
<polyline fill="none" stroke="black" points="0,-2631.5 644,-2631.5 "/>
<text text-anchor="start" x="8" y="-2614.7" font-family="Times,serif" font-size="16.00">:init </text>
<polyline fill="none" stroke="black" points="0,-2605.5 644,-2605.5 "/>
<text text-anchor="start" x="8" y="-2588.7" font-family="Times,serif" font-size="16.00">.altinstr_aux:{</text>
<polyline fill="none" stroke="black" points="0,-2579.5 644,-2579.5 "/>
<text text-anchor="end" x="636" y="-2562.7" font-family="Times,serif" font-size="16.00">*(altinstr_aux) </text>
<text text-anchor="start" x="8" y="-2544.7" font-family="Times,serif" font-size="16.00">}</text>
<polyline fill="none" stroke="black" points="0,-2535.5 644,-2535.5 "/>
<text text-anchor="start" x="8" y="-2518.7" font-family="Times,serif" font-size="16.00">INIT_DATA_SECTION(16) </text>
<polyline fill="none" stroke="black" points="0,-2509.5 644,-2509.5 "/>
<text text-anchor="start" x="8" y="-2492.7" font-family="Times,serif" font-size="16.00">.x86_cpu_dev.init: {</text>
<polyline fill="none" stroke="black" points="0,-2483.5 644,-2483.5 "/>
<text text-anchor="end" x="636" y="-2466.7" font-family="Times,serif" font-size="16.00">__x86_cpu_dev_start = .</text>
<polyline fill="none" stroke="black" points="0,-2457.5 644,-2457.5 "/>
<text text-anchor="end" x="636" y="-2440.7" font-family="Times,serif" font-size="16.00">*(.x86_cpu_dev.init) </text>
<polyline fill="none" stroke="black" points="0,-2431.5 644,-2431.5 "/>
<text text-anchor="end" x="636" y="-2414.7" font-family="Times,serif" font-size="16.00">__x86_cpu_dev_end = . </text>
<text text-anchor="start" x="8" y="-2396.7" font-family="Times,serif" font-size="16.00">}</text>
<polyline fill="none" stroke="black" points="0,-2387.5 644,-2387.5 "/>
<text text-anchor="start" x="8" y="-2370.7" font-family="Times,serif" font-size="16.00">. = ALIGN(8) </text>
<polyline fill="none" stroke="black" points="0,-2361.5 644,-2361.5 "/>
<text text-anchor="start" x="8" y="-2344.7" font-family="Times,serif" font-size="16.00">.parainstrutions :{</text>
<polyline fill="none" stroke="black" points="0,-2335.5 644,-2335.5 "/>
<text text-anchor="end" x="636" y="-2318.7" font-family="Times,serif" font-size="16.00">__parainstructions = .</text>
<polyline fill="none" stroke="black" points="0,-2309.5 644,-2309.5 "/>
<text text-anchor="end" x="636" y="-2292.7" font-family="Times,serif" font-size="16.00">*(.parainstructions)</text>
<polyline fill="none" stroke="black" points="0,-2283.5 644,-2283.5 "/>
<text text-anchor="end" x="636" y="-2266.7" font-family="Times,serif" font-size="16.00">__parainstructions_end = .</text>
<text text-anchor="start" x="8" y="-2248.7" font-family="Times,serif" font-size="16.00">}</text>
<polyline fill="none" stroke="black" points="0,-2239.5 644,-2239.5 "/>
<text text-anchor="start" x="8" y="-2222.7" font-family="Times,serif" font-size="16.00">.=ALIGN(8) </text>
<polyline fill="none" stroke="black" points="0,-2213.5 644,-2213.5 "/>
<text text-anchor="start" x="8" y="-2196.7" font-family="Times,serif" font-size="16.00">.parainstructions: {</text>
<polyline fill="none" stroke="black" points="0,-2187.5 644,-2187.5 "/>
<text text-anchor="end" x="636" y="-2170.7" font-family="Times,serif" font-size="16.00">__parainstructions = .</text>
<polyline fill="none" stroke="black" points="0,-2161.5 644,-2161.5 "/>
<text text-anchor="end" x="636" y="-2144.7" font-family="Times,serif" font-size="16.00">*(.parainstructions) </text>
<polyline fill="none" stroke="black" points="0,-2135.5 644,-2135.5 "/>
<text text-anchor="end" x="636" y="-2118.7" font-family="Times,serif" font-size="16.00">__parainstructions_end = .</text>
<text text-anchor="start" x="8" y="-2100.7" font-family="Times,serif" font-size="16.00">}</text>
<polyline fill="none" stroke="black" points="0,-2091.5 644,-2091.5 "/>
<text text-anchor="start" x="8" y="-2074.7" font-family="Times,serif" font-size="16.00">. = ALIGN(8) </text>
<polyline fill="none" stroke="black" points="0,-2065.5 644,-2065.5 "/>
<text text-anchor="start" x="8" y="-2048.7" font-family="Times,serif" font-size="16.00">.altinstructions:</text>
<polyline fill="none" stroke="black" points="0,-2039.5 644,-2039.5 "/>
<text text-anchor="end" x="636" y="-2022.7" font-family="Times,serif" font-size="16.00">__alt_instrutions = .</text>
<polyline fill="none" stroke="black" points="0,-2013.5 644,-2013.5 "/>
<text text-anchor="end" x="636" y="-1996.7" font-family="Times,serif" font-size="16.00">*(.altinstructions) </text>
<polyline fill="none" stroke="black" points="0,-1987.5 644,-1987.5 "/>
<text text-anchor="end" x="636" y="-1970.7" font-family="Times,serif" font-size="16.00">__alt_instructions_end = .</text>
<text text-anchor="start" x="8" y="-1952.7" font-family="Times,serif" font-size="16.00">}</text>
<polyline fill="none" stroke="black" points="0,-1943.5 644,-1943.5 "/>
<text text-anchor="start" x="8" y="-1926.7" font-family="Times,serif" font-size="16.00">.altinstr_replacement: {</text>
<polyline fill="none" stroke="black" points="0,-1917.5 644,-1917.5 "/>
<text text-anchor="end" x="636" y="-1900.7" font-family="Times,serif" font-size="16.00">*(.altinstr_replacement) </text>
<text text-anchor="start" x="8" y="-1882.7" font-family="Times,serif" font-size="16.00">}</text>
<polyline fill="none" stroke="black" points="0,-1873.5 644,-1873.5 "/>
<text text-anchor="start" x="8" y="-1856.7" font-family="Times,serif" font-size="16.00">.iommu_table {</text>
<text text-anchor="end" x="636" y="-1838.7" font-family="Times,serif" font-size="16.00"> __iommu_table = .</text>
<text text-anchor="end" x="636" y="-1820.7" font-family="Times,serif" font-size="16.00"> *(.iommu_table)</text>
<text text-anchor="end" x="636" y="-1802.7" font-family="Times,serif" font-size="16.00"> __iommu_table_end = .</text>
<text text-anchor="start" x="8" y="-1784.7" font-family="Times,serif" font-size="16.00">}</text>
<polyline fill="none" stroke="black" points="0,-1775.5 644,-1775.5 "/>
<text text-anchor="start" x="8" y="-1758.7" font-family="Times,serif" font-size="16.00">. = ALIGN(8) </text>
<polyline fill="none" stroke="black" points="0,-1749.5 644,-1749.5 "/>
<text text-anchor="start" x="8" y="-1732.7" font-family="Times,serif" font-size="16.00">.apicdrivers: { </text>
<text text-anchor="end" x="636" y="-1714.7" font-family="Times,serif" font-size="16.00"> __apicdrivers = .</text>
<text text-anchor="end" x="636" y="-1696.7" font-family="Times,serif" font-size="16.00"> *(.apicdriver)</text>
<text text-anchor="end" x="636" y="-1678.7" font-family="Times,serif" font-size="16.00"> __apicdrivers_end = .</text>
<text text-anchor="start" x="8" y="-1660.7" font-family="Times,serif" font-size="16.00">}</text>
<polyline fill="none" stroke="black" points="0,-1651.5 644,-1651.5 "/>
<text text-anchor="start" x="8" y="-1634.7" font-family="Times,serif" font-size="16.00">. = ALIGN(*) </text>
<polyline fill="none" stroke="black" points="0,-1625.5 644,-1625.5 "/>
<text text-anchor="start" x="8" y="-1608.7" font-family="Times,serif" font-size="16.00">.exit.text {</text>
<text text-anchor="end" x="636" y="-1590.7" font-family="Times,serif" font-size="16.00"> EXIT_TEXT</text>
<text text-anchor="start" x="8" y="-1572.7" font-family="Times,serif" font-size="16.00">}</text>
<polyline fill="none" stroke="black" points="0,-1563.5 644,-1563.5 "/>
<text text-anchor="start" x="8" y="-1546.7" font-family="Times,serif" font-size="16.00">.exit.data {</text>
<text text-anchor="end" x="636" y="-1528.7" font-family="Times,serif" font-size="16.00"> EXIT_DATA </text>
<text text-anchor="start" x="8" y="-1510.7" font-family="Times,serif" font-size="16.00">}</text>
<polyline fill="none" stroke="black" points="0,-1501.5 644,-1501.5 "/>
<text text-anchor="start" x="8" y="-1484.7" font-family="Times,serif" font-size="16.00">. = ALIGN(PAGE_SIZE)</text>
<polyline fill="none" stroke="black" points="0,-1475.5 644,-1475.5 "/>
<text text-anchor="start" x="8" y="-1458.7" font-family="Times,serif" font-size="16.00">.init.end:{</text>
<text text-anchor="end" x="636" y="-1440.7" font-family="Times,serif" font-size="16.00">__init_end = .</text>
<text text-anchor="start" x="8" y="-1422.7" font-family="Times,serif" font-size="16.00">}</text>
<polyline fill="none" stroke="black" points="0,-1413.5 644,-1413.5 "/>
<text text-anchor="start" x="8" y="-1396.7" font-family="Times,serif" font-size="16.00">. = ALIGN(PAGE_SIZE) </text>
<polyline fill="none" stroke="black" points="0,-1387.5 644,-1387.5 "/>
<text text-anchor="start" x="8" y="-1370.7" font-family="Times,serif" font-size="16.00">.smp_locks:{</text>
<text text-anchor="end" x="636" y="-1352.7" font-family="Times,serif" font-size="16.00"> __smp_locks = .</text>
<text text-anchor="end" x="636" y="-1334.7" font-family="Times,serif" font-size="16.00"> *(.smp_locks)</text>
<text text-anchor="end" x="636" y="-1316.7" font-family="Times,serif" font-size="16.00"> . = ALIGN(PAGE_SIZE)</text>
<text text-anchor="end" x="636" y="-1298.7" font-family="Times,serif" font-size="16.00"> __smp_locks_end = .</text>
<text text-anchor="start" x="8" y="-1280.7" font-family="Times,serif" font-size="16.00">}</text>
<polyline fill="none" stroke="black" points="0,-1271.5 644,-1271.5 "/>
<text text-anchor="start" x="8" y="-1254.7" font-family="Times,serif" font-size="16.00">.data_nosave:{</text>
<text text-anchor="end" x="636" y="-1236.7" font-family="Times,serif" font-size="16.00">NOSAVE_DATA</text>
<text text-anchor="start" x="8" y="-1218.7" font-family="Times,serif" font-size="16.00">}</text>
<polyline fill="none" stroke="black" points="0,-1209.5 644,-1209.5 "/>
<text text-anchor="start" x="8" y="-1192.7" font-family="Times,serif" font-size="16.00">.ALIGN(PAGE_SIZE) BSS:</text>
<polyline fill="none" stroke="black" points="0,-1183.5 644,-1183.5 "/>
<text text-anchor="start" x="8" y="-1166.7" font-family="Times,serif" font-size="16.00">.bss: {</text>
<text text-anchor="end" x="636" y="-1148.7" font-family="Times,serif" font-size="16.00"> __bss_start =.</text>
<text text-anchor="end" x="636" y="-1130.7" font-family="Times,serif" font-size="16.00"> *(.bss..page_aligned)</text>
<text text-anchor="end" x="636" y="-1112.7" font-family="Times,serif" font-size="16.00"> . = ALIGN(PAGE_SIZE) </text>
<text text-anchor="end" x="636" y="-1094.7" font-family="Times,serif" font-size="16.00"> *(BSS_MAIN)</text>
<text text-anchor="end" x="636" y="-1076.7" font-family="Times,serif" font-size="16.00">BSS_DECRYPTED</text>
<text text-anchor="end" x="636" y="-1058.7" font-family="Times,serif" font-size="16.00"> . = ALIGN(PAGE_SIZE)</text>
<text text-anchor="end" x="636" y="-1040.7" font-family="Times,serif" font-size="16.00"> __bss_stop = .</text>
<text text-anchor="start" x="8" y="-1022.7" font-family="Times,serif" font-size="16.00">}</text>
<polyline fill="none" stroke="black" points="0,-1013.5 644,-1013.5 "/>
<text text-anchor="start" x="8" y="-996.7" font-family="Times,serif" font-size="16.00">__end_of_kernel_reserve = .</text>
<polyline fill="none" stroke="black" points="0,-987.5 644,-987.5 "/>
<text text-anchor="start" x="8" y="-970.7" font-family="Times,serif" font-size="16.00">. = ALIGN(PAGE_SIZE)</text>
<polyline fill="none" stroke="black" points="0,-961.5 644,-961.5 "/>
<text text-anchor="start" x="8" y="-944.7" font-family="Times,serif" font-size="16.00">.brk:{</text>
<text text-anchor="end" x="636" y="-926.7" font-family="Times,serif" font-size="16.00"> __brk_base = .</text>
<text text-anchor="end" x="636" y="-908.7" font-family="Times,serif" font-size="16.00"> . += 64 * 1024</text>
<text text-anchor="end" x="636" y="-890.7" font-family="Times,serif" font-size="16.00"> *(.brk_reservation)</text>
<text text-anchor="end" x="636" y="-872.7" font-family="Times,serif" font-size="16.00"> __brk_limit = .</text>
<text text-anchor="start" x="8" y="-854.7" font-family="Times,serif" font-size="16.00">}</text>
<polyline fill="none" stroke="black" points="0,-845.5 644,-845.5 "/>
<text text-anchor="start" x="8" y="-828.7" font-family="Times,serif" font-size="16.00">.=ALIGN(PAGE_SIZE)</text>
<polyline fill="none" stroke="black" points="0,-819.5 644,-819.5 "/>
<text text-anchor="start" x="8" y="-802.7" font-family="Times,serif" font-size="16.00">_end = . </text>
<polyline fill="none" stroke="black" points="0,-793.5 644,-793.5 "/>
<text text-anchor="start" x="8" y="-776.7" font-family="Times,serif" font-size="16.00">.init.scratch: {</text>
<polyline fill="none" stroke="black" points="0,-767.5 644,-767.5 "/>
<text text-anchor="end" x="636" y="-750.7" font-family="Times,serif" font-size="16.00">__init_scratch_begin = . </text>
<polyline fill="none" stroke="black" points="0,-741.5 644,-741.5 "/>
<text text-anchor="end" x="636" y="-724.7" font-family="Times,serif" font-size="16.00">*(.init.scratch) </text>
<polyline fill="none" stroke="black" points="0,-715.5 644,-715.5 "/>
<text text-anchor="end" x="636" y="-698.7" font-family="Times,serif" font-size="16.00">. = ALIGN(HPAGE_SIZE) </text>
<polyline fill="none" stroke="black" points="0,-689.5 644,-689.5 "/>
<text text-anchor="end" x="636" y="-672.7" font-family="Times,serif" font-size="16.00">__init_scratch_end = .</text>
<text text-anchor="start" x="8" y="-654.7" font-family="Times,serif" font-size="16.00"> }</text>
<polyline fill="none" stroke="black" points="0,-645.5 644,-645.5 "/>
<text text-anchor="start" x="8" y="-628.7" font-family="Times,serif" font-size="16.00">STABS_DEBUG </text>
<polyline fill="none" stroke="black" points="0,-619.5 644,-619.5 "/>
<text text-anchor="start" x="8" y="-602.7" font-family="Times,serif" font-size="16.00">DWARF_DEBUG </text>
<polyline fill="none" stroke="black" points="0,-593.5 644,-593.5 "/>
<text text-anchor="start" x="8" y="-576.7" font-family="Times,serif" font-size="16.00">ELF_DETAILS </text>
<polyline fill="none" stroke="black" points="0,-567.5 644,-567.5 "/>
<text text-anchor="start" x="8" y="-550.7" font-family="Times,serif" font-size="16.00">DISCARDS </text>
<polyline fill="none" stroke="black" points="0,-541.5 644,-541.5 "/>
<text text-anchor="start" x="8" y="-524.7" font-family="Times,serif" font-size="16.00">.got.plt (INFO) : {</text>
<text text-anchor="end" x="636" y="-506.7" font-family="Times,serif" font-size="16.00"> *(.got.plt)</text>
<text text-anchor="start" x="8" y="-488.7" font-family="Times,serif" font-size="16.00"> } </text>
<polyline fill="none" stroke="black" points="0,-479.5 644,-479.5 "/>
<text text-anchor="middle" x="322" y="-462.7" font-family="Times,serif" font-size="16.00">ASSERT(SIZEOF(.got.plt) == 0</text>
<polyline fill="none" stroke="black" points="0,-453.5 644,-453.5 "/>
<text text-anchor="middle" x="322" y="-436.7" font-family="Times,serif" font-size="16.00"> </text>
<polyline fill="none" stroke="black" points="0,-427.5 644,-427.5 "/>
<text text-anchor="start" x="8" y="-410.7" font-family="Times,serif" font-size="16.00">SIZEOF(.got.plt) == 0x18,&quot;Unexpected GOT/PLT entries detected!&quot;) </text>
<polyline fill="none" stroke="black" points="0,-401.5 644,-401.5 "/>
<text text-anchor="start" x="8" y="-384.7" font-family="Times,serif" font-size="16.00">.got : {</text>
<text text-anchor="end" x="636" y="-366.7" font-family="Times,serif" font-size="16.00">*(.got) *(.igot.*)</text>
<text text-anchor="start" x="8" y="-348.7" font-family="Times,serif" font-size="16.00">}</text>
<polyline fill="none" stroke="black" points="0,-339.5 644,-339.5 "/>
<text text-anchor="start" x="8" y="-322.7" font-family="Times,serif" font-size="16.00">ASSERT(SIZEOF(.got) == 0, &quot;Unexpected GOT entries detected!&quot;) </text>
<polyline fill="none" stroke="black" points="0,-313.5 644,-313.5 "/>
<text text-anchor="start" x="8" y="-296.7" font-family="Times,serif" font-size="16.00">.plt : {</text>
<text text-anchor="end" x="636" y="-278.7" font-family="Times,serif" font-size="16.00">*(.plt) *(.plt.*) *(.iplt)</text>
<text text-anchor="start" x="8" y="-260.7" font-family="Times,serif" font-size="16.00">}</text>
<polyline fill="none" stroke="black" points="0,-251.5 644,-251.5 "/>
<text text-anchor="start" x="8" y="-234.7" font-family="Times,serif" font-size="16.00">ASSERT(SIZEOF(.plt) == 0, &quot;Unexpected run&#45;time procedure linkages detected!&quot;)</text>
<polyline fill="none" stroke="black" points="0,-225.5 644,-225.5 "/>
<text text-anchor="start" x="8" y="-208.7" font-family="Times,serif" font-size="16.00">.rel.dyn : {</text>
<text text-anchor="end" x="636" y="-190.7" font-family="Times,serif" font-size="16.00">*(.rel.*) *(.rel_*) </text>
<text text-anchor="start" x="8" y="-172.7" font-family="Times,serif" font-size="16.00">}</text>
<polyline fill="none" stroke="black" points="0,-163.5 644,-163.5 "/>
<text text-anchor="start" x="8" y="-146.7" font-family="Times,serif" font-size="16.00">ASSERT(SIZEOF(.rel.dyn) == 0, &quot;Unexpected run&#45;time relocations (.rel) detected!&quot;) </text>
<polyline fill="none" stroke="black" points="0,-137.5 644,-137.5 "/>
<text text-anchor="start" x="8" y="-120.7" font-family="Times,serif" font-size="16.00">.rela.dyn : {</text>
<text text-anchor="end" x="636" y="-102.7" font-family="Times,serif" font-size="16.00"> *(.rela.*) *(.rela_*)</text>
<text text-anchor="start" x="8" y="-84.7" font-family="Times,serif" font-size="16.00">}</text>
<polyline fill="none" stroke="black" points="0,-75.5 644,-75.5 "/>
<text text-anchor="start" x="8" y="-58.7" font-family="Times,serif" font-size="16.00">ASSERT(SIZEOF(.rela.dyn) == 0, &quot;Unexpected run&#45;time relocations (.rela) detected!&quot;)</text>
<polyline fill="none" stroke="black" points="0,-49.5 644,-49.5 "/>
<text text-anchor="start" x="8" y="-32.7" font-family="Times,serif" font-size="16.00">}</text>
</g>
</g>
</svg>
