<?xml version="1.0" encoding="UTF-8" standalone="no"?>
<!DOCTYPE svg PUBLIC "-//W3C//DTD SVG 1.1//EN"
 "http://www.w3.org/Graphics/SVG/1.1/DTD/svg11.dtd">
<!-- Generated by graphviz version 2.43.0 (0)
 -->
<!-- Title: G Pages: 1 -->
<svg width="629pt" height="1627pt"
 viewBox="0.00 0.00 629.31 1627.00" xmlns="http://www.w3.org/2000/svg" xmlns:xlink="http://www.w3.org/1999/xlink">
<g id="graph0" class="graph" transform="scale(1 1) rotate(0) translate(4 1623)">
<title>G</title>
<polygon fill="white" stroke="transparent" points="-4,4 -4,-1623 625.31,-1623 625.31,4 -4,4"/>
<text text-anchor="middle" x="310.65" y="-7.8" font-family="Times,serif" font-size="14.00">kobject_uevent处理流程</text>
<g id="clust1" class="cluster">
<title>cluster_0</title>
<polygon fill="none" stroke="black" points="8,-31 8,-1611 604,-1611 604,-31 8,-31"/>
<text text-anchor="middle" x="306" y="-1595.8" font-family="Times,serif" font-size="14.00">kobject_uevent_env</text>
</g>
<g id="clust2" class="cluster">
<title>cluster_1</title>
<polygon fill="none" stroke="black" points="16,-582 16,-933 592,-933 592,-582 16,-582"/>
<text text-anchor="middle" x="304" y="-917.8" font-family="Times,serif" font-size="14.00">kobject_uevent_net_broadcast</text>
</g>
<g id="clust3" class="cluster">
<title>cluster_3</title>
<polygon fill="none" stroke="black" points="24,-590 24,-752 584,-752 584,-590 24,-590"/>
<text text-anchor="middle" x="304" y="-736.8" font-family="Times,serif" font-size="14.00">uevent_net_broadcast_tagged:send netlink message</text>
</g>
<!-- start -->
<g id="node1" class="node">
<title>start</title>
<polygon fill="none" stroke="black" points="343,-1580 306.47,-1562 343,-1544 379.53,-1562 343,-1580"/>
<polyline fill="none" stroke="black" points="317.23,-1567.3 317.23,-1556.7 "/>
<polyline fill="none" stroke="black" points="332.24,-1549.3 353.76,-1549.3 "/>
<polyline fill="none" stroke="black" points="368.77,-1556.7 368.77,-1567.3 "/>
<polyline fill="none" stroke="black" points="353.76,-1574.7 332.24,-1574.7 "/>
<text text-anchor="middle" x="343" y="-1558.3" font-family="Times,serif" font-size="14.00">start</text>
</g>
<!-- a0 -->
<g id="node2" class="node">
<title>a0</title>
<polygon fill="none" stroke="black" points="385.5,-1507 300.5,-1507 300.5,-1471 385.5,-1471 385.5,-1507"/>
<text text-anchor="middle" x="343" y="-1485.3" font-family="Times,serif" font-size="14.00">get top_kobj</text>
</g>
<!-- start&#45;&gt;a0 -->
<g id="edge19" class="edge">
<title>start&#45;&gt;a0</title>
<path fill="none" stroke="black" d="M343,-1543.81C343,-1535.79 343,-1526.05 343,-1517.07"/>
<polygon fill="black" stroke="black" points="346.5,-1517.03 343,-1507.03 339.5,-1517.03 346.5,-1517.03"/>
</g>
<!-- a1 -->
<g id="node3" class="node">
<title>a1</title>
<polygon fill="none" stroke="black" points="415.5,-1434 270.5,-1434 270.5,-1398 415.5,-1398 415.5,-1434"/>
<text text-anchor="middle" x="343" y="-1412.3" font-family="Times,serif" font-size="14.00">get kset:top_kobj&#45;&gt;kset</text>
</g>
<!-- a0&#45;&gt;a1 -->
<g id="edge1" class="edge">
<title>a0&#45;&gt;a1</title>
<path fill="none" stroke="black" d="M343,-1470.81C343,-1462.79 343,-1453.05 343,-1444.07"/>
<polygon fill="black" stroke="black" points="346.5,-1444.03 343,-1434.03 339.5,-1444.03 346.5,-1444.03"/>
</g>
<!-- a2 -->
<g id="node4" class="node">
<title>a2</title>
<polygon fill="none" stroke="black" points="529.5,-1361 156.5,-1361 156.5,-1325 529.5,-1325 529.5,-1361"/>
<text text-anchor="middle" x="343" y="-1339.3" font-family="Times,serif" font-size="14.00">uevent_ops + uevent_ops&#45;&gt;filter + uevent_ops&#45;&gt;filter(kset, kobj)</text>
</g>
<!-- a1&#45;&gt;a2 -->
<g id="edge2" class="edge">
<title>a1&#45;&gt;a2</title>
<path fill="none" stroke="black" d="M343,-1397.81C343,-1389.79 343,-1380.05 343,-1371.07"/>
<polygon fill="black" stroke="black" points="346.5,-1371.03 343,-1361.03 339.5,-1371.03 346.5,-1371.03"/>
</g>
<!-- a3 -->
<g id="node5" class="node">
<title>a3</title>
<polygon fill="none" stroke="black" points="449,-1288 237,-1288 237,-1252 449,-1252 449,-1288"/>
<text text-anchor="middle" x="343" y="-1266.3" font-family="Times,serif" font-size="14.00">uevent_ops &amp;&amp; uevent_ops&#45;&gt;name</text>
</g>
<!-- a2&#45;&gt;a3 -->
<g id="edge3" class="edge">
<title>a2&#45;&gt;a3</title>
<path fill="none" stroke="black" d="M343,-1324.81C343,-1316.79 343,-1307.05 343,-1298.07"/>
<polygon fill="black" stroke="black" points="346.5,-1298.03 343,-1288.03 339.5,-1298.03 346.5,-1298.03"/>
</g>
<!-- a4 -->
<g id="node6" class="node">
<title>a4</title>
<polygon fill="none" stroke="black" points="560.5,-1215 125.5,-1215 125.5,-1179 560.5,-1179 560.5,-1215"/>
<text text-anchor="middle" x="343" y="-1193.3" font-family="Times,serif" font-size="14.00">subsystem = uevent_ops&#45;&gt;name || subsystem = kobject_name(&amp;kset&#45;&gt;kobj)</text>
</g>
<!-- a3&#45;&gt;a4 -->
<g id="edge4" class="edge">
<title>a3&#45;&gt;a4</title>
<path fill="none" stroke="black" d="M343,-1251.81C343,-1243.79 343,-1234.05 343,-1225.07"/>
<polygon fill="black" stroke="black" points="346.5,-1225.03 343,-1215.03 339.5,-1225.03 346.5,-1225.03"/>
</g>
<!-- a5 -->
<g id="node7" class="node">
<title>a5</title>
<polygon fill="none" stroke="black" points="486.5,-1142 199.5,-1142 199.5,-1106 486.5,-1106 486.5,-1142"/>
<text text-anchor="middle" x="343" y="-1120.3" font-family="Times,serif" font-size="14.00">add_uevent_var:subsystem + devpath + envp_ext</text>
</g>
<!-- a4&#45;&gt;a5 -->
<g id="edge5" class="edge">
<title>a4&#45;&gt;a5</title>
<path fill="none" stroke="black" d="M343,-1178.81C343,-1170.79 343,-1161.05 343,-1152.07"/>
<polygon fill="black" stroke="black" points="346.5,-1152.03 343,-1142.03 339.5,-1152.03 346.5,-1152.03"/>
</g>
<!-- a6 -->
<g id="node8" class="node">
<title>a6</title>
<polygon fill="none" stroke="black" points="519.5,-1069 166.5,-1069 166.5,-1033 519.5,-1033 519.5,-1069"/>
<text text-anchor="middle" x="343" y="-1047.3" font-family="Times,serif" font-size="14.00">uevent_ops &amp;&amp; uevent_ops&#45;&gt;uevent + uevent_ops&#45;&gt;uevent()</text>
</g>
<!-- a5&#45;&gt;a6 -->
<g id="edge6" class="edge">
<title>a5&#45;&gt;a6</title>
<path fill="none" stroke="black" d="M343,-1105.81C343,-1097.79 343,-1088.05 343,-1079.07"/>
<polygon fill="black" stroke="black" points="346.5,-1079.03 343,-1069.03 339.5,-1079.03 346.5,-1079.03"/>
</g>
<!-- a7 -->
<g id="node9" class="node">
<title>a7</title>
<polygon fill="none" stroke="black" points="447.5,-996 238.5,-996 238.5,-960 447.5,-960 447.5,-996"/>
<text text-anchor="middle" x="343" y="-974.3" font-family="Times,serif" font-size="14.00">add_uevent_var++:uevent_seqnum</text>
</g>
<!-- a6&#45;&gt;a7 -->
<g id="edge7" class="edge">
<title>a6&#45;&gt;a7</title>
<path fill="none" stroke="black" d="M343,-1032.81C343,-1024.79 343,-1015.05 343,-1006.07"/>
<polygon fill="black" stroke="black" points="346.5,-1006.03 343,-996.03 339.5,-1006.03 346.5,-1006.03"/>
</g>
<!-- b0 -->
<g id="node10" class="node">
<title>b0</title>
<polygon fill="none" stroke="black" points="343,-902 288.54,-884 343,-866 397.46,-884 343,-902"/>
<text text-anchor="middle" x="343" y="-880.3" font-family="Times,serif" font-size="14.00">if (!net)</text>
</g>
<!-- a7&#45;&gt;b0 -->
<g id="edge20" class="edge">
<title>a7&#45;&gt;b0</title>
<path fill="none" stroke="black" d="M343,-959.7C343,-946.46 343,-927.95 343,-912.66"/>
<polygon fill="black" stroke="black" points="346.5,-912.23 343,-902.23 339.5,-912.23 346.5,-912.23"/>
</g>
<!-- b1 -->
<g id="node11" class="node">
<title>b1</title>
<polygon fill="none" stroke="black" points="374.5,-815 197.5,-815 197.5,-779 374.5,-779 374.5,-815"/>
<text text-anchor="middle" x="286" y="-793.3" font-family="Times,serif" font-size="14.00">uevent_net_broadcast_tagged</text>
</g>
<!-- b0&#45;&gt;b1 -->
<g id="edge8" class="edge">
<title>b0&#45;&gt;b1</title>
<path fill="none" stroke="black" d="M333.59,-868.96C325.34,-856.67 313.15,-838.48 303.17,-823.6"/>
<polygon fill="black" stroke="black" points="306.07,-821.65 297.59,-815.29 300.26,-825.55 306.07,-821.65"/>
<text text-anchor="middle" x="326.5" y="-836.8" font-family="Times,serif" font-size="14.00">yes</text>
</g>
<!-- b2 -->
<g id="node12" class="node">
<title>b2</title>
<polygon fill="none" stroke="black" points="583.5,-815 392.5,-815 392.5,-779 583.5,-779 583.5,-815"/>
<text text-anchor="middle" x="488" y="-793.3" font-family="Times,serif" font-size="14.00">uevent_net_broadcast_untagged</text>
</g>
<!-- b0&#45;&gt;b2 -->
<g id="edge9" class="edge">
<title>b0&#45;&gt;b2</title>
<path fill="none" stroke="black" d="M361.66,-872.06C383.88,-859.03 421.57,-836.94 450.01,-820.27"/>
<polygon fill="black" stroke="black" points="452.04,-823.14 458.89,-815.06 448.5,-817.1 452.04,-823.14"/>
<text text-anchor="middle" x="431" y="-836.8" font-family="Times,serif" font-size="14.00">no</text>
</g>
<!-- d0 -->
<g id="node13" class="node">
<title>d0</title>
<polygon fill="none" stroke="black" points="304,-721 31.86,-703 304,-685 576.14,-703 304,-721"/>
<text text-anchor="middle" x="304" y="-699.3" font-family="Times,serif" font-size="14.00">list_for_each_entry(ue_sk, &amp;uevent_sock_list, list)</text>
</g>
<!-- b1&#45;&gt;d0 -->
<g id="edge10" class="edge">
<title>b1&#45;&gt;d0</title>
<path fill="none" stroke="black" d="M289.39,-778.7C292.02,-765.25 295.71,-746.35 298.73,-730.93"/>
<polygon fill="black" stroke="black" points="302.21,-731.4 300.69,-720.92 295.34,-730.06 302.21,-731.4"/>
</g>
<!-- u_helper -->
<g id="node22" class="node">
<title>u_helper</title>
<polygon fill="none" stroke="black" points="397,-555 198.42,-537 397,-519 595.58,-537 397,-555"/>
<text text-anchor="middle" x="397" y="-533.3" font-family="Times,serif" font-size="14.00">if set CONFIG_UEVENT_HELPER</text>
</g>
<!-- b2&#45;&gt;u_helper -->
<g id="edge22" class="edge">
<title>b2&#45;&gt;u_helper</title>
<path fill="none" stroke="black" d="M555.62,-778.98C568.42,-772.62 580.23,-763.91 588,-752 629.29,-688.72 635.05,-641.12 588,-582 575.47,-566.26 533.75,-555.67 492.49,-548.83"/>
<polygon fill="black" stroke="black" points="493.01,-545.37 482.59,-547.26 491.92,-552.28 493.01,-545.37"/>
</g>
<!-- d1 -->
<g id="node14" class="node">
<title>d1</title>
<polygon fill="none" stroke="black" points="334.5,-634 221.5,-634 221.5,-598 334.5,-598 334.5,-634"/>
<text text-anchor="middle" x="278" y="-612.3" font-family="Times,serif" font-size="14.00">netlink_broadcast</text>
</g>
<!-- d0&#45;&gt;d1 -->
<g id="edge11" class="edge">
<title>d0&#45;&gt;d1</title>
<path fill="none" stroke="black" d="M289.95,-685.59C286,-680.04 282.18,-673.57 280,-667 277.62,-659.83 276.62,-651.75 276.35,-644.22"/>
<polygon fill="black" stroke="black" points="279.85,-644.09 276.37,-634.08 272.85,-644.08 279.85,-644.09"/>
<text text-anchor="middle" x="289.5" y="-655.8" font-family="Times,serif" font-size="14.00">yes</text>
</g>
<!-- d2 -->
<g id="node15" class="node">
<title>d2</title>
<polygon fill="none" stroke="black" points="443.5,-634 352.5,-634 352.5,-598 443.5,-598 443.5,-634"/>
<text text-anchor="middle" x="398" y="-612.3" font-family="Times,serif" font-size="14.00">consume_skb</text>
</g>
<!-- d0&#45;&gt;d2 -->
<g id="edge12" class="edge">
<title>d0&#45;&gt;d2</title>
<path fill="none" stroke="black" d="M321.81,-685.76C332.56,-675.96 346.55,-663.24 359,-652 362.95,-648.43 367.13,-644.67 371.23,-640.98"/>
<polygon fill="black" stroke="black" points="373.83,-643.35 378.94,-634.07 369.16,-638.14 373.83,-643.35"/>
<text text-anchor="middle" x="366" y="-655.8" font-family="Times,serif" font-size="14.00">no</text>
</g>
<!-- d1&#45;&gt;d0 -->
<g id="edge13" class="edge">
<title>d1&#45;&gt;d0</title>
<path fill="none" stroke="black" d="M290.29,-634.07C293.66,-639.55 296.95,-645.81 299,-652 301.39,-659.2 302.73,-667.29 303.46,-674.82"/>
<polygon fill="black" stroke="black" points="299.98,-675.2 304.13,-684.95 306.96,-674.74 299.98,-675.2"/>
</g>
<!-- d2&#45;&gt;u_helper -->
<g id="edge21" class="edge">
<title>d2&#45;&gt;u_helper</title>
<path fill="none" stroke="black" d="M397.78,-597.91C397.65,-588.34 397.5,-576.18 397.35,-565.32"/>
<polygon fill="black" stroke="black" points="400.85,-564.99 397.22,-555.04 393.85,-565.09 400.85,-564.99"/>
</g>
<!-- c0 -->
<g id="node16" class="node">
<title>c0</title>
<polygon fill="none" stroke="black" points="285,-468 15.87,-450 285,-432 554.13,-450 285,-468"/>
<text text-anchor="middle" x="285" y="-446.3" font-family="Times,serif" font-size="14.00">uevent_helper[0] &amp;&amp; !kobj_usermode_filter(kobj)</text>
</g>
<!-- c1 -->
<g id="node17" class="node">
<title>c1</title>
<polygon fill="none" stroke="black" points="378,-381 16,-381 16,-345 378,-345 378,-381"/>
<text text-anchor="middle" x="197" y="-359.3" font-family="Times,serif" font-size="14.00">add_uevent_var:HOME=/ + PATH=/sbin:/bin:/usr/sbin:/usr/bin</text>
</g>
<!-- c0&#45;&gt;c1 -->
<g id="edge14" class="edge">
<title>c0&#45;&gt;c1</title>
<path fill="none" stroke="black" d="M268.45,-433.01C255.39,-420.4 236.96,-402.6 222.09,-388.23"/>
<polygon fill="black" stroke="black" points="224.31,-385.51 214.69,-381.08 219.45,-390.55 224.31,-385.51"/>
<text text-anchor="middle" x="255.5" y="-402.8" font-family="Times,serif" font-size="14.00">yes</text>
</g>
<!-- end -->
<g id="node21" class="node">
<title>end</title>
<polygon fill="none" stroke="black" points="368,-75 332,-75 332,-39 368,-39 368,-75"/>
<polyline fill="none" stroke="black" points="344,-75 332,-63 "/>
<polyline fill="none" stroke="black" points="332,-51 344,-39 "/>
<polyline fill="none" stroke="black" points="356,-39 368,-51 "/>
<polyline fill="none" stroke="black" points="368,-63 356,-75 "/>
<text text-anchor="middle" x="350" y="-53.3" font-family="Times,serif" font-size="14.00">end</text>
</g>
<!-- c0&#45;&gt;end -->
<g id="edge15" class="edge">
<title>c0&#45;&gt;end</title>
<path fill="none" stroke="black" d="M323.25,-434.52C346.23,-423.6 373.54,-406.14 387,-381 394.55,-366.89 391.24,-360.43 387,-345 381.93,-326.55 372.27,-325.7 365,-308 354.47,-282.37 350,-275.2 350,-247.5 350,-247.5 350,-247.5 350,-129 350,-114.65 350,-98.67 350,-85.51"/>
<polygon fill="black" stroke="black" points="353.5,-85.22 350,-75.22 346.5,-85.22 353.5,-85.22"/>
<text text-anchor="middle" x="357" y="-242.8" font-family="Times,serif" font-size="14.00">no</text>
</g>
<!-- c2 -->
<g id="node18" class="node">
<title>c2</title>
<polygon fill="none" stroke="black" points="277,-308 169,-308 169,-272 277,-272 277,-308"/>
<text text-anchor="middle" x="223" y="-286.3" font-family="Times,serif" font-size="14.00">init_uevent_argv</text>
</g>
<!-- c1&#45;&gt;c2 -->
<g id="edge16" class="edge">
<title>c1&#45;&gt;c2</title>
<path fill="none" stroke="black" d="M203.29,-344.81C206.3,-336.62 209.95,-326.62 213.3,-317.48"/>
<polygon fill="black" stroke="black" points="216.61,-318.62 216.76,-308.03 210.04,-316.22 216.61,-318.62"/>
</g>
<!-- c3 -->
<g id="node19" class="node">
<title>c3</title>
<polygon fill="none" stroke="black" points="320.5,-221 155.5,-221 155.5,-185 320.5,-185 320.5,-221"/>
<text text-anchor="middle" x="238" y="-199.3" font-family="Times,serif" font-size="14.00">call_usermodehelper_setup</text>
</g>
<!-- c2&#45;&gt;c3 -->
<g id="edge17" class="edge">
<title>c2&#45;&gt;c3</title>
<path fill="none" stroke="black" d="M226.04,-271.8C228.09,-260.16 230.84,-244.55 233.19,-231.24"/>
<polygon fill="black" stroke="black" points="236.68,-231.63 234.97,-221.18 229.78,-230.41 236.68,-231.63"/>
</g>
<!-- c4 -->
<g id="node20" class="node">
<title>c4</title>
<polygon fill="none" stroke="black" points="323.5,-148 162.5,-148 162.5,-112 323.5,-112 323.5,-148"/>
<text text-anchor="middle" x="243" y="-126.3" font-family="Times,serif" font-size="14.00">call_usermodehelper_exec</text>
</g>
<!-- c3&#45;&gt;c4 -->
<g id="edge18" class="edge">
<title>c3&#45;&gt;c4</title>
<path fill="none" stroke="black" d="M239.21,-184.81C239.78,-176.79 240.46,-167.05 241.09,-158.07"/>
<polygon fill="black" stroke="black" points="244.59,-158.25 241.8,-148.03 237.61,-157.76 244.59,-158.25"/>
</g>
<!-- c4&#45;&gt;end -->
<g id="edge25" class="edge">
<title>c4&#45;&gt;end</title>
<path fill="none" stroke="black" d="M268.63,-111.99C285.11,-101.06 306.5,-86.87 323.2,-75.78"/>
<polygon fill="black" stroke="black" points="325.55,-78.43 331.95,-69.98 321.68,-72.59 325.55,-78.43"/>
</g>
<!-- u_helper&#45;&gt;c0 -->
<g id="edge24" class="edge">
<title>u_helper&#45;&gt;c0</title>
<path fill="none" stroke="black" d="M376.98,-520.8C359.36,-507.43 333.5,-487.81 313.69,-472.77"/>
<polygon fill="black" stroke="black" points="315.69,-469.9 305.61,-466.64 311.46,-475.47 315.69,-469.9"/>
<text text-anchor="middle" x="441" y="-489.8" font-family="Times,serif" font-size="14.00">set CONFIG_UEVENT_HELPER</text>
</g>
<!-- u_helper&#45;&gt;end -->
<g id="edge23" class="edge">
<title>u_helper&#45;&gt;end</title>
<path fill="none" stroke="black" d="M477.72,-526.31C498.91,-521.13 520.88,-513.18 539,-501 565.95,-482.89 575.07,-462.14 563,-432 520.87,-326.8 387,-360.83 387,-247.5 387,-247.5 387,-247.5 387,-129 387,-112.62 379.16,-96.28 370.7,-83.41"/>
<polygon fill="black" stroke="black" points="373.46,-81.25 364.84,-75.1 367.74,-85.29 373.46,-81.25"/>
<text text-anchor="middle" x="511.5" y="-286.3" font-family="Times,serif" font-size="14.00">not set CONFIG_UEVENT_HELPER</text>
</g>
</g>
</svg>
