<?xml version="1.0" encoding="UTF-8" standalone="no"?>
<!DOCTYPE svg PUBLIC "-//W3C//DTD SVG 1.1//EN"
 "http://www.w3.org/Graphics/SVG/1.1/DTD/svg11.dtd">
<!-- Generated by graphviz version 2.43.0 (0)
 -->
<!-- Title: g Pages: 1 -->
<svg width="1735pt" height="645pt"
 viewBox="0.00 0.00 1735.00 645.00" xmlns="http://www.w3.org/2000/svg" xmlns:xlink="http://www.w3.org/1999/xlink">
<g id="graph0" class="graph" transform="scale(1 1) rotate(0) translate(4 641)">
<title>g</title>
<polygon fill="white" stroke="transparent" points="-4,4 -4,-641 1731,-641 1731,4 -4,4"/>
<text text-anchor="middle" x="863.5" y="-7.8" font-family="Times,serif" font-size="14.00">主要kobject结构关系</text>
<!-- kset -->
<g id="node1" class="node">
<title>kset</title>
<polygon fill="none" stroke="black" points="201.5,-394 201.5,-524 293.5,-524 293.5,-394 201.5,-394"/>
<text text-anchor="middle" x="247.5" y="-507.2" font-family="Times,serif" font-size="16.00">struct kset {</text>
<polyline fill="none" stroke="black" points="201.5,-498 293.5,-498 "/>
<text text-anchor="middle" x="247.5" y="-481.2" font-family="Times,serif" font-size="16.00">list</text>
<polyline fill="none" stroke="black" points="201.5,-472 293.5,-472 "/>
<text text-anchor="middle" x="247.5" y="-455.2" font-family="Times,serif" font-size="16.00">kobj</text>
<polyline fill="none" stroke="black" points="201.5,-446 293.5,-446 "/>
<text text-anchor="middle" x="247.5" y="-429.2" font-family="Times,serif" font-size="16.00">uevent_ops</text>
<polyline fill="none" stroke="black" points="201.5,-420 293.5,-420 "/>
<text text-anchor="middle" x="247.5" y="-403.2" font-family="Times,serif" font-size="16.00">}</text>
</g>
<!-- kobject -->
<g id="node5" class="node">
<title>kobject</title>
<polygon fill="none" stroke="black" points="577.5,-300 577.5,-560 746.5,-560 746.5,-300 577.5,-300"/>
<text text-anchor="middle" x="662" y="-543.2" font-family="Times,serif" font-size="16.00">struct kobject {</text>
<polyline fill="none" stroke="black" points="577.5,-534 746.5,-534 "/>
<text text-anchor="middle" x="662" y="-517.2" font-family="Times,serif" font-size="16.00">const char name</text>
<polyline fill="none" stroke="black" points="577.5,-508 746.5,-508 "/>
<text text-anchor="middle" x="662" y="-491.2" font-family="Times,serif" font-size="16.00">struct list_head entry</text>
<polyline fill="none" stroke="black" points="577.5,-482 746.5,-482 "/>
<text text-anchor="middle" x="662" y="-465.2" font-family="Times,serif" font-size="16.00">struct kobject *parent</text>
<polyline fill="none" stroke="black" points="577.5,-456 746.5,-456 "/>
<text text-anchor="middle" x="662" y="-439.2" font-family="Times,serif" font-size="16.00">struct kset *kset</text>
<polyline fill="none" stroke="black" points="577.5,-430 746.5,-430 "/>
<text text-anchor="middle" x="662" y="-413.2" font-family="Times,serif" font-size="16.00">struct kobj_type *ktype</text>
<polyline fill="none" stroke="black" points="577.5,-404 746.5,-404 "/>
<text text-anchor="middle" x="662" y="-387.2" font-family="Times,serif" font-size="16.00">struct kernfs_node *sd</text>
<polyline fill="none" stroke="black" points="577.5,-378 746.5,-378 "/>
<text text-anchor="middle" x="662" y="-361.2" font-family="Times,serif" font-size="16.00">struct krefkref</text>
<polyline fill="none" stroke="black" points="577.5,-352 746.5,-352 "/>
<text text-anchor="middle" x="662" y="-335.2" font-family="Times,serif" font-size="16.00">...</text>
<polyline fill="none" stroke="black" points="577.5,-326 746.5,-326 "/>
<text text-anchor="middle" x="662" y="-309.2" font-family="Times,serif" font-size="16.00">}</text>
</g>
<!-- kset&#45;&gt;kobject -->
<g id="1" class="edge">
<title>kset:f2&#45;&gt;kobject:f0</title>
<path fill="none" stroke="black" d="M294.5,-459C422.13,-459 443.82,-542.42 565.86,-546.82"/>
<polygon fill="black" stroke="black" points="565.94,-550.32 576,-547 566.06,-543.32 565.94,-550.32"/>
</g>
<!-- kset_uevent_ops -->
<g id="node21" class="node">
<title>kset_uevent_ops</title>
<polygon fill="none" stroke="black" points="371,-151 371,-281 953,-281 953,-151 371,-151"/>
<text text-anchor="middle" x="662" y="-264.2" font-family="Times,serif" font-size="16.00">struct kset_uevent_ops {</text>
<polyline fill="none" stroke="black" points="371,-255 953,-255 "/>
<text text-anchor="middle" x="662" y="-238.2" font-family="Times,serif" font-size="16.00">int (* const filter)(struct kset *kset, struct kobject *kobj)</text>
<polyline fill="none" stroke="black" points="371,-229 953,-229 "/>
<text text-anchor="middle" x="662" y="-212.2" font-family="Times,serif" font-size="16.00">const char *(* const name)(struct kset *kset, struct kobject *kobj)</text>
<polyline fill="none" stroke="black" points="371,-203 953,-203 "/>
<text text-anchor="middle" x="662" y="-186.2" font-family="Times,serif" font-size="16.00">int (* const uevent)(struct kset *kset, struct kobject *kobj,struct kobj_uevent_env *env);</text>
<polyline fill="none" stroke="black" points="371,-177 953,-177 "/>
<text text-anchor="middle" x="662" y="-160.2" font-family="Times,serif" font-size="16.00">}</text>
</g>
<!-- kset&#45;&gt;kset_uevent_ops -->
<g id="2" class="edge">
<title>kset:f3&#45;&gt;kset_uevent_ops:f0</title>
<path fill="none" stroke="black" d="M294.5,-433C371.54,-433 297.79,-283.11 360.69,-269.05"/>
<polygon fill="black" stroke="black" points="361.41,-272.5 371,-268 360.7,-265.54 361.41,-272.5"/>
</g>
<!-- kset_f1_plain -->
<g id="node2" class="node">
<title>kset_f1_plain</title>
<text text-anchor="middle" x="62" y="-509.2" font-family="Times,serif" font-size="16.00">kset.list:</text>
</g>
<!-- kset_f1_plain&#45;&gt;kset -->
<g id="10" class="edge">
<title>kset_f1_plain&#45;&gt;kset:f1</title>
<path fill="none" stroke="blue" d="M97.08,-502.09C124.67,-494.23 164.69,-485 200.5,-485"/>
</g>
<!-- kset_f2_plain -->
<g id="node3" class="node">
<title>kset_f2_plain</title>
<text text-anchor="middle" x="62" y="-455.2" font-family="Times,serif" font-size="16.00">kset.kobj:</text>
</g>
<!-- kset_f2_plain&#45;&gt;kset -->
<g id="11" class="edge">
<title>kset_f2_plain&#45;&gt;kset:f2</title>
<path fill="none" stroke="blue" d="M102.12,-459C129.63,-459 167.32,-459 200.5,-459"/>
</g>
<!-- kset_f3_plain -->
<g id="node4" class="node">
<title>kset_f3_plain</title>
<text text-anchor="middle" x="62" y="-401.2" font-family="Times,serif" font-size="16.00">kset.uevent_ops:</text>
</g>
<!-- kset_f3_plain&#45;&gt;kset -->
<g id="12" class="edge">
<title>kset_f3_plain&#45;&gt;kset:f3</title>
<path fill="none" stroke="blue" d="M124.06,-422.89C147.72,-428.38 175.16,-433 200.5,-433"/>
</g>
<!-- kobject_f1_plain -->
<g id="node6" class="node">
<title>kobject_f1_plain</title>
<text text-anchor="middle" x="1246.5" y="-615.2" font-family="Times,serif" font-size="16.00">kobject.name:</text>
</g>
<!-- kobject&#45;&gt;kobject_f1_plain -->
<g id="13" class="edge">
<title>kobject:f1&#45;&gt;kobject_f1_plain</title>
<path fill="none" stroke="blue" d="M748,-521C859.66,-521 879.47,-570.29 989,-592 1058.62,-605.8 1140.35,-612.86 1192.52,-616.24"/>
</g>
<!-- kobject_f2_plain -->
<g id="node7" class="node">
<title>kobject_f2_plain</title>
<text text-anchor="middle" x="1246.5" y="-561.2" font-family="Times,serif" font-size="16.00">kobject.entry:</text>
</g>
<!-- kobject&#45;&gt;kobject_f2_plain -->
<g id="14" class="edge">
<title>kobject:f2&#45;&gt;kobject_f2_plain</title>
<path fill="none" stroke="blue" d="M748,-495C856.8,-495 881.27,-522.74 989,-538 1059.71,-548.02 1141.88,-556.03 1193.78,-560.65"/>
</g>
<!-- kobject_f3_plain -->
<g id="node8" class="node">
<title>kobject_f3_plain</title>
<text text-anchor="middle" x="1246.5" y="-507.2" font-family="Times,serif" font-size="16.00">kobject.parent:</text>
</g>
<!-- kobject&#45;&gt;kobject_f3_plain -->
<g id="15" class="edge">
<title>kobject:f3&#45;&gt;kobject_f3_plain</title>
<path fill="none" stroke="blue" d="M748,-469C832.95,-469 1079.44,-493.62 1190.32,-505.16"/>
</g>
<!-- kobject_f4_plain -->
<g id="node9" class="node">
<title>kobject_f4_plain</title>
<text text-anchor="middle" x="1246.5" y="-453.2" font-family="Times,serif" font-size="16.00">kobject.kset:</text>
</g>
<!-- kobject&#45;&gt;kobject_f4_plain -->
<g id="16" class="edge">
<title>kobject:f4&#45;&gt;kobject_f4_plain</title>
<path fill="none" stroke="blue" d="M748,-443C913.03,-443 1108.74,-450.79 1197.49,-454.75"/>
</g>
<!-- kobject_f5_plain -->
<g id="node10" class="node">
<title>kobject_f5_plain</title>
<text text-anchor="middle" x="1246.5" y="-399.2" font-family="Times,serif" font-size="16.00">kobject.ktype:</text>
</g>
<!-- kobject&#45;&gt;kobject_f5_plain -->
<g id="17" class="edge">
<title>kobject:f5&#45;&gt;kobject_f5_plain</title>
<path fill="none" stroke="blue" d="M748,-417C909.79,-417 1101.07,-409.51 1192.14,-405.49"/>
</g>
<!-- kobject_f6_plain -->
<g id="node11" class="node">
<title>kobject_f6_plain</title>
<text text-anchor="middle" x="1246.5" y="-91.2" font-family="Times,serif" font-size="16.00">kobject.sd:</text>
</g>
<!-- kobject&#45;&gt;kobject_f6_plain -->
<g id="18" class="edge">
<title>kobject:f6&#45;&gt;kobject_f6_plain</title>
<path fill="none" stroke="blue" d="M748,-391C849.57,-391 890.56,-370.11 953,-290 999.94,-229.77 932.21,-173.05 989,-122 1047.61,-69.31 1146.86,-76.31 1203.18,-85.83"/>
</g>
<!-- kobject_f7_plain -->
<g id="node12" class="node">
<title>kobject_f7_plain</title>
<text text-anchor="middle" x="1246.5" y="-37.2" font-family="Times,serif" font-size="16.00">kobject.kref:</text>
</g>
<!-- kobject&#45;&gt;kobject_f7_plain -->
<g id="19" class="edge">
<title>kobject:f7&#45;&gt;kobject_f7_plain</title>
<path fill="none" stroke="blue" d="M748,-365C845.02,-365 891.21,-364.8 953,-290 1016.66,-212.94 916.37,-136.68 989,-68 1044.47,-15.55 1139.83,-20.99 1197.34,-30.47"/>
</g>
<!-- kobj_type -->
<g id="node13" class="node">
<title>kobj_type</title>
<polygon fill="none" stroke="black" points="989,-132 989,-366 1504,-366 1504,-132 989,-132"/>
<text text-anchor="middle" x="1246.5" y="-349.2" font-family="Times,serif" font-size="16.00">struct kobj_type {</text>
<polyline fill="none" stroke="black" points="989,-340 1504,-340 "/>
<text text-anchor="middle" x="1246.5" y="-323.2" font-family="Times,serif" font-size="16.00">void (*release)(struct kobject *kobj)</text>
<polyline fill="none" stroke="black" points="989,-314 1504,-314 "/>
<text text-anchor="middle" x="1246.5" y="-297.2" font-family="Times,serif" font-size="16.00">const struct sysfs_ops *sysfs_ops</text>
<polyline fill="none" stroke="black" points="989,-288 1504,-288 "/>
<text text-anchor="middle" x="1246.5" y="-271.2" font-family="Times,serif" font-size="16.00">struct attribute **default_attrs</text>
<polyline fill="none" stroke="black" points="989,-262 1504,-262 "/>
<text text-anchor="middle" x="1246.5" y="-245.2" font-family="Times,serif" font-size="16.00">const struct attribute_group **default_groups</text>
<polyline fill="none" stroke="black" points="989,-236 1504,-236 "/>
<text text-anchor="middle" x="1246.5" y="-219.2" font-family="Times,serif" font-size="16.00">const struct kobj_ns_type_operations *(*child_ns_type)(struct kobject *kobj)</text>
<polyline fill="none" stroke="black" points="989,-210 1504,-210 "/>
<text text-anchor="middle" x="1246.5" y="-193.2" font-family="Times,serif" font-size="16.00">const void *(*namespace)(struct kobject *kobj)</text>
<polyline fill="none" stroke="black" points="989,-184 1504,-184 "/>
<text text-anchor="middle" x="1246.5" y="-167.2" font-family="Times,serif" font-size="16.00">void (*get_ownership)(struct kobject *kobj, kuid_t *uid, kgid_t *gid)</text>
<polyline fill="none" stroke="black" points="989,-158 1504,-158 "/>
<text text-anchor="middle" x="1246.5" y="-141.2" font-family="Times,serif" font-size="16.00">}</text>
</g>
<!-- kobject&#45;&gt;kobj_type -->
<g id="3" class="edge">
<title>kobject:f5&#45;&gt;kobj_type:f0</title>
<path fill="none" stroke="black" d="M748,-417C855.36,-417 876.88,-356.94 978.87,-353.18"/>
<polygon fill="black" stroke="black" points="979.07,-356.68 989,-353 978.94,-349.68 979.07,-356.68"/>
</g>
<!-- kobj_type_f1_plain -->
<g id="node14" class="node">
<title>kobj_type_f1_plain</title>
<text text-anchor="middle" x="1633.5" y="-407.2" font-family="Times,serif" font-size="16.00">kobj_type.release:</text>
</g>
<!-- kobj_type&#45;&gt;kobj_type_f1_plain -->
<g id="20" class="edge">
<title>kobj_type:f1&#45;&gt;kobj_type_f1_plain</title>
<path fill="none" stroke="blue" d="M1504,-327C1533.96,-327 1516.07,-365.97 1540,-384 1548.02,-390.04 1557.36,-394.73 1566.96,-398.38"/>
</g>
<!-- kobj_type_f2_plain -->
<g id="node15" class="node">
<title>kobj_type_f2_plain</title>
<text text-anchor="middle" x="1633.5" y="-353.2" font-family="Times,serif" font-size="16.00">kobj_type.sysfs_ops:</text>
</g>
<!-- kobj_type&#45;&gt;kobj_type_f2_plain -->
<g id="20" class="edge">
<title>kobj_type:f2&#45;&gt;kobj_type_f2_plain</title>
<path fill="none" stroke="blue" d="M1504,-301C1524.55,-301 1521.79,-320.49 1540,-330 1546.38,-333.33 1553.22,-336.3 1560.2,-338.94"/>
</g>
<!-- kobj_type_f3_plain -->
<g id="node16" class="node">
<title>kobj_type_f3_plain</title>
<text text-anchor="middle" x="1633.5" y="-299.2" font-family="Times,serif" font-size="16.00">kobj_type.default_attrs:</text>
</g>
<!-- kobj_type&#45;&gt;kobj_type_f3_plain -->
<g id="20" class="edge">
<title>kobj_type:f3&#45;&gt;kobj_type_f3_plain</title>
<path fill="none" stroke="blue" d="M1504,-275C1527.52,-275 1552.91,-279.53 1574.87,-284.95"/>
</g>
<!-- kobj_type_f4_plain -->
<g id="node17" class="node">
<title>kobj_type_f4_plain</title>
<text text-anchor="middle" x="1633.5" y="-245.2" font-family="Times,serif" font-size="16.00">kobj_type.default_groups:</text>
</g>
<!-- kobj_type&#45;&gt;kobj_type_f4_plain -->
<g id="20" class="edge">
<title>kobj_type:f4&#45;&gt;kobj_type_f4_plain</title>
<path fill="none" stroke="blue" d="M1504,-249C1515.6,-249 1527.79,-249 1539.85,-249"/>
</g>
<!-- kobj_type_f5_plain -->
<g id="node18" class="node">
<title>kobj_type_f5_plain</title>
<text text-anchor="middle" x="1633.5" y="-191.2" font-family="Times,serif" font-size="16.00">kobj_type.child_ns_type:</text>
</g>
<!-- kobj_type&#45;&gt;kobj_type_f5_plain -->
<g id="20" class="edge">
<title>kobj_type:f5&#45;&gt;kobj_type_f5_plain</title>
<path fill="none" stroke="blue" d="M1504,-223C1527.52,-223 1552.91,-218.47 1574.87,-213.05"/>
</g>
<!-- kobj_type_f6_plain -->
<g id="node19" class="node">
<title>kobj_type_f6_plain</title>
<text text-anchor="middle" x="1633.5" y="-137.2" font-family="Times,serif" font-size="16.00">kobj_type.namespace:</text>
</g>
<!-- kobj_type&#45;&gt;kobj_type_f6_plain -->
<g id="20" class="edge">
<title>kobj_type:f6&#45;&gt;kobj_type_f6_plain</title>
<path fill="none" stroke="blue" d="M1504,-197C1524.55,-197 1521.79,-177.51 1540,-168 1546.38,-164.67 1553.22,-161.7 1560.2,-159.06"/>
</g>
<!-- kobj_type_f7_plain -->
<g id="node20" class="node">
<title>kobj_type_f7_plain</title>
<text text-anchor="middle" x="1633.5" y="-83.2" font-family="Times,serif" font-size="16.00">kobj_type.get_ownership:</text>
</g>
<!-- kobj_type&#45;&gt;kobj_type_f7_plain -->
<g id="20" class="edge">
<title>kobj_type:f7&#45;&gt;kobj_type_f7_plain</title>
<path fill="none" stroke="blue" d="M1504,-171C1533.96,-171 1516.07,-132.03 1540,-114 1544.41,-110.68 1549.22,-107.76 1554.25,-105.21"/>
</g>
<!-- kset_uevent_ops_f1_plain -->
<g id="node22" class="node">
<title>kset_uevent_ops_f1_plain</title>
<text text-anchor="middle" x="247.5" y="-266.2" font-family="Times,serif" font-size="16.00">kset_uevent_ops.filter:</text>
</g>
<!-- kset_uevent_ops_f1_plain&#45;&gt;kset_uevent_ops -->
<g id="30" class="edge">
<title>kset_uevent_ops_f1_plain&#45;&gt;kset_uevent_ops:f1</title>
<path fill="none" stroke="blue" d="M303.39,-251.95C324.31,-246.53 348.53,-242 371,-242"/>
</g>
<!-- kset_uevent_ops_f2_plain -->
<g id="node23" class="node">
<title>kset_uevent_ops_f2_plain</title>
<text text-anchor="middle" x="247.5" y="-212.2" font-family="Times,serif" font-size="16.00">kset_uevent_ops.name:</text>
</g>
<!-- kset_uevent_ops_f2_plain&#45;&gt;kset_uevent_ops -->
<g id="30" class="edge">
<title>kset_uevent_ops_f2_plain&#45;&gt;kset_uevent_ops:f2</title>
<path fill="none" stroke="blue" d="M331.2,-216C344.51,-216 358.13,-216 371,-216"/>
</g>
<!-- kset_uevent_ops_f3_plain -->
<g id="node24" class="node">
<title>kset_uevent_ops_f3_plain</title>
<text text-anchor="middle" x="247.5" y="-158.2" font-family="Times,serif" font-size="16.00">kset_uevent_ops.uevent:</text>
</g>
<!-- kset_uevent_ops_f3_plain&#45;&gt;kset_uevent_ops -->
<g id="30" class="edge">
<title>kset_uevent_ops_f3_plain&#45;&gt;kset_uevent_ops:f3</title>
<path fill="none" stroke="blue" d="M303.39,-180.05C324.31,-185.47 348.53,-190 371,-190"/>
</g>
</g>
</svg>
