<?xml version="1.0" encoding="UTF-8" standalone="no"?>
<!DOCTYPE svg PUBLIC "-//W3C//DTD SVG 1.1//EN"
 "http://www.w3.org/Graphics/SVG/1.1/DTD/svg11.dtd">
<!-- Generated by graphviz version 2.43.0 (0)
 -->
<!-- Title: G Pages: 1 -->
<svg width="634pt" height="1651pt"
 viewBox="0.00 0.00 633.50 1651.00" xmlns="http://www.w3.org/2000/svg" xmlns:xlink="http://www.w3.org/1999/xlink">
<g id="graph0" class="graph" transform="scale(1 1) rotate(0) translate(4 1647)">
<title>G</title>
<polygon fill="white" stroke="transparent" points="-4,4 -4,-1647 629.5,-1647 629.5,4 -4,4"/>
<text text-anchor="middle" x="312.75" y="-7.8" font-family="Times,serif" font-size="14.00">modpost处理流程图</text>
<!-- A -->
<g id="node1" class="node">
<title>A</title>
<polygon fill="none" stroke="black" points="398,-1643 325,-1643 325,-1607 398,-1607 398,-1643"/>
<text text-anchor="middle" x="361.5" y="-1621.2" font-family="Times,serif" font-size="16.00">modpost</text>
</g>
<!-- B -->
<g id="node2" class="node">
<title>B</title>
<polygon fill="none" stroke="black" points="444.5,-1571 278.5,-1571 278.5,-1535 444.5,-1535 444.5,-1571"/>
<text text-anchor="middle" x="361.5" y="-1549.2" font-family="Times,serif" font-size="16.00">&#45;e:external_module = 1</text>
</g>
<!-- A&#45;&gt;B -->
<g id="edge1" class="edge">
<title>A&#45;&gt;B</title>
<path fill="none" stroke="black" d="M361.5,-1606.7C361.5,-1598.98 361.5,-1589.71 361.5,-1581.11"/>
<polygon fill="black" stroke="black" points="365,-1581.1 361.5,-1571.1 358,-1581.1 365,-1581.1"/>
</g>
<!-- C -->
<g id="node3" class="node">
<title>C</title>
<polygon fill="none" stroke="black" points="481.5,-1499 241.5,-1499 241.5,-1463 481.5,-1463 481.5,-1499"/>
<text text-anchor="middle" x="361.5" y="-1477.2" font-family="Times,serif" font-size="16.00">i:dump_read_start/dump_read_iter</text>
</g>
<!-- B&#45;&gt;C -->
<g id="edge2" class="edge">
<title>B&#45;&gt;C</title>
<path fill="none" stroke="black" d="M361.5,-1534.7C361.5,-1526.98 361.5,-1517.71 361.5,-1509.11"/>
<polygon fill="black" stroke="black" points="365,-1509.1 361.5,-1499.1 358,-1509.1 365,-1509.1"/>
</g>
<!-- E -->
<g id="node4" class="node">
<title>E</title>
<polygon fill="none" stroke="black" points="432,-1427 291,-1427 291,-1391 432,-1391 432,-1427"/>
<text text-anchor="middle" x="361.5" y="-1405.2" font-family="Times,serif" font-size="16.00">m:modversions = 1</text>
</g>
<!-- C&#45;&gt;E -->
<g id="edge3" class="edge">
<title>C&#45;&gt;E</title>
<path fill="none" stroke="black" d="M361.5,-1462.7C361.5,-1454.98 361.5,-1445.71 361.5,-1437.11"/>
<polygon fill="black" stroke="black" points="365,-1437.1 361.5,-1427.1 358,-1437.1 365,-1437.1"/>
</g>
<!-- F -->
<g id="node5" class="node">
<title>F</title>
<polygon fill="none" stroke="black" points="415,-1355 308,-1355 308,-1319 415,-1319 415,-1355"/>
<text text-anchor="middle" x="361.5" y="-1333.2" font-family="Times,serif" font-size="16.00">o:dump_write</text>
</g>
<!-- E&#45;&gt;F -->
<g id="edge4" class="edge">
<title>E&#45;&gt;F</title>
<path fill="none" stroke="black" d="M361.5,-1390.7C361.5,-1382.98 361.5,-1373.71 361.5,-1365.11"/>
<polygon fill="black" stroke="black" points="365,-1365.1 361.5,-1355.1 358,-1365.1 365,-1365.1"/>
</g>
<!-- G -->
<g id="node6" class="node">
<title>G</title>
<polygon fill="none" stroke="black" points="415,-1283 308,-1283 308,-1247 415,-1247 415,-1283"/>
<text text-anchor="middle" x="361.5" y="-1261.2" font-family="Times,serif" font-size="16.00">T:files_source</text>
</g>
<!-- F&#45;&gt;G -->
<g id="edge5" class="edge">
<title>F&#45;&gt;G</title>
<path fill="none" stroke="black" d="M361.5,-1318.7C361.5,-1310.98 361.5,-1301.71 361.5,-1293.11"/>
<polygon fill="black" stroke="black" points="365,-1293.1 361.5,-1283.1 358,-1293.1 365,-1293.1"/>
</g>
<!-- drs0 -->
<g id="node10" class="node">
<title>drs0</title>
<polygon fill="none" stroke="black" points="406,-1211 317,-1211 317,-1175 406,-1175 406,-1211"/>
<text text-anchor="middle" x="361.5" y="-1189.2" font-family="Times,serif" font-size="16.00">read_dump</text>
</g>
<!-- G&#45;&gt;drs0 -->
<g id="edge6" class="edge">
<title>G&#45;&gt;drs0</title>
<path fill="none" stroke="black" d="M361.5,-1246.7C361.5,-1238.98 361.5,-1229.71 361.5,-1221.11"/>
<polygon fill="black" stroke="black" points="365,-1221.1 361.5,-1211.1 358,-1221.1 365,-1221.1"/>
</g>
<!-- I -->
<g id="node7" class="node">
<title>I</title>
<polygon fill="none" stroke="black" points="177,-995 0,-995 0,-959 177,-959 177,-995"/>
<text text-anchor="middle" x="88.5" y="-973.2" font-family="Times,serif" font-size="16.00">write_dump:dump_write</text>
</g>
<!-- J -->
<g id="node8" class="node">
<title>J</title>
<polygon fill="none" stroke="black" points="129.5,-923 47.5,-923 47.5,-887 129.5,-887 129.5,-923"/>
<text text-anchor="middle" x="88.5" y="-901.2" font-family="Times,serif" font-size="16.00">export_str</text>
</g>
<!-- I&#45;&gt;J -->
<g id="edge10" class="edge">
<title>I&#45;&gt;J</title>
<path fill="none" stroke="black" d="M88.5,-958.7C88.5,-950.98 88.5,-941.71 88.5,-933.11"/>
<polygon fill="black" stroke="black" points="92,-933.1 88.5,-923.1 85,-933.1 92,-933.1"/>
</g>
<!-- K -->
<g id="node9" class="node">
<title>K</title>
<polygon fill="none" stroke="black" points="115.5,-851 61.5,-851 61.5,-815 115.5,-815 115.5,-851"/>
<text text-anchor="middle" x="88.5" y="-829.2" font-family="Times,serif" font-size="16.00">结束</text>
</g>
<!-- J&#45;&gt;K -->
<g id="edge11" class="edge">
<title>J&#45;&gt;K</title>
<path fill="none" stroke="black" d="M88.5,-886.7C88.5,-878.98 88.5,-869.71 88.5,-861.11"/>
<polygon fill="black" stroke="black" points="92,-861.1 88.5,-851.1 85,-861.1 92,-861.1"/>
</g>
<!-- rsff -->
<g id="node11" class="node">
<title>rsff</title>
<polygon fill="none" stroke="black" points="526,-1139 197,-1139 197,-1103 526,-1103 526,-1139"/>
<text text-anchor="middle" x="361.5" y="-1117.2" font-family="Times,serif" font-size="16.00">read_symbols_from_files:files_source:按行解析</text>
</g>
<!-- drs0&#45;&gt;rsff -->
<g id="edge7" class="edge">
<title>drs0&#45;&gt;rsff</title>
<path fill="none" stroke="black" d="M361.5,-1174.7C361.5,-1166.98 361.5,-1157.71 361.5,-1149.11"/>
<polygon fill="black" stroke="black" points="365,-1149.1 361.5,-1139.1 358,-1149.1 365,-1149.1"/>
</g>
<!-- mp -->
<g id="node12" class="node">
<title>mp</title>
<polygon fill="none" stroke="black" points="324.5,-1067 218.5,-1067 218.5,-1031 324.5,-1031 324.5,-1067"/>
<text text-anchor="middle" x="271.5" y="-1045.2" font-family="Times,serif" font-size="16.00">mod_process:</text>
</g>
<!-- rsff&#45;&gt;mp -->
<g id="edge8" class="edge">
<title>rsff&#45;&gt;mp</title>
<path fill="none" stroke="black" d="M339.25,-1102.7C327.92,-1093.88 313.97,-1083.03 301.68,-1073.47"/>
<polygon fill="black" stroke="black" points="303.53,-1070.48 293.49,-1067.1 299.24,-1076.01 303.53,-1070.48"/>
</g>
<!-- rs -->
<g id="node24" class="node">
<title>rs</title>
<polygon fill="none" stroke="black" points="564.5,-1067 344.5,-1067 344.5,-1031 564.5,-1031 564.5,-1067"/>
<text text-anchor="middle" x="454.5" y="-1045.2" font-family="Times,serif" font-size="16.00">read_symbols:modname:k_m.o</text>
</g>
<!-- rsff&#45;&gt;rs -->
<g id="edge23" class="edge">
<title>rsff&#45;&gt;rs</title>
<path fill="none" stroke="black" d="M384.49,-1102.7C396.31,-1093.8 410.89,-1082.82 423.68,-1073.2"/>
<polygon fill="black" stroke="black" points="425.89,-1075.91 431.78,-1067.1 421.68,-1070.32 425.89,-1075.91"/>
</g>
<!-- mp&#45;&gt;I -->
<g id="edge9" class="edge">
<title>mp&#45;&gt;I</title>
<path fill="none" stroke="black" d="M226.73,-1030.88C201.38,-1021.18 169.49,-1008.98 142.73,-998.74"/>
<polygon fill="black" stroke="black" points="143.71,-995.37 133.12,-995.07 141.21,-1001.91 143.71,-995.37"/>
</g>
<!-- mp0 -->
<g id="node13" class="node">
<title>mp0</title>
<polygon fill="none" stroke="black" points="348,-995 195,-995 195,-959 348,-959 348,-995"/>
<text text-anchor="middle" x="271.5" y="-973.2" font-family="Times,serif" font-size="16.00">check_modname_len</text>
</g>
<!-- mp&#45;&gt;mp0 -->
<g id="edge12" class="edge">
<title>mp&#45;&gt;mp0</title>
<path fill="none" stroke="black" d="M271.5,-1030.7C271.5,-1022.98 271.5,-1013.71 271.5,-1005.11"/>
<polygon fill="black" stroke="black" points="275,-1005.1 271.5,-995.1 268,-1005.1 275,-1005.1"/>
</g>
<!-- cpf -->
<g id="node23" class="node">
<title>cpf</title>
<polygon fill="none" stroke="black" points="339,-923 200,-923 200,-887 339,-887 339,-923"/>
<text text-anchor="middle" x="269.5" y="-901.2" font-family="Times,serif" font-size="16.00">check_export:符号</text>
</g>
<!-- mp0&#45;&gt;cpf -->
<g id="edge13" class="edge">
<title>mp0&#45;&gt;cpf</title>
<path fill="none" stroke="black" d="M271.01,-958.7C270.79,-950.98 270.52,-941.71 270.27,-933.11"/>
<polygon fill="black" stroke="black" points="273.77,-933 269.99,-923.1 266.78,-933.2 273.77,-933"/>
</g>
<!-- mp1 -->
<g id="node14" class="node">
<title>mp1</title>
<polygon fill="none" stroke="black" points="366,-851 169,-851 169,-815 366,-815 366,-851"/>
<text text-anchor="middle" x="267.5" y="-829.2" font-family="Times,serif" font-size="16.00">add_header:mod.c固定信息</text>
</g>
<!-- mp2 -->
<g id="node15" class="node">
<title>mp2</title>
<polygon fill="none" stroke="black" points="326.5,-779 204.5,-779 204.5,-743 326.5,-743 326.5,-779"/>
<text text-anchor="middle" x="265.5" y="-757.2" font-family="Times,serif" font-size="16.00">add_intree_flag:</text>
</g>
<!-- mp1&#45;&gt;mp2 -->
<g id="edge15" class="edge">
<title>mp1&#45;&gt;mp2</title>
<path fill="none" stroke="black" d="M267.01,-814.7C266.79,-806.98 266.52,-797.71 266.27,-789.11"/>
<polygon fill="black" stroke="black" points="269.77,-789 265.99,-779.1 262.78,-789.2 269.77,-789"/>
</g>
<!-- mp3 -->
<g id="node16" class="node">
<title>mp3</title>
<polygon fill="none" stroke="black" points="319.5,-707 209.5,-707 209.5,-671 319.5,-671 319.5,-707"/>
<text text-anchor="middle" x="264.5" y="-685.2" font-family="Times,serif" font-size="16.00">add_retpoline:</text>
</g>
<!-- mp2&#45;&gt;mp3 -->
<g id="edge16" class="edge">
<title>mp2&#45;&gt;mp3</title>
<path fill="none" stroke="black" d="M265.25,-742.7C265.14,-734.98 265.01,-725.71 264.89,-717.11"/>
<polygon fill="black" stroke="black" points="268.39,-717.05 264.74,-707.1 261.39,-717.15 268.39,-717.05"/>
</g>
<!-- mp4 -->
<g id="node17" class="node">
<title>mp4</title>
<polygon fill="none" stroke="black" points="328.5,-635 196.5,-635 196.5,-599 328.5,-599 328.5,-635"/>
<text text-anchor="middle" x="262.5" y="-613.2" font-family="Times,serif" font-size="16.00">add_staging_flag:</text>
</g>
<!-- mp3&#45;&gt;mp4 -->
<g id="edge17" class="edge">
<title>mp3&#45;&gt;mp4</title>
<path fill="none" stroke="black" d="M264.01,-670.7C263.79,-662.98 263.52,-653.71 263.27,-645.11"/>
<polygon fill="black" stroke="black" points="266.77,-645 262.99,-635.1 259.78,-645.2 266.77,-645"/>
</g>
<!-- mp5 -->
<g id="node18" class="node">
<title>mp5</title>
<polygon fill="none" stroke="black" points="309.5,-563 209.5,-563 209.5,-527 309.5,-527 309.5,-563"/>
<text text-anchor="middle" x="259.5" y="-541.2" font-family="Times,serif" font-size="16.00">add_version:</text>
</g>
<!-- mp4&#45;&gt;mp5 -->
<g id="edge18" class="edge">
<title>mp4&#45;&gt;mp5</title>
<path fill="none" stroke="black" d="M261.76,-598.7C261.43,-590.98 261.03,-581.71 260.66,-573.11"/>
<polygon fill="black" stroke="black" points="264.16,-572.95 260.23,-563.1 257.16,-573.25 264.16,-572.95"/>
</g>
<!-- mp6 -->
<g id="node19" class="node">
<title>mp6</title>
<polygon fill="none" stroke="black" points="301,-491 196,-491 196,-455 301,-455 301,-491"/>
<text text-anchor="middle" x="248.5" y="-469.2" font-family="Times,serif" font-size="16.00">add_depends:</text>
</g>
<!-- mp5&#45;&gt;mp6 -->
<g id="edge19" class="edge">
<title>mp5&#45;&gt;mp6</title>
<path fill="none" stroke="black" d="M256.78,-526.7C255.57,-518.98 254.11,-509.71 252.76,-501.11"/>
<polygon fill="black" stroke="black" points="256.2,-500.44 251.19,-491.1 249.28,-501.53 256.2,-500.44"/>
</g>
<!-- mp7 -->
<g id="node20" class="node">
<title>mp7</title>
<polygon fill="none" stroke="black" points="295.5,-419 155.5,-419 155.5,-383 295.5,-383 295.5,-419"/>
<text text-anchor="middle" x="225.5" y="-397.2" font-family="Times,serif" font-size="16.00"> add_mpddevtable:</text>
</g>
<!-- mp6&#45;&gt;mp7 -->
<g id="edge20" class="edge">
<title>mp6&#45;&gt;mp7</title>
<path fill="none" stroke="black" d="M242.81,-454.7C240.25,-446.9 237.17,-437.51 234.32,-428.83"/>
<polygon fill="black" stroke="black" points="237.57,-427.51 231.12,-419.1 230.92,-429.7 237.57,-427.51"/>
</g>
<!-- mp8 -->
<g id="node21" class="node">
<title>mp8</title>
<polygon fill="none" stroke="black" points="278,-347 173,-347 173,-311 278,-311 278,-347"/>
<text text-anchor="middle" x="225.5" y="-325.2" font-family="Times,serif" font-size="16.00">add_srcersion</text>
</g>
<!-- mp7&#45;&gt;mp8 -->
<g id="edge21" class="edge">
<title>mp7&#45;&gt;mp8</title>
<path fill="none" stroke="black" d="M225.5,-382.7C225.5,-374.98 225.5,-365.71 225.5,-357.11"/>
<polygon fill="black" stroke="black" points="229,-357.1 225.5,-347.1 222,-357.1 229,-357.1"/>
</g>
<!-- mp9 -->
<g id="node22" class="node">
<title>mp9</title>
<polygon fill="none" stroke="black" points="316,-275 135,-275 135,-239 316,-239 316,-275"/>
<text text-anchor="middle" x="225.5" y="-253.2" font-family="Times,serif" font-size="16.00">wrinte_if_changed:mod.c</text>
</g>
<!-- mp8&#45;&gt;mp9 -->
<g id="edge22" class="edge">
<title>mp8&#45;&gt;mp9</title>
<path fill="none" stroke="black" d="M225.5,-310.7C225.5,-302.98 225.5,-293.71 225.5,-285.11"/>
<polygon fill="black" stroke="black" points="229,-285.1 225.5,-275.1 222,-285.1 229,-285.1"/>
</g>
<!-- cpf&#45;&gt;mp1 -->
<g id="edge14" class="edge">
<title>cpf&#45;&gt;mp1</title>
<path fill="none" stroke="black" d="M269.01,-886.7C268.79,-878.98 268.52,-869.71 268.27,-861.11"/>
<polygon fill="black" stroke="black" points="271.77,-861 267.99,-851.1 264.78,-861.2 271.77,-861"/>
</g>
<!-- rs0 -->
<g id="node25" class="node">
<title>rs0</title>
<polygon fill="none" stroke="black" points="524.5,-995 394.5,-995 394.5,-959 524.5,-959 524.5,-995"/>
<text text-anchor="middle" x="459.5" y="-973.2" font-family="Times,serif" font-size="16.00">parse_elf:elf_info</text>
</g>
<!-- rs&#45;&gt;rs0 -->
<g id="edge24" class="edge">
<title>rs&#45;&gt;rs0</title>
<path fill="none" stroke="black" d="M455.74,-1030.7C456.29,-1022.98 456.95,-1013.71 457.56,-1005.11"/>
<polygon fill="black" stroke="black" points="461.06,-1005.33 458.28,-995.1 454.07,-1004.83 461.06,-1005.33"/>
</g>
<!-- rs1 -->
<g id="node26" class="node">
<title>rs1</title>
<polygon fill="none" stroke="black" points="527.5,-923 393.5,-923 393.5,-887 527.5,-887 527.5,-923"/>
<text text-anchor="middle" x="460.5" y="-901.2" font-family="Times,serif" font-size="16.00">new_module:mod</text>
</g>
<!-- rs0&#45;&gt;rs1 -->
<g id="edge25" class="edge">
<title>rs0&#45;&gt;rs1</title>
<path fill="none" stroke="black" d="M459.75,-958.7C459.86,-950.98 459.99,-941.71 460.11,-933.11"/>
<polygon fill="black" stroke="black" points="463.61,-933.15 460.26,-923.1 456.61,-933.05 463.61,-933.15"/>
</g>
<!-- rs2 -->
<g id="node27" class="node">
<title>rs2</title>
<polygon fill="none" stroke="black" points="535.5,-851 387.5,-851 387.5,-815 535.5,-815 535.5,-851"/>
<text text-anchor="middle" x="461.5" y="-829.2" font-family="Times,serif" font-size="16.00">get_modinfo:license</text>
</g>
<!-- rs1&#45;&gt;rs2 -->
<g id="edge26" class="edge">
<title>rs1&#45;&gt;rs2</title>
<path fill="none" stroke="black" d="M460.75,-886.7C460.86,-878.98 460.99,-869.71 461.11,-861.11"/>
<polygon fill="black" stroke="black" points="464.61,-861.15 461.26,-851.1 457.61,-861.05 464.61,-861.15"/>
</g>
<!-- rs3 -->
<g id="node28" class="node">
<title>rs3</title>
<polygon fill="none" stroke="black" points="547.5,-779 377.5,-779 377.5,-743 547.5,-743 547.5,-779"/>
<text text-anchor="middle" x="462.5" y="-757.2" font-family="Times,serif" font-size="16.00">get_modinfo:import_ns</text>
</g>
<!-- rs2&#45;&gt;rs3 -->
<g id="edge27" class="edge">
<title>rs2&#45;&gt;rs3</title>
<path fill="none" stroke="black" d="M461.75,-814.7C461.86,-806.98 461.99,-797.71 462.11,-789.11"/>
<polygon fill="black" stroke="black" points="465.61,-789.15 462.26,-779.1 458.61,-789.05 465.61,-789.15"/>
</g>
<!-- rs4 -->
<g id="node29" class="node">
<title>rs4</title>
<polygon fill="none" stroke="black" points="520.5,-707 404.5,-707 404.5,-671 520.5,-671 520.5,-707"/>
<text text-anchor="middle" x="462.5" y="-685.2" font-family="Times,serif" font-size="16.00">handle_symbol</text>
</g>
<!-- rs3&#45;&gt;rs4 -->
<g id="edge28" class="edge">
<title>rs3&#45;&gt;rs4</title>
<path fill="none" stroke="black" d="M462.5,-742.7C462.5,-734.98 462.5,-725.71 462.5,-717.11"/>
<polygon fill="black" stroke="black" points="466,-717.1 462.5,-707.1 459,-717.1 466,-717.1"/>
</g>
<!-- rs5 -->
<g id="node30" class="node">
<title>rs5</title>
<polygon fill="none" stroke="black" points="538,-635 387,-635 387,-599 538,-599 538,-635"/>
<text text-anchor="middle" x="462.5" y="-613.2" font-family="Times,serif" font-size="16.00">handle_moddevtable</text>
</g>
<!-- rs4&#45;&gt;rs5 -->
<g id="edge29" class="edge">
<title>rs4&#45;&gt;rs5</title>
<path fill="none" stroke="black" d="M462.5,-670.7C462.5,-662.98 462.5,-653.71 462.5,-645.11"/>
<polygon fill="black" stroke="black" points="466,-645.1 462.5,-635.1 459,-645.1 466,-645.1"/>
</g>
<!-- rs6 -->
<g id="node31" class="node">
<title>rs6</title>
<polygon fill="none" stroke="black" points="593,-563 334,-563 334,-527 593,-527 593,-563"/>
<text text-anchor="middle" x="463.5" y="-541.2" font-family="Times,serif" font-size="16.00">sym_update_namespace:__kstrtabns_</text>
</g>
<!-- rs5&#45;&gt;rs6 -->
<g id="edge30" class="edge">
<title>rs5&#45;&gt;rs6</title>
<path fill="none" stroke="black" d="M462.75,-598.7C462.86,-590.98 462.99,-581.71 463.11,-573.11"/>
<polygon fill="black" stroke="black" points="466.61,-573.15 463.26,-563.1 459.61,-573.05 466.61,-573.15"/>
</g>
<!-- rs7 -->
<g id="node32" class="node">
<title>rs7</title>
<polygon fill="none" stroke="black" points="562.5,-491 370.5,-491 370.5,-455 562.5,-455 562.5,-491"/>
<text text-anchor="middle" x="466.5" y="-469.2" font-family="Times,serif" font-size="16.00">handle_modversion:__crc_</text>
</g>
<!-- rs6&#45;&gt;rs7 -->
<g id="edge31" class="edge">
<title>rs6&#45;&gt;rs7</title>
<path fill="none" stroke="black" d="M464.24,-526.7C464.57,-518.98 464.97,-509.71 465.34,-501.11"/>
<polygon fill="black" stroke="black" points="468.84,-501.25 465.77,-491.1 461.84,-500.95 468.84,-501.25"/>
</g>
<!-- rs8 -->
<g id="node33" class="node">
<title>rs8</title>
<polygon fill="none" stroke="black" points="625.5,-419 313.5,-419 313.5,-383 625.5,-383 625.5,-419"/>
<text text-anchor="middle" x="469.5" y="-397.2" font-family="Times,serif" font-size="16.00">find_symbol:STB_GLOBAL 或 STB_WEAK</text>
</g>
<!-- rs7&#45;&gt;rs8 -->
<g id="edge32" class="edge">
<title>rs7&#45;&gt;rs8</title>
<path fill="none" stroke="black" d="M467.24,-454.7C467.57,-446.98 467.97,-437.71 468.34,-429.11"/>
<polygon fill="black" stroke="black" points="471.84,-429.25 468.77,-419.1 464.84,-428.95 471.84,-429.25"/>
</g>
<!-- rs9 -->
<g id="node34" class="node">
<title>rs9</title>
<polygon fill="none" stroke="black" points="523,-347 416,-347 416,-311 523,-311 523,-347"/>
<text text-anchor="middle" x="469.5" y="-325.2" font-family="Times,serif" font-size="16.00">check_sec_ref</text>
</g>
<!-- rs8&#45;&gt;rs9 -->
<g id="edge33" class="edge">
<title>rs8&#45;&gt;rs9</title>
<path fill="none" stroke="black" d="M469.5,-382.7C469.5,-374.98 469.5,-365.71 469.5,-357.11"/>
<polygon fill="black" stroke="black" points="473,-357.1 469.5,-347.1 466,-357.1 473,-357.1"/>
</g>
<!-- rs10 -->
<g id="node35" class="node">
<title>rs10</title>
<polygon fill="none" stroke="black" points="545.5,-275 393.5,-275 393.5,-239 545.5,-239 545.5,-275"/>
<text text-anchor="middle" x="469.5" y="-253.2" font-family="Times,serif" font-size="16.00">get_modinfo:version</text>
</g>
<!-- rs9&#45;&gt;rs10 -->
<g id="edge34" class="edge">
<title>rs9&#45;&gt;rs10</title>
<path fill="none" stroke="black" d="M469.5,-310.7C469.5,-302.98 469.5,-293.71 469.5,-285.11"/>
<polygon fill="black" stroke="black" points="473,-285.1 469.5,-275.1 466,-285.1 473,-285.1"/>
</g>
<!-- rs11 -->
<g id="node36" class="node">
<title>rs11</title>
<polygon fill="none" stroke="black" points="530.5,-203 408.5,-203 408.5,-167 530.5,-167 530.5,-203"/>
<text text-anchor="middle" x="469.5" y="-181.2" font-family="Times,serif" font-size="16.00">get_src_version:</text>
</g>
<!-- rs10&#45;&gt;rs11 -->
<g id="edge35" class="edge">
<title>rs10&#45;&gt;rs11</title>
<path fill="none" stroke="black" d="M469.5,-238.7C469.5,-230.98 469.5,-221.71 469.5,-213.11"/>
<polygon fill="black" stroke="black" points="473,-213.1 469.5,-203.1 466,-213.1 473,-213.1"/>
</g>
<!-- rs12 -->
<g id="node37" class="node">
<title>rs12</title>
<polygon fill="none" stroke="black" points="531.5,-131 407.5,-131 407.5,-95 531.5,-95 531.5,-131"/>
<text text-anchor="middle" x="469.5" y="-109.2" font-family="Times,serif" font-size="16.00">parse_elf_finish:</text>
</g>
<!-- rs11&#45;&gt;rs12 -->
<g id="edge36" class="edge">
<title>rs11&#45;&gt;rs12</title>
<path fill="none" stroke="black" d="M469.5,-166.7C469.5,-158.98 469.5,-149.71 469.5,-141.11"/>
<polygon fill="black" stroke="black" points="473,-141.1 469.5,-131.1 466,-141.1 473,-141.1"/>
</g>
<!-- rs13 -->
<g id="node38" class="node">
<title>rs13</title>
<polygon fill="none" stroke="black" points="572.5,-59 366.5,-59 366.5,-23 572.5,-23 572.5,-59"/>
<text text-anchor="middle" x="469.5" y="-37.2" font-family="Times,serif" font-size="16.00">alloc_symbol:module_layout</text>
</g>
<!-- rs12&#45;&gt;rs13 -->
<g id="edge37" class="edge">
<title>rs12&#45;&gt;rs13</title>
<path fill="none" stroke="black" d="M469.5,-94.7C469.5,-86.98 469.5,-77.71 469.5,-69.11"/>
<polygon fill="black" stroke="black" points="473,-69.1 469.5,-59.1 466,-69.1 473,-69.1"/>
</g>
</g>
</svg>
