<?xml version="1.0" encoding="UTF-8" standalone="no"?>
<!DOCTYPE svg PUBLIC "-//W3C//DTD SVG 1.1//EN"
 "http://www.w3.org/Graphics/SVG/1.1/DTD/svg11.dtd">
<!-- Generated by graphviz version 2.43.0 (0)
 -->
<!-- Title: G Pages: 1 -->
<svg width="944pt" height="331pt"
 viewBox="0.00 0.00 944.00 331.08" xmlns="http://www.w3.org/2000/svg" xmlns:xlink="http://www.w3.org/1999/xlink">
<g id="graph0" class="graph" transform="scale(1 1) rotate(0) translate(4 327.08)">
<title>G</title>
<polygon fill="white" stroke="transparent" points="-4,4 -4,-327.08 940,-327.08 940,4 -4,4"/>
<text text-anchor="middle" x="468" y="-7.8" font-family="Times,serif" font-size="14.00">reboot通知链示例图</text>
<!-- a -->
<g id="node1" class="node">
<title>a</title>
<ellipse fill="none" stroke="black" cx="272" cy="-304.69" rx="60.62" ry="18.27"/>
<text text-anchor="middle" x="272" y="-300.89" font-family="Times,serif" font-size="16.00">sys_reboot</text>
</g>
<!-- a1 -->
<g id="node2" class="node">
<title>a1</title>
<ellipse fill="none" stroke="black" cx="70" cy="-216.92" rx="70.01" ry="18.27"/>
<text text-anchor="middle" x="70" y="-213.12" font-family="Times,serif" font-size="16.00">kernel_halt()</text>
</g>
<!-- a&#45;&gt;a1 -->
<g id="edge1" class="edge">
<title>a&#45;&gt;a1</title>
<path fill="none" stroke="black" d="M213.13,-299.84C164.14,-295.39 99.53,-286.26 81,-268.31 74.94,-262.44 71.86,-254.07 70.37,-245.83"/>
<polygon fill="black" stroke="black" points="73.82,-245.21 69.25,-235.66 66.87,-245.98 73.82,-245.21"/>
<text text-anchor="middle" x="173" y="-257.11" font-family="Times,serif" font-size="14.00">LINUX_REBOOT_CMD_HALT</text>
</g>
<!-- a2 -->
<g id="node3" class="node">
<title>a2</title>
<ellipse fill="none" stroke="black" cx="523" cy="-216.92" rx="80.72" ry="18.27"/>
<text text-anchor="middle" x="523" y="-213.12" font-family="Times,serif" font-size="16.00">kernel_restart()</text>
</g>
<!-- a&#45;&gt;a2 -->
<g id="edge2" class="edge">
<title>a&#45;&gt;a2</title>
<path fill="none" stroke="black" d="M331.79,-300.91C390.6,-297.05 475.23,-288.16 501,-268.31 508.48,-262.55 513.46,-253.74 516.76,-245.08"/>
<polygon fill="black" stroke="black" points="520.1,-246.13 519.81,-235.54 513.43,-243.99 520.1,-246.13"/>
<text text-anchor="middle" x="724" y="-257.11" font-family="Times,serif" font-size="14.00">LINUX_REBOOT_CMD_RESTART/LINUX_REBOOT_CMD_RESTART2</text>
</g>
<!-- a3 -->
<g id="node4" class="node">
<title>a3</title>
<ellipse fill="none" stroke="black" cx="267" cy="-216.92" rx="100.32" ry="18.27"/>
<text text-anchor="middle" x="267" y="-213.12" font-family="Times,serif" font-size="16.00">kernel_power_off()</text>
</g>
<!-- a&#45;&gt;a3 -->
<g id="edge3" class="edge">
<title>a&#45;&gt;a3</title>
<path fill="none" stroke="black" d="M270.97,-285.92C270.29,-274.23 269.38,-258.69 268.61,-245.42"/>
<polygon fill="black" stroke="black" points="272.1,-245.16 268.02,-235.38 265.11,-245.57 272.1,-245.16"/>
<text text-anchor="middle" x="383" y="-257.11" font-family="Times,serif" font-size="14.00">LINUX_REBOOT_CMD_POWER_OFF</text>
</g>
<!-- a4 -->
<g id="node5" class="node">
<title>a4</title>
<ellipse fill="none" stroke="black" cx="248" cy="-129.15" rx="137.36" ry="18.27"/>
<text text-anchor="middle" x="248" y="-125.35" font-family="Times,serif" font-size="16.00">kernel_shutdown_prepare()</text>
</g>
<!-- a1&#45;&gt;a4 -->
<g id="edge4" class="edge">
<title>a1&#45;&gt;a4</title>
<path fill="none" stroke="black" d="M95.04,-199.54C111.65,-189.06 134.14,-175.6 155,-165.54 166.42,-160.03 178.94,-154.78 190.98,-150.08"/>
<polygon fill="black" stroke="black" points="192.42,-153.28 200.51,-146.44 189.92,-146.74 192.42,-153.28"/>
<text text-anchor="middle" x="203.5" y="-169.34" font-family="Times,serif" font-size="14.00">SYSTEM_HALT</text>
</g>
<!-- a5 -->
<g id="node6" class="node">
<title>a5</title>
<ellipse fill="none" stroke="black" cx="523" cy="-129.15" rx="120.42" ry="18.27"/>
<text text-anchor="middle" x="523" y="-125.35" font-family="Times,serif" font-size="16.00">kernel_restart_prepare()</text>
</g>
<!-- a2&#45;&gt;a5 -->
<g id="edge5" class="edge">
<title>a2&#45;&gt;a5</title>
<path fill="none" stroke="black" d="M523,-198.15C523,-186.46 523,-170.92 523,-157.65"/>
<polygon fill="black" stroke="black" points="526.5,-157.61 523,-147.61 519.5,-157.61 526.5,-157.61"/>
</g>
<!-- a3&#45;&gt;a4 -->
<g id="edge6" class="edge">
<title>a3&#45;&gt;a4</title>
<path fill="none" stroke="black" d="M263.07,-198.15C260.48,-186.46 257.03,-170.92 254.09,-157.65"/>
<polygon fill="black" stroke="black" points="257.45,-156.62 251.87,-147.61 250.62,-158.13 257.45,-156.62"/>
<text text-anchor="middle" x="328.5" y="-169.34" font-family="Times,serif" font-size="14.00">SYSTEM_POWER_OFF</text>
</g>
<!-- a6 -->
<g id="node7" class="node">
<title>a6</title>
<ellipse fill="none" stroke="black" cx="385" cy="-41.38" rx="129.3" ry="18.27"/>
<text text-anchor="middle" x="385" y="-37.58" font-family="Times,serif" font-size="16.00">call_chain:reboot_notifier</text>
</g>
<!-- a4&#45;&gt;a6 -->
<g id="edge7" class="edge">
<title>a4&#45;&gt;a6</title>
<path fill="none" stroke="black" d="M263.39,-110.6C273.33,-100.05 286.98,-86.95 301,-77.77 309.63,-72.12 319.31,-67.06 328.95,-62.64"/>
<polygon fill="black" stroke="black" points="330.39,-65.84 338.14,-58.62 327.58,-59.43 330.39,-65.84"/>
<text text-anchor="middle" x="392" y="-81.57" font-family="Times,serif" font-size="14.00">SYS_HALT/SYS_POWER_OFF</text>
</g>
<!-- a5&#45;&gt;a6 -->
<g id="edge8" class="edge">
<title>a5&#45;&gt;a6</title>
<path fill="none" stroke="black" d="M512.69,-110.68C505.55,-99.9 495.16,-86.5 483,-77.77 474.12,-71.38 463.96,-66.04 453.63,-61.6"/>
<polygon fill="black" stroke="black" points="454.71,-58.26 444.12,-57.78 452.09,-64.76 454.71,-58.26"/>
<text text-anchor="middle" x="543.5" y="-81.57" font-family="Times,serif" font-size="14.00">SYS_RESTART</text>
</g>
</g>
</svg>
