<?xml version="1.0" encoding="UTF-8" standalone="no"?>
<!DOCTYPE svg PUBLIC "-//W3C//DTD SVG 1.1//EN"
 "http://www.w3.org/Graphics/SVG/1.1/DTD/svg11.dtd">
<!-- Generated by graphviz version 2.43.0 (0)
 -->
<!-- Title: G Pages: 1 -->
<svg width="552pt" height="654pt"
 viewBox="0.00 0.00 551.96 654.16" xmlns="http://www.w3.org/2000/svg" xmlns:xlink="http://www.w3.org/1999/xlink">
<g id="graph0" class="graph" transform="scale(1 1) rotate(0) translate(4 650.16)">
<title>G</title>
<polygon fill="white" stroke="transparent" points="-4,4 -4,-650.16 547.96,-650.16 547.96,4 -4,4"/>
<text text-anchor="middle" x="271.98" y="-7.8" font-family="Times,serif" font-size="14.00">softirq执行时机</text>
<g id="clust1" class="cluster">
<title>cluster_0</title>
<polygon fill="none" stroke="black" points="13.96,-31 13.96,-179.54 467.96,-179.54 467.96,-31 13.96,-31"/>
<text text-anchor="middle" x="240.96" y="-164.34" font-family="Times,serif" font-size="14.00">应用空间</text>
</g>
<g id="clust2" class="cluster">
<title>cluster_1</title>
<polygon fill="none" stroke="black" points="31.96,-187.54 31.96,-263.31 535.96,-263.31 535.96,-187.54 31.96,-187.54"/>
<text text-anchor="middle" x="283.96" y="-248.11" font-family="Times,serif" font-size="14.00">CPU上下文</text>
</g>
<g id="clust3" class="cluster">
<title>cluster_2</title>
<polygon fill="none" stroke="black" points="128.96,-271.31 128.96,-638.16 360.96,-638.16 360.96,-271.31 128.96,-271.31"/>
<text text-anchor="middle" x="244.96" y="-622.96" font-family="Times,serif" font-size="14.00">内核空间</text>
</g>
<!-- D -->
<g id="node1" class="node">
<title>D</title>
<ellipse fill="none" stroke="black" cx="306.96" cy="-130.15" rx="153.38" ry="18.27"/>
<text text-anchor="middle" x="306.96" y="-126.35" font-family="Times,serif" font-size="16.00">应用软件中syscall下一条指令</text>
</g>
<!-- A -->
<g id="node2" class="node">
<title>A</title>
<ellipse fill="none" stroke="black" cx="78.96" cy="-130.15" rx="56.64" ry="18.27"/>
<text text-anchor="middle" x="78.96" y="-126.35" font-family="Times,serif" font-size="16.00">应用软件</text>
</g>
<!-- B -->
<g id="node3" class="node">
<title>B</title>
<ellipse fill="none" stroke="black" cx="70.96" cy="-57.38" rx="41.94" ry="18.27"/>
<text text-anchor="middle" x="70.96" y="-53.58" font-family="Times,serif" font-size="16.00">syscall</text>
</g>
<!-- A&#45;&gt;B -->
<g id="1" class="edge">
<title>A&#45;&gt;B</title>
<path fill="none" stroke="black" d="M76.98,-111.66C76.11,-103.98 75.07,-94.77 74.1,-86.19"/>
<polygon fill="black" stroke="black" points="77.57,-85.71 72.97,-76.17 70.61,-86.5 77.57,-85.71"/>
</g>
<!-- C -->
<g id="node4" class="node">
<title>C</title>
<ellipse fill="none" stroke="black" cx="407.96" cy="-213.92" rx="119.5" ry="18.27"/>
<text text-anchor="middle" x="407.96" y="-210.12" font-family="Times,serif" font-size="16.00">cpu syscall 上下文处理</text>
</g>
<!-- C&#45;&gt;B -->
<g id="2" class="edge">
<title>C&#45;&gt;B</title>
<path fill="none" stroke="black" d="M334.71,-196.35C316.58,-192.84 297.14,-189.59 278.96,-187.54 264.27,-185.88 23.25,-190.15 12.96,-179.54 -8.02,-157.92 0.86,-139.35 12.96,-111.77 20.05,-95.6 34.72,-82.17 47.53,-72.83"/>
<polygon fill="black" stroke="black" points="334.15,-199.8 344.64,-198.31 335.51,-192.93 334.15,-199.8"/>
</g>
<!-- E -->
<g id="node6" class="node">
<title>E</title>
<ellipse fill="none" stroke="black" cx="244.96" cy="-588.77" rx="108.38" ry="18.27"/>
<text text-anchor="middle" x="244.96" y="-584.97" font-family="Times,serif" font-size="16.00">entry_SYSCALL_64</text>
</g>
<!-- C&#45;&gt;E -->
<g id="4" class="edge">
<title>C&#45;&gt;E</title>
<path fill="none" stroke="black" d="M398.32,-232.41C383.79,-260.44 357.96,-317.58 357.96,-369.46 357.96,-444.23 357.96,-444.23 357.96,-444.23 357.96,-485.18 363.12,-501.32 338.96,-534.39 328.78,-548.32 313.79,-559.13 298.76,-567.26"/>
<polygon fill="black" stroke="black" points="296.78,-564.34 289.44,-571.98 299.94,-570.58 296.78,-564.34"/>
</g>
<!-- J -->
<g id="node5" class="node">
<title>J</title>
<ellipse fill="none" stroke="black" cx="154.96" cy="-213.92" rx="115.02" ry="18.27"/>
<text text-anchor="middle" x="154.96" y="-210.12" font-family="Times,serif" font-size="16.00">cpu sysret 上下文处理</text>
</g>
<!-- J&#45;&gt;D -->
<g id="3" class="edge">
<title>J&#45;&gt;D</title>
<path fill="none" stroke="black" d="M186.08,-196.18C209.29,-183.7 241.19,-166.53 266.4,-152.97"/>
<polygon fill="black" stroke="black" points="268.2,-155.98 275.35,-148.16 264.89,-149.81 268.2,-155.98"/>
</g>
<!-- F -->
<g id="node7" class="node">
<title>F</title>
<ellipse fill="none" stroke="black" cx="239.96" cy="-516" rx="89.61" ry="18.27"/>
<text text-anchor="middle" x="239.96" y="-512.2" font-family="Times,serif" font-size="16.00">保存程序上下文</text>
</g>
<!-- E&#45;&gt;F -->
<g id="5" class="edge">
<title>E&#45;&gt;F</title>
<path fill="none" stroke="black" d="M243.72,-570.28C243.18,-562.6 242.53,-553.39 241.92,-544.8"/>
<polygon fill="black" stroke="black" points="245.41,-544.51 241.21,-534.79 238.43,-545.01 245.41,-544.51"/>
</g>
<!-- G -->
<g id="node10" class="node">
<title>G</title>
<ellipse fill="none" stroke="black" cx="237.96" cy="-443.23" rx="27" ry="18.27"/>
<text text-anchor="middle" x="237.96" y="-439.43" font-family="Times,serif" font-size="16.00">G</text>
</g>
<!-- F&#45;&gt;G -->
<g id="6" class="edge">
<title>F&#45;&gt;G</title>
<path fill="none" stroke="black" d="M239.46,-497.51C239.25,-489.83 238.99,-480.62 238.74,-472.03"/>
<polygon fill="black" stroke="black" points="242.24,-471.91 238.46,-462.02 235.24,-472.11 242.24,-471.91"/>
</g>
<!-- H -->
<g id="node8" class="node">
<title>H</title>
<ellipse fill="none" stroke="black" cx="235.96" cy="-370.46" rx="89.61" ry="18.27"/>
<text text-anchor="middle" x="235.96" y="-366.66" font-family="Times,serif" font-size="16.00">恢复程序上下文</text>
</g>
<!-- I -->
<g id="node9" class="node">
<title>I</title>
<ellipse fill="none" stroke="black" cx="204.96" cy="-297.69" rx="37.45" ry="18.27"/>
<text text-anchor="middle" x="204.96" y="-293.89" font-family="Times,serif" font-size="16.00">sysret</text>
</g>
<!-- H&#45;&gt;I -->
<g id="8" class="edge">
<title>H&#45;&gt;I</title>
<path fill="none" stroke="black" d="M228.3,-351.97C224.77,-343.91 220.5,-334.18 216.59,-325.25"/>
<polygon fill="black" stroke="black" points="219.75,-323.74 212.53,-315.99 213.34,-326.55 219.75,-323.74"/>
</g>
<!-- I&#45;&gt;J -->
<g id="9" class="edge">
<title>I&#45;&gt;J</title>
<path fill="none" stroke="black" d="M194.6,-279.75C187.78,-268.61 178.73,-253.8 171,-241.15"/>
<polygon fill="black" stroke="black" points="173.85,-239.11 165.65,-232.41 167.88,-242.77 173.85,-239.11"/>
</g>
<!-- G&#45;&gt;H -->
<g id="7" class="edge">
<title>G&#45;&gt;H</title>
<path fill="none" stroke="black" d="M237.46,-424.74C237.25,-417.06 236.99,-407.85 236.74,-399.26"/>
<polygon fill="black" stroke="black" points="240.24,-399.14 236.46,-389.25 233.24,-399.34 240.24,-399.14"/>
</g>
</g>
</svg>
